<svg width="83" height="83" viewBox="0 0 83 83" fill="none" xmlns="http://www.w3.org/2000/svg">
<path d="M17.6237 57.404L11.6055 60.5519L10.4512 58.3452C10.2859 58.0291 10.1607 57.7307 10.0758 57.4499C9.99092 57.1691 9.94463 56.903 9.93696 56.6515C9.92929 56.4001 9.96184 56.1663 10.0346 55.9501C10.1013 55.7372 10.2114 55.548 10.3648 55.3825C10.5091 55.2142 10.6936 55.0712 10.9186 54.9536C11.1313 54.8423 11.3433 54.7739 11.5546 54.7486C11.7566 54.7204 11.9595 54.7381 12.1632 54.8019C12.3637 54.8596 12.5574 54.9635 12.7442 55.1135C12.9218 55.2606 13.0926 55.4539 13.2565 55.6933L13.3751 55.6313C13.2751 55.3662 13.2292 55.123 13.2375 54.902C13.2457 54.6809 13.3077 54.4665 13.4236 54.2588C13.5395 54.051 13.7196 53.833 13.964 53.6045L15.0815 52.5438L15.6491 53.6289L14.5981 54.5503C14.3867 54.7383 14.2399 54.9312 14.1576 55.1291C14.0692 55.3302 14.0393 55.5394 14.0678 55.7567C14.0963 55.9741 14.1758 56.2074 14.3061 56.4566L14.888 57.5691L17.1038 56.4101L17.6237 57.404ZM14.1038 57.9792L13.5076 56.8394C13.2469 56.3409 12.9586 56.0117 12.6426 55.8518C12.3235 55.6858 11.9755 55.7014 11.5986 55.8985C11.2217 56.0957 11.0103 56.365 10.9644 56.7064C10.9092 57.045 11.0152 57.4696 11.2823 57.9802L11.888 59.1382L14.1038 57.9792ZM13.9405 48.2773C14.048 48.7594 14.0665 49.2052 13.9961 49.6145C13.9175 50.0186 13.76 50.384 13.5236 50.7109C13.2857 51.031 12.9707 51.305 12.5787 51.533C12.1853 51.7543 11.724 51.9239 11.195 52.0418C10.4183 52.2149 9.74637 52.2277 9.17925 52.08C8.60544 51.9338 8.14056 51.6614 7.78461 51.2627C7.42196 50.8656 7.1757 50.3758 7.04584 49.7932C6.94433 49.3379 6.92953 48.9089 7.00144 48.5063C7.06666 48.1052 7.22082 47.7405 7.46392 47.4122C7.69884 47.0786 8.01825 46.7931 8.42214 46.5554C8.81934 46.3193 9.29248 46.14 9.84156 46.0176C10.3772 45.8982 10.8743 45.8577 11.3327 45.8961C11.7844 45.9359 12.1867 46.0536 12.5395 46.2491C12.8923 46.4445 13.1876 46.7126 13.4252 47.0532C13.6613 47.3872 13.8331 47.7952 13.9405 48.2773ZM13.022 48.461C12.9325 48.0592 12.7593 47.7394 12.5024 47.5014C12.2455 47.2635 11.9199 47.1112 11.5254 47.0445C11.1243 46.9792 10.6593 47.0056 10.1303 47.1235C9.58789 47.2444 9.14303 47.4244 8.79569 47.6635C8.44685 47.8959 8.20409 48.1785 8.06739 48.5112C7.92251 48.8387 7.89485 49.2033 7.98441 49.6051C8.07099 49.9935 8.24681 50.3092 8.51188 50.5524C8.76876 50.7903 9.10185 50.9445 9.51116 51.0149C9.91898 51.0786 10.3974 51.0493 10.9465 50.9269C11.3483 50.8373 11.6968 50.714 11.9921 50.5567C12.2807 50.401 12.5142 50.2189 12.6927 50.0105C12.8644 49.8035 12.9811 49.5701 13.0427 49.3104C13.0961 49.0455 13.0892 48.7623 13.022 48.461ZM13.1002 40.5863C13.0806 41.0867 12.9877 41.5328 12.8213 41.9245C12.6549 42.3162 12.4224 42.6435 12.1238 42.9064C11.8183 43.1691 11.4502 43.3641 11.0195 43.4914C10.582 43.6185 10.0856 43.6712 9.53038 43.6494C8.96826 43.6274 8.46722 43.5357 8.02727 43.3744C7.58758 43.2061 7.21887 42.9788 6.92111 42.6926C6.61651 42.406 6.38945 42.0676 6.23995 41.6773C6.09045 41.2869 6.02495 40.8553 6.04346 40.3823C6.05767 40.0189 6.12223 39.685 6.23713 39.3806C6.34517 39.0759 6.49616 38.814 6.6901 38.595C6.88404 38.3761 7.1171 38.2101 7.38928 38.0972C7.66173 37.9774 7.96604 37.9206 8.30221 37.9269L8.52812 38.9965C8.19934 38.9768 7.92588 39.0347 7.70774 39.1704C7.48301 39.2989 7.31124 39.4775 7.19244 39.7063C7.07364 39.9351 7.00901 40.1832 6.99854 40.4505C6.98889 40.6973 7.02749 40.9391 7.11434 41.1759C7.20119 41.4128 7.34725 41.6279 7.55252 41.8213C7.7512 42.0076 8.01292 42.162 8.33767 42.2846C8.66269 42.4003 9.05828 42.4672 9.52443 42.4855C10.1208 42.5088 10.6109 42.4422 10.9946 42.2855C11.3718 42.1218 11.6555 41.8892 11.8458 41.5877C12.0295 41.279 12.1293 40.9225 12.1451 40.518C12.161 40.1136 12.0947 39.7883 11.9465 39.5422C11.7982 39.2961 11.5959 39.1131 11.3397 38.9932C11.0769 38.8662 10.7779 38.7893 10.4425 38.7625L10.6563 37.7719C11.0057 37.7924 11.336 37.8603 11.6473 37.9754C11.9518 38.0903 12.2163 38.262 12.4407 38.4905C12.6655 38.7121 12.8363 38.9969 12.9531 39.3447C13.07 39.6926 13.119 40.1064 13.1002 40.5863ZM13.2369 36.3102L6.73163 34.3582L7.054 33.2838L10.0996 34.1977C10.0747 33.8035 10.0054 33.4138 9.89173 33.0287C9.77347 32.6351 9.62005 32.2632 9.43148 31.9129C9.24489 31.5561 9.02674 31.2328 8.77706 30.943C8.52737 30.6532 8.25962 30.4117 7.97379 30.2185L8.33756 29.0061C8.66347 29.2329 8.96014 29.4974 9.22757 29.7997C9.49499 30.1019 9.72956 30.4302 9.93128 30.7844C10.1284 31.13 10.2877 31.4822 10.4093 31.841C10.5328 32.1932 10.6136 32.5326 10.6517 32.8592L10.7798 32.8977C10.8745 32.5823 11.0019 32.3125 11.1623 32.0885C11.318 31.8559 11.5053 31.6614 11.7242 31.505C11.943 31.3486 12.1976 31.228 12.4881 31.1433C12.7805 31.052 13.1107 30.9899 13.4787 30.9571L14.8665 30.8793L14.4997 32.1015L13.4382 32.0945C13.0176 32.1116 12.6582 32.1756 12.3599 32.2866C12.0615 32.3977 11.8108 32.5767 11.6078 32.8238C11.4047 33.0708 11.2361 33.4178 11.1021 33.8646L10.9276 34.4461L13.5592 35.2358L13.2369 36.3102ZM15.4061 29.44L9.58155 25.9467L10.1585 24.9848L15.983 28.478L15.4061 29.44ZM15.7449 28.8752L14.9329 28.3882L17.1242 24.7346L17.9361 25.2216L15.7449 28.8752ZM13.1591 27.3244L12.409 26.8745L14.3461 23.6445L15.0963 24.0944L13.1591 27.3244ZM10.7234 25.8635L9.92029 25.3819L12.1062 21.7371L12.9093 22.2188L10.7234 25.8635ZM20.0054 22.5537L15.0458 17.9135L15.8192 17.0869L20.7787 21.7271L20.0054 22.5537ZM14.3601 20.0622L13.6538 19.4013L17.2183 15.5915L17.9246 16.2524L14.3601 20.0622ZM23.2101 19.4698C23.0109 19.6271 22.8261 19.703 22.6558 19.6977C22.4909 19.688 22.3361 19.5917 22.1916 19.4086C22.0428 19.2202 21.9856 19.0425 22.0198 18.8756C22.0541 18.7086 22.1682 18.5486 22.362 18.3956C22.5666 18.2341 22.7541 18.156 22.9244 18.1613C23.0947 18.1667 23.2543 18.2636 23.4031 18.4521C23.6837 18.8075 23.6194 19.1467 23.2101 19.4698ZM25.1238 17.9065L24.4753 17.0705C24.5473 17.044 24.6145 17.0162 24.6771 16.9873C24.7362 16.9524 24.7864 16.9228 24.8278 16.8984C25.1232 16.7241 25.3216 16.5473 25.4229 16.368C25.5208 16.1829 25.5423 15.983 25.4874 15.7685C25.4349 15.5445 25.3251 15.2907 25.1577 15.0071L22.925 11.2225L23.8911 10.6526L26.1238 14.4372C26.3887 14.8862 26.555 15.3099 26.6227 15.7081C26.6927 16.0968 26.6394 16.4588 26.4628 16.794C26.2921 17.1257 25.9674 17.4328 25.4888 17.7151C25.4475 17.7395 25.3955 17.7662 25.3329 17.7951C25.2798 17.8265 25.2101 17.8637 25.1238 17.9065ZM29.2737 15.4796L27.0831 9.05075L29.4403 8.24752C29.778 8.13246 30.0921 8.05444 30.3825 8.01345C30.673 7.97246 30.943 7.96741 31.1927 7.99829C31.4424 8.02917 31.6685 8.09709 31.871 8.20205C32.0712 8.30051 32.2414 8.43822 32.3814 8.61519C32.5257 8.78345 32.6388 8.98771 32.7206 9.22798C32.7981 9.45526 32.8332 9.67523 32.8259 9.88789C32.8229 10.0918 32.7744 10.2896 32.6802 10.4811C32.5925 10.6705 32.4602 10.846 32.2834 11.0077C32.1109 11.1607 31.8938 11.2999 31.6321 11.4253L31.6752 11.552C31.9526 11.4937 32.1998 11.4856 32.417 11.5275C32.6343 11.5694 32.8367 11.6636 33.0242 11.8098C33.2118 11.9561 33.3998 12.1675 33.5882 12.4439L34.4655 13.7105L33.3064 14.1054L32.5565 12.9259C32.4031 12.6883 32.2349 12.5137 32.0519 12.4021C31.8667 12.284 31.6645 12.2224 31.4454 12.2174C31.2262 12.2123 30.9835 12.2552 30.7173 12.3459L29.5289 12.7508L30.3355 15.1178L29.2737 15.4796ZM29.2435 11.9131L30.4611 11.4982C30.9935 11.3168 31.363 11.0822 31.5693 10.7944C31.7822 10.5045 31.82 10.1582 31.6828 9.75557C31.5456 9.35296 31.3118 9.10286 30.9814 9.00526C30.6553 8.89896 30.2195 8.93874 29.674 9.12461L28.4369 9.54614L29.2435 11.9131ZM39.3984 12.8504L39.6613 6.06368L42.1497 6.16009C42.5062 6.1739 42.8274 6.2138 43.1131 6.2798C43.3989 6.34579 43.6528 6.43802 43.8748 6.55647C44.0968 6.67491 44.2834 6.81945 44.4347 6.99009C44.5863 7.15387 44.6956 7.34348 44.7628 7.55891C44.8371 7.76775 44.8693 7.999 44.8595 8.25264C44.8502 8.49258 44.804 8.71048 44.7209 8.90637C44.6449 9.09566 44.5286 9.26279 44.3719 9.40776C44.2221 9.553 44.0357 9.66936 43.8126 9.75683C43.5966 9.83772 43.344 9.88972 43.0548 9.91284L43.0496 10.0465C43.3293 10.0917 43.5631 10.1728 43.7508 10.2899C43.9385 10.4071 44.0936 10.5676 44.2161 10.7714C44.3387 10.9753 44.4383 11.24 44.5149 11.5656L44.8791 13.0627L43.6555 13.0153L43.379 11.6452C43.3211 11.3684 43.2267 11.145 43.096 10.9752C42.9656 10.7985 42.7989 10.6684 42.5962 10.5851C42.3935 10.5017 42.1516 10.4546 41.8705 10.4437L40.616 10.3951L40.5192 12.8938L39.3984 12.8504ZM40.6503 9.51074L41.9356 9.56054C42.4978 9.58231 42.9268 9.49595 43.2226 9.30145C43.5254 9.10721 43.685 8.79758 43.7015 8.37255C43.7179 7.94753 43.5895 7.63017 43.3161 7.42048C43.0499 7.2042 42.6288 7.0849 42.053 7.06259L40.7471 7.012L40.6503 9.51074ZM49.1681 14.184C48.6958 14.0395 48.299 13.8357 47.9777 13.5725C47.665 13.3047 47.4249 12.9873 47.2573 12.6204C47.0963 12.2555 47.0133 11.8464 47.0085 11.3929C47.0102 10.9415 47.0903 10.4566 47.2488 9.93836C47.4815 9.17734 47.802 8.58664 48.2103 8.16627C48.6207 7.73935 49.087 7.46944 49.6093 7.35655C50.1337 7.2371 50.6813 7.26463 51.252 7.43916C51.6981 7.57557 52.0786 7.77439 52.3932 8.03561C52.7099 8.29027 52.9511 8.60434 53.1167 8.9778C53.2908 9.3467 53.3816 9.76544 53.389 10.234C53.3984 10.696 53.3208 11.196 53.1563 11.734C52.9958 12.2588 52.7858 12.7111 52.5262 13.0909C52.2686 13.464 51.9677 13.7559 51.6236 13.9663C51.2795 14.1767 50.9007 14.3012 50.4871 14.3398C50.0802 14.3803 49.6405 14.3284 49.1681 14.184ZM49.4616 13.2945C49.8553 13.4148 50.219 13.422 50.5527 13.316C50.8864 13.21 51.1796 13.0019 51.4322 12.6918C51.6869 12.3751 51.8935 11.9576 52.0519 11.4393C52.2144 10.9079 52.2774 10.4322 52.2409 10.0121C52.2109 9.59398 52.0849 9.2434 51.863 8.96033C51.6496 8.6727 51.3461 8.4687 50.9525 8.34834C50.572 8.23199 50.2106 8.22909 49.8683 8.33965C49.5346 8.44565 49.2361 8.65928 48.9729 8.98053C48.7162 9.30379 48.5056 9.7344 48.3411 10.2724C48.2208 10.666 48.1561 11.03 48.1471 11.3645C48.1401 11.6923 48.1832 11.9853 48.2765 12.2434C48.3718 12.4949 48.5172 12.7115 48.7127 12.8933C48.9168 13.0705 49.1664 13.2042 49.4616 13.2945ZM56.2509 17.2535C55.8264 16.9878 55.4855 16.6855 55.2283 16.3464C54.9711 16.0074 54.8026 15.643 54.7228 15.2532C54.6467 14.8575 54.6604 14.4412 54.7639 14.0042C54.8711 13.5614 55.0721 13.1045 55.3669 12.6334C55.6654 12.1566 55.9939 11.7674 56.3526 11.4658C56.7171 11.1679 57.0976 10.9608 57.494 10.8447C57.894 10.7228 58.3005 10.694 58.7135 10.7582C59.1266 10.8225 59.5337 10.9802 59.9349 11.2313C60.2432 11.4242 60.5008 11.6461 60.7079 11.8971C60.9187 12.1423 61.0708 12.4035 61.1645 12.6806C61.2581 12.9577 61.2863 13.2425 61.249 13.5348C61.2176 13.8307 61.1156 14.123 60.9431 14.4116L59.9027 14.0761C60.0832 13.8006 60.1688 13.5345 60.1595 13.2778C60.1597 13.0189 60.09 12.781 59.9505 12.5642C59.811 12.3475 59.6279 12.1681 59.4011 12.0261C59.1917 11.8951 58.9627 11.8084 58.714 11.7661C58.4653 11.7238 58.2061 11.7436 57.9362 11.8256C57.6759 11.9055 57.4118 12.0558 57.144 12.2767C56.8821 12.5013 56.6274 12.8113 56.3799 13.2067C56.0633 13.7127 55.8776 14.1711 55.8228 14.5819C55.7774 14.9906 55.8383 15.3524 56.0054 15.6674C56.1819 15.9802 56.4417 16.2439 56.7848 16.4587C57.1279 16.6734 57.4431 16.7776 57.7303 16.7712C58.0176 16.7648 58.2769 16.6803 58.5082 16.5175C58.749 16.3526 58.9644 16.1313 59.1544 15.8536L59.9077 16.5315C59.7163 16.8244 59.4932 17.0773 59.2386 17.2903C58.9876 17.4974 58.7072 17.6415 58.3973 17.7228C58.0933 17.8077 57.7613 17.8144 57.4014 17.7429C57.0415 17.6714 56.658 17.5083 56.2509 17.2535ZM59.9017 19.5023L64.8148 14.8129L65.5892 15.6244L63.289 17.8198C63.644 17.9931 64.017 18.1255 64.4079 18.2171C64.8085 18.3089 65.2077 18.3595 65.6053 18.3687C66.0077 18.383 66.3966 18.3532 66.772 18.2795C67.1473 18.2057 67.4896 18.0924 67.7989 17.9395L68.6728 18.8551C68.3146 19.0263 67.938 19.1534 67.543 19.2364C67.1481 19.3194 66.7468 19.3609 66.3392 19.3612C65.9413 19.3616 65.5563 19.3259 65.1844 19.2542C64.8172 19.1874 64.4822 19.0898 64.1795 18.9615L64.0827 19.0538C64.3101 19.292 64.4815 19.5362 64.597 19.7864C64.7221 20.0368 64.7986 20.2957 64.8263 20.5633C64.8541 20.8308 64.833 21.1117 64.763 21.4061C64.6978 21.7054 64.5885 22.0231 64.4351 22.3592L63.8165 23.604L62.9355 22.6809L63.4664 21.7616C63.6595 21.3876 63.7816 21.0435 63.8326 20.7293C63.8836 20.4151 63.8519 20.1087 63.7376 19.81C63.6232 19.5114 63.405 19.1933 63.0829 18.8558L62.6637 18.4166L60.6761 20.3137L59.9017 19.5023ZM64.8107 24.7952L70.7141 21.4368L71.2687 22.4117L65.3654 25.7701L64.8107 24.7952ZM65.1364 25.3676L65.9593 24.8995L68.0659 28.6025L67.243 29.0706L65.1364 25.3676ZM67.7571 23.8767L68.5174 23.4442L70.3798 26.7178L69.6195 27.1504L67.7571 23.8767ZM70.2258 22.4723L71.0397 22.0092L73.1413 25.7033L72.3273 26.1663L70.2258 22.4723ZM68.5239 32.1632L75.0198 30.1804L75.3503 31.263L68.8544 33.2459L68.5239 32.1632ZM73.4998 28.514L74.425 28.2316L75.9482 33.2217L75.023 33.5041L73.4998 28.514ZM69.6031 36.4925C69.5654 36.2415 69.5911 36.0434 69.6803 35.8982C69.7705 35.7598 69.9309 35.6732 70.1616 35.6386C70.399 35.6029 70.5817 35.6414 70.7096 35.754C70.8375 35.8666 70.9198 36.045 70.9565 36.2892C70.9953 36.547 70.97 36.7485 70.8809 36.8937C70.7917 37.0389 70.6284 37.1294 70.3909 37.165C69.9431 37.2323 69.6805 37.0081 69.6031 36.4925ZM70.0099 38.9194L71.0581 38.7745C71.0452 38.8501 71.0356 38.9222 71.0295 38.9909C71.0302 39.0595 71.0309 39.1178 71.0314 39.1658C71.035 39.5088 71.0892 39.769 71.194 39.9462C71.3057 40.1234 71.4682 40.2417 71.6815 40.3012C71.9017 40.3675 72.1765 40.3989 72.5058 40.3954L76.8996 40.3487L76.9115 41.4703L72.5177 41.517C71.9963 41.5225 71.5463 41.4553 71.1674 41.3152C70.7955 41.182 70.5084 40.9552 70.306 40.6349C70.1037 40.3214 69.9996 39.8869 69.9937 39.3312C69.9932 39.2832 69.996 39.2248 70.0022 39.1562C70.0015 39.0944 70.0041 39.0155 70.0099 38.9194ZM70.0436 43.7439L76.7143 45.0206L76.2462 47.4665C76.1792 47.8169 76.0916 48.1284 75.9835 48.4011C75.8755 48.6738 75.7462 48.911 75.5959 49.1127C75.4455 49.3145 75.2746 49.4773 75.0833 49.6014C74.8986 49.7267 74.6948 49.8064 74.4717 49.8406C74.2541 49.8827 74.0206 49.8799 73.7713 49.8322C73.5355 49.7871 73.327 49.7088 73.1457 49.5973C72.97 49.4938 72.8222 49.3537 72.7023 49.1771C72.5811 49.0072 72.494 48.8055 72.441 48.5718C72.3933 48.3461 72.3798 48.0886 72.4002 47.7991L72.2688 47.774C72.1823 48.0438 72.067 48.2627 71.9231 48.4308C71.7792 48.5988 71.5973 48.7281 71.3774 48.8188C71.1575 48.9094 70.8808 48.9682 70.5473 48.9952L69.0126 49.131L69.2428 47.9283L70.6388 47.8602C70.9213 47.8444 71.1562 47.7846 71.3437 47.6808C71.538 47.5782 71.6915 47.433 71.8043 47.245C71.9171 47.0571 71.9999 46.825 72.0528 46.5487L72.2888 45.3156L69.8328 44.8456L70.0436 43.7439ZM73.158 45.482L72.9162 46.7454C72.8105 47.2979 72.8316 47.735 72.9796 48.0567C73.1263 48.3851 73.4085 48.5893 73.8263 48.6693C74.244 48.7492 74.577 48.6698 74.8253 48.4309C75.079 48.2001 75.2601 47.8017 75.3684 47.2357L75.6141 45.9521L73.158 45.482ZM67.3298 53.839L73.0913 57.4354L71.7727 59.5479C71.5838 59.8505 71.3897 60.1095 71.1906 60.3249C70.9915 60.5403 70.7854 60.7149 70.5724 60.8488C70.3594 60.9828 70.1413 61.0731 69.9181 61.1197C69.7007 61.17 69.4818 61.1709 69.2614 61.1223C69.0433 61.0831 68.8265 60.9964 68.6112 60.862C68.4075 60.7348 68.2412 60.5866 68.1124 60.4172C67.9858 60.2573 67.8984 60.0734 67.8503 59.8654C67.7986 59.6633 67.7901 59.4437 67.8248 59.2066C67.8618 58.9789 67.942 58.7338 68.0655 58.4712L67.952 58.4004C67.774 58.6208 67.5875 58.7835 67.3927 58.8883C67.1979 58.9931 66.9816 59.0482 66.7438 59.0534C66.506 59.0586 66.2267 59.0137 65.906 58.9186L64.4255 58.4919L65.0739 57.4531L66.4006 57.893C66.6697 57.9801 66.9104 58.009 67.1228 57.9798C67.3409 57.9542 67.5365 57.8741 67.7095 57.7395C67.8825 57.6049 68.0434 57.4183 68.1924 57.1797L68.8571 56.1146L66.7359 54.7905L67.3298 53.839ZM69.6079 56.5833L68.9268 57.6745C68.6289 58.1517 68.491 58.567 68.513 58.9204C68.5314 59.2796 68.721 59.5718 69.0818 59.7971C69.4426 60.0223 69.7819 60.0683 70.0996 59.935C70.4195 59.8112 70.732 59.5049 71.0371 59.016L71.7292 57.9074L69.6079 56.5833ZM61.323 61.6505C61.6834 61.3128 62.0577 61.0702 62.446 60.9226C62.8339 60.7848 63.2287 60.7346 63.6303 60.7719C64.0269 60.8139 64.4231 60.9457 64.8187 61.1673C65.2093 61.3936 65.5899 61.7045 65.9605 62.1C66.5046 62.6807 66.8573 63.2528 67.0186 63.8162C67.1845 64.3846 67.1864 64.9234 67.0242 65.4326C66.8667 65.9468 66.5702 66.408 66.1347 66.816C65.7942 67.135 65.4324 67.3659 65.0492 67.5088C64.6706 67.6566 64.2782 67.7094 63.8719 67.667C63.4652 67.6344 63.0569 67.5046 62.6469 67.2777C62.2415 67.0558 61.8466 66.7396 61.4619 66.3291C61.0867 65.9286 60.799 65.5212 60.5989 65.107C60.4035 64.6978 60.3003 64.2916 60.2891 63.8884C60.278 63.4852 60.3586 63.0947 60.5311 62.7168C60.6986 62.3437 60.9625 61.9883 61.323 61.6505ZM61.9482 62.348C61.6478 62.6294 61.4605 62.9412 61.3863 63.2834C61.3121 63.6256 61.3465 63.9835 61.4897 64.357C61.6375 64.7355 61.8968 65.1226 62.2673 65.518C62.6473 65.9236 63.0285 66.215 63.411 66.3925C63.7885 66.5747 64.1553 66.64 64.5112 66.5885C64.8669 66.5467 65.1949 66.385 65.4953 66.1036C65.7857 65.8315 65.9681 65.5196 66.0427 65.1677C66.1169 64.8255 66.0803 64.4603 65.9327 64.072C65.7802 63.6885 65.5116 63.2915 65.127 62.881C64.8455 62.5806 64.562 62.3432 64.2765 62.1689C63.9956 61.9996 63.7201 61.8911 63.4498 61.8435C63.1843 61.8009 62.924 61.8191 62.6691 61.8982C62.4138 61.987 62.1735 62.1369 61.9482 62.348ZM55.1243 66.3023C55.5643 66.0631 55.9951 65.9148 56.4168 65.8574C56.8385 65.8 57.2387 65.8324 57.6174 65.9545C57.9994 66.0826 58.3552 66.2991 58.6849 66.6041C59.0179 66.915 59.3171 67.3146 59.5824 67.8028C59.8511 68.2971 60.0286 68.7745 60.1149 69.2351C60.1953 69.699 60.1886 70.1321 60.0949 70.5343C60.0045 70.9427 59.8299 71.3109 59.571 71.639C59.3121 71.9671 58.9746 72.2442 58.5587 72.4703C58.2393 72.6439 57.9194 72.7592 57.599 72.8162C57.2819 72.8793 56.9796 72.8835 56.6923 72.8289C56.4049 72.7742 56.1431 72.6589 55.9068 72.4828C55.6645 72.3099 55.4601 72.0775 55.2935 71.7854L56.097 71.0442C56.2482 71.3368 56.4379 71.5421 56.6661 71.6601C56.8915 71.7875 57.1328 71.8437 57.3902 71.8288C57.6475 71.8138 57.8938 71.7425 58.1288 71.6147C58.3458 71.4967 58.5339 71.3399 58.6929 71.1441C58.852 70.9483 58.9621 70.7128 59.0233 70.4375C59.0818 70.1715 59.0806 69.8676 59.0198 69.5259C58.9529 69.1874 58.8081 68.8132 58.5853 68.4033C58.3003 67.8789 57.9923 67.4919 57.6615 67.2423C57.3278 67.002 56.9828 66.8772 56.6264 66.8679C56.2672 66.8679 55.9098 66.9646 55.5542 67.1579C55.1986 67.3512 54.9529 67.5745 54.8173 67.8278C54.6817 68.0811 54.6279 68.3484 54.656 68.6299C54.6813 68.9207 54.7682 69.217 54.9166 69.5189L53.9561 69.8419C53.795 69.5312 53.6844 69.2127 53.6241 68.8863C53.5671 68.5659 53.5793 68.2508 53.6608 67.941C53.7363 67.6345 53.8936 67.3421 54.1327 67.0638C54.3718 66.7854 54.7024 66.5316 55.1243 66.3023ZM51.394 68.3648L53.0197 74.9592L51.9306 75.2277L51.1695 72.1403C50.8427 72.3622 50.5423 72.62 50.2685 72.9136C49.9896 73.2155 49.7473 73.5367 49.5415 73.8771C49.3291 74.2191 49.1616 74.5713 49.0389 74.9337C48.9163 75.296 48.8444 75.6493 48.8233 75.9937L47.5943 76.2967C47.6239 75.9008 47.7009 75.5108 47.8253 75.1269C47.9497 74.7429 48.1131 74.3741 48.3156 74.0203C48.5131 73.6749 48.7354 73.3586 48.9826 73.0716C49.2231 72.7862 49.4743 72.5441 49.7362 72.3453L49.7042 72.2154C49.3845 72.2942 49.0874 72.3215 48.8129 72.2973C48.5334 72.2814 48.2707 72.219 48.0248 72.11C47.7789 72.0011 47.5457 71.8431 47.3251 71.636C47.0978 71.4306 46.8765 71.1778 46.6612 70.8776L45.8887 69.722L47.1277 69.4166L47.6613 70.3343C47.8897 70.6878 48.1276 70.9648 48.3749 71.1653C48.6221 71.3657 48.9037 71.4906 49.2197 71.5399C49.5357 71.5892 49.9202 71.558 50.3731 71.4463L50.9626 71.301L50.3049 68.6333L51.394 68.3648ZM44.3584 69.9929L44.3439 76.7847L43.2222 76.7823L43.2367 69.9905L44.3584 69.9929ZM43.6998 69.9915L43.6977 70.9383L39.4374 70.9292L39.4395 69.9824L43.6998 69.9915ZM43.6933 73.0067L43.6915 73.8814L39.9251 73.8733L39.927 72.9986L43.6933 73.0067ZM43.6873 75.8469L43.6853 76.7833L39.4353 76.7742L39.4373 75.8378L43.6873 75.8469ZM36.0974 69.5686L34.6356 76.2012L33.5301 75.9576L34.992 69.325L36.0974 69.5686ZM36.8336 75.6951L36.6254 76.6398L31.5303 75.5168L31.7385 74.5722L36.8336 75.6951ZM31.8309 68.3865C32.0673 68.4791 32.2261 68.6003 32.3073 68.7501C32.3822 68.8974 32.3771 69.0796 32.292 69.2967C32.2043 69.5203 32.0798 69.6594 31.9184 69.714C31.757 69.7686 31.5613 69.7508 31.3313 69.6607C31.0886 69.5655 30.9266 69.443 30.8454 69.2933C30.7641 69.1435 30.7673 68.9568 30.8549 68.7333C31.0202 68.3118 31.3455 68.1961 31.8309 68.3865ZM29.515 67.5225L29.1203 68.5043C29.0611 68.4555 29.0032 68.4114 28.9467 68.372C28.8867 68.3386 28.8358 68.3102 28.7939 68.2868C28.4944 68.1196 28.2416 68.0375 28.0357 68.0404C27.8265 68.0494 27.6431 68.1317 27.4855 68.2873C27.3186 68.4455 27.155 68.6685 26.9945 68.956L24.8533 72.7931L23.8738 72.2465L26.015 68.4094C26.2691 67.9541 26.551 67.5968 26.8606 67.3376C27.161 67.0809 27.5004 66.9443 27.8789 66.9277C28.2514 66.9077 28.6803 67.0332 29.1656 67.3039C29.2075 67.3273 29.2568 67.3588 29.3133 67.3982C29.3672 67.4283 29.4345 67.4697 29.515 67.5225ZM25.3199 65.1608L20.8838 70.3037L18.9981 68.6772C18.728 68.4442 18.5017 68.2128 18.3194 67.983C18.1371 67.7533 17.996 67.5229 17.8963 67.2919C17.7966 67.0609 17.7407 66.8316 17.7288 66.6038C17.7124 66.3813 17.745 66.1648 17.8268 65.9545C17.8989 65.7449 18.0178 65.544 18.1836 65.3518C18.3405 65.1699 18.5124 65.0284 18.6995 64.927C18.8769 64.8263 19.0721 64.7682 19.2849 64.7525C19.4926 64.7323 19.7109 64.7575 19.9399 64.8282C20.1592 64.8996 20.3891 65.0164 20.6297 65.1786L20.7171 65.0773C20.5265 64.8676 20.3943 64.6584 20.3206 64.4499C20.2468 64.2413 20.2256 64.0191 20.2568 63.7833C20.288 63.5475 20.3752 63.2784 20.5183 62.976L21.1667 61.5783L22.0939 62.3782L21.4561 63.6219C21.3288 63.8745 21.2633 64.1079 21.2597 64.3222C21.2515 64.5417 21.3008 64.7472 21.4073 64.9388C21.5139 65.1304 21.6736 65.318 21.8866 65.5017L22.8373 66.3217L24.4706 64.4282L25.3199 65.1608ZM22.2593 66.9919L21.2852 66.1517C20.8592 65.7843 20.4699 65.5844 20.1173 65.552C19.7595 65.5152 19.4417 65.6578 19.1639 65.9799C18.8861 66.302 18.7887 66.6302 18.8717 66.9646C18.9451 67.2996 19.2 67.6554 19.6363 68.0318L20.626 68.8854L22.2593 66.9919Z" fill="url(#paint0_linear_5033_8076)"/>
<defs>
<linearGradient id="paint0_linear_5033_8076" x1="9.29688" y1="41.456" x2="73.6131" y2="41.456" gradientUnits="userSpaceOnUse">
<stop stop-color="#FF0000"/>
<stop offset="1" stop-color="#990000"/>
</linearGradient>
</defs>
</svg>
