<svg width="914" height="227" viewBox="0 0 914 227" fill="none" xmlns="http://www.w3.org/2000/svg">
<g filter="url(#filter0_ddd_5014_8003)">
<path d="M256.154 156.41C227.727 156.41 206.005 149.481 190.98 135.625C175.956 121.769 168.443 103.077 168.443 79.5489C168.443 64.0373 171.689 50.5769 178.188 39.1559C184.687 27.7409 194.432 18.856 207.423 12.4893C220.414 6.12861 236.657 2.94824 256.154 2.94824C284.58 2.94824 306.2 9.87647 321.026 23.7329C335.845 37.5894 343.262 56.1987 343.262 79.5489C343.262 94.7118 339.961 108.089 333.366 119.676C326.765 131.268 317.02 140.289 304.132 146.733C291.237 153.176 275.246 156.404 256.161 156.404L256.154 156.41ZM255.544 121.118C265.899 121.118 274.473 119.25 281.28 115.497C288.08 111.749 293.154 106.7 296.51 100.334C299.858 93.9729 301.536 87.0447 301.536 79.5489C301.536 72.0532 299.858 64.8235 296.51 58.3741C293.161 51.9306 288.08 46.7876 281.28 42.9511C274.473 39.1205 265.899 37.1992 255.544 37.1992C240.718 37.1992 229.398 41.2072 221.585 49.2231C213.764 57.2391 209.861 67.3536 209.861 79.5489C209.861 86.8673 211.538 93.7128 214.887 100.074C218.236 106.44 223.262 111.536 229.96 115.366C236.657 119.203 245.19 121.118 255.544 121.118Z" fill="url(#paint0_linear_5014_8003)"/>
<path d="M408.22 155.369C391.976 155.369 377.157 152.585 363.755 147.005C350.353 141.43 339.698 133.065 331.774 121.905C323.858 110.756 319.996 96.8991 320.201 80.3352C320.4 64.1259 324.413 50.2281 332.233 38.6357C340.047 27.0493 350.662 18.2057 364.056 12.0992C377.458 5.99856 392.483 2.94824 409.131 2.94824C425.778 2.94824 440.906 5.6084 452.685 10.9228C464.456 16.2431 473.647 23.2127 480.248 31.8375C486.843 40.4624 491.061 49.7434 492.89 59.6805H449.034C448.014 53.0597 445.124 48.1768 440.358 45.0378C435.585 41.8988 430.305 39.8535 424.518 38.8958C418.732 37.9382 413.602 37.4593 409.137 37.4593C393.298 37.4593 381.526 40.9885 373.808 48.0468C366.09 55.105 362.235 64.9062 362.235 77.4563C362.235 91.2241 365.988 101.947 373.5 109.615C381.012 117.288 392.784 121.118 408.829 121.118C413.5 121.118 418.773 120.557 424.669 119.416C430.558 118.287 435.886 115.975 440.659 112.488C445.426 109.006 448.322 103.774 449.336 96.8045H493.499C491.465 107.09 487.103 116.72 480.406 125.694C473.708 134.673 464.415 141.862 452.541 147.259C440.666 152.662 425.895 155.363 408.227 155.363L408.22 155.369Z" fill="url(#paint1_linear_5014_8003)"/>
<path d="M473.461 153.086V5.89648H515.796V153.08H473.461V153.086ZM515.186 108.904V68.9067L577.312 5.89648H632.74V9.29557L515.18 108.898L515.186 108.904ZM587.975 153.086L531.026 78.3178L561.788 52.4374L636.405 149.693V153.092H587.982L587.975 153.086Z" fill="url(#paint2_linear_5014_8003)"/>
<path d="M622.183 153.086V5.89648H751.92V37.0085H663.901V63.9352H729.383V93.2146H663.901V124.061H755.269V153.08H622.176L622.183 153.086Z" fill="url(#paint3_linear_5014_8003)"/>
<path d="M725.367 37.0085V5.89648H860.891V37.0085H725.367ZM814.297 10.602V153.08H771.66V10.602H814.297Z" fill="url(#paint4_linear_5014_8003)"/>
<path d="M59.5869 153.995V1.47363H130.951C146.325 1.47363 159.514 3.01061 170.526 6.07866C181.538 9.15263 190.05 14.0296 196.076 20.7095C202.103 27.3954 205.116 36.3335 205.116 47.5298C205.116 56.7399 203.555 64.5548 200.439 70.9628C197.323 77.3768 192.851 82.301 187.037 85.7297C181.216 89.1642 174.361 90.8786 166.472 90.8786C171.458 90.8786 175.354 91.7357 178.155 93.45C180.963 95.1703 183.14 97.4225 184.702 100.225C186.263 103.027 187.455 105.959 188.283 109.027C189.112 112.101 189.941 115.08 190.776 117.965C191.605 120.856 192.803 123.297 194.358 125.277C195.919 127.27 198.254 128.44 201.37 128.801C204.486 129.167 208.643 128.44 213.834 126.631V147.221C208.013 151.554 201.575 154.397 194.515 155.757C187.448 157.111 180.75 156.75 174.416 154.675C168.075 152.6 162.829 148.628 158.679 142.758C154.522 136.893 152.447 128.901 152.447 118.781C152.447 115.352 152.235 112.142 151.824 109.163C151.406 106.183 150.365 103.565 148.708 101.306C147.044 99.0482 144.449 97.1979 140.915 95.7555C137.381 94.3131 132.601 93.4087 126.582 93.0481C120.556 92.6875 112.762 92.8707 103.209 93.5919V154.001H59.5801L59.5869 153.995ZM103.216 67.0317H125.027C134.58 67.0317 142.374 66.9431 148.4 66.7598C154.426 66.5825 158.939 65.3647 161.959 63.1006C164.966 60.8424 166.479 56.734 166.479 50.7752C166.479 44.0953 164.657 39.4429 161.028 36.8242C157.391 34.2054 152.091 32.7157 145.133 32.3551C138.169 31.9945 129.602 31.8113 119.426 31.8113H103.223V67.0317H103.216Z" fill="url(#paint5_linear_5014_8003)"/>
</g>
<path d="M497.781 190.937C497.781 193.47 498.083 195.692 498.685 197.604C499.287 199.468 500.143 201.045 501.254 202.336C502.365 203.579 503.708 204.511 505.282 205.132C506.857 205.753 508.594 206.063 510.492 206.063C513.27 206.063 515.585 205.514 517.438 204.415C519.336 203.316 520.772 201.643 521.744 199.396C522.763 197.15 523.271 194.33 523.271 190.937V167.779H526.397V190.937C526.397 196.815 525.032 201.332 522.3 204.486C519.614 207.593 515.678 209.146 510.492 209.146C505.445 209.146 501.532 207.569 498.754 204.415C495.976 201.213 494.587 196.72 494.587 190.937V167.779H497.781V190.937ZM721.151 167.062C727.263 167.062 731.894 168.974 735.043 172.798C738.238 176.574 739.836 181.664 739.836 188.068C739.836 192.227 739.118 195.907 737.683 199.109C736.293 202.264 734.21 204.726 731.432 206.494C728.7 208.263 725.272 209.146 721.151 209.146C715.039 209.146 710.386 207.258 707.191 203.482C703.996 199.659 702.398 194.521 702.398 188.068C702.398 183.815 703.093 180.134 704.482 177.027C705.872 173.873 707.955 171.435 710.733 169.715C713.512 167.946 716.984 167.063 721.151 167.062ZM795.302 167.779C798.589 167.779 801.368 168.114 803.637 168.783C805.905 169.452 807.619 170.599 808.776 172.224C809.98 173.849 810.582 176.143 810.582 179.106C810.582 180.923 810.258 182.62 809.609 184.197C808.961 185.774 807.943 187.065 806.554 188.068C805.211 189.024 803.452 189.502 801.275 189.502C803.081 189.502 804.493 189.861 805.512 190.578C806.53 191.247 807.248 192.131 807.665 193.23C808.128 194.33 808.405 195.525 808.498 196.815C808.637 198.106 808.707 199.373 808.707 200.615C808.707 201.858 808.776 202.957 808.915 203.913C809.054 204.869 809.378 205.538 809.888 205.92C810.397 206.302 811.207 206.302 812.318 205.92V208.286C812.087 208.477 811.624 208.645 810.93 208.788C810.281 208.931 809.564 208.884 808.776 208.645C807.989 208.406 807.317 207.855 806.762 206.995C806.206 206.135 805.929 204.821 805.929 203.053C805.929 200.281 805.813 198.058 805.581 196.385C805.396 194.712 804.956 193.445 804.262 192.585C803.613 191.725 802.571 191.128 801.136 190.793C799.7 190.458 797.779 190.291 795.371 190.291C793.01 190.291 790 190.315 786.342 190.362V208.143H783.147V167.779H795.302ZM450.477 196.743C450.477 198.655 450.267 200.376 449.851 201.905C449.434 203.387 448.786 204.654 447.906 205.705C447.073 206.757 445.984 207.546 444.642 208.071C443.345 208.597 441.748 208.859 439.85 208.859C438.924 208.859 437.858 208.692 436.654 208.357C435.451 208.071 434.27 207.569 433.112 206.853C432.001 206.136 431.075 205.083 430.334 203.697C429.593 202.311 429.223 200.543 429.223 198.393H432.14C432.14 199.492 432.348 200.639 432.765 201.834C433.181 202.981 433.945 203.961 435.057 204.773C436.214 205.586 437.812 205.992 439.85 205.992C442.396 205.992 444.272 205.299 445.476 203.913C446.726 202.527 447.351 200.233 447.351 197.03V170.575H439.78V167.851H450.477V196.743ZM598.728 206.637H598.866V167.779H601.992V208.143H596.157L573.654 169.284H573.515V208.143H570.39V167.779H575.877L598.728 206.637ZM660.152 208.143H646.12V205.275H651.607V170.719H646.12V167.779H660.152V170.719H654.732V205.275H660.152V208.143ZM721.151 170.145C716.012 170.145 712.123 171.723 709.483 174.877C706.844 178.031 705.524 182.428 705.524 188.068C705.524 191.605 706.08 194.736 707.191 197.46C708.303 200.137 710.016 202.24 712.331 203.77C714.692 205.299 717.633 206.063 721.151 206.063C724.624 206.063 727.496 205.322 729.765 203.841C732.08 202.311 733.816 200.209 734.974 197.532C736.178 194.808 736.779 191.653 736.779 188.068C736.779 184.436 736.201 181.281 735.043 178.604C733.932 175.928 732.195 173.849 729.834 172.367C727.519 170.886 724.624 170.145 721.151 170.145ZM786.342 187.71H796.552C799.098 187.71 801.182 187.471 802.803 186.993C804.47 186.467 805.697 185.607 806.484 184.412C807.318 183.169 807.734 181.449 807.734 179.25C807.734 176.717 807.225 174.853 806.206 173.658C805.187 172.416 803.729 171.603 801.831 171.221C799.933 170.838 797.617 170.646 794.885 170.646H786.342V187.71Z" fill="#EDEDED"/>
<defs>
<filter id="filter0_ddd_5014_8003" x="-18" y="0" width="931.537" height="251" filterUnits="userSpaceOnUse" color-interpolation-filters="sRGB">
<feFlood flood-opacity="0" result="BackgroundImageFix"/>
<feColorMatrix in="SourceAlpha" type="matrix" values="0 0 0 0 0 0 0 0 0 0 0 0 0 0 0 0 0 0 127 0" result="hardAlpha"/>
<feOffset dx="-18" dy="24"/>
<feColorMatrix type="matrix" values="0 0 0 0 0.30649 0 0 0 0 0.0241569 0 0 0 0 0.0422745 0 0 0 1 0"/>
<feBlend mode="normal" in2="BackgroundImageFix" result="effect1_dropShadow_5014_8003"/>
<feColorMatrix in="SourceAlpha" type="matrix" values="0 0 0 0 0 0 0 0 0 0 0 0 0 0 0 0 0 0 127 0" result="hardAlpha"/>
<feOffset dx="-12" dy="16"/>
<feColorMatrix type="matrix" values="0 0 0 0 0.469686 0 0 0 0 0.0370196 0 0 0 0 0.0647843 0 0 0 1 0"/>
<feBlend mode="normal" in2="effect1_dropShadow_5014_8003" result="effect2_dropShadow_5014_8003"/>
<feColorMatrix in="SourceAlpha" type="matrix" values="0 0 0 0 0 0 0 0 0 0 0 0 0 0 0 0 0 0 127 0" result="hardAlpha"/>
<feOffset dx="-6" dy="8"/>
<feColorMatrix type="matrix" values="0 0 0 0 0.632882 0 0 0 0 0.0498824 0 0 0 0 0.0872941 0 0 0 1 0"/>
<feBlend mode="normal" in2="effect2_dropShadow_5014_8003" result="effect3_dropShadow_5014_8003"/>
<feBlend mode="normal" in="SourceGraphic" in2="effect3_dropShadow_5014_8003" result="shape"/>
</filter>
<linearGradient id="paint0_linear_5014_8003" x1="168.437" y1="79.679" x2="343.255" y2="79.679" gradientUnits="userSpaceOnUse">
<stop stop-color="#E30613"/>
<stop offset="1" stop-color="#BE1622"/>
</linearGradient>
<linearGradient id="paint1_linear_5014_8003" x1="320.194" y1="79.1588" x2="493.492" y2="79.1588" gradientUnits="userSpaceOnUse">
<stop stop-color="#E30613"/>
<stop offset="1" stop-color="#BE1622"/>
</linearGradient>
<linearGradient id="paint2_linear_5014_8003" x1="473.461" y1="79.4941" x2="636.398" y2="79.4941" gradientUnits="userSpaceOnUse">
<stop stop-color="#E30613"/>
<stop offset="1" stop-color="#BE1622"/>
</linearGradient>
<linearGradient id="paint3_linear_5014_8003" x1="622.183" y1="79.4941" x2="755.269" y2="79.4941" gradientUnits="userSpaceOnUse">
<stop stop-color="#E30613"/>
<stop offset="1" stop-color="#BE1622"/>
</linearGradient>
<linearGradient id="paint4_linear_5014_8003" x1="725.367" y1="79.4941" x2="860.891" y2="79.4941" gradientUnits="userSpaceOnUse">
<stop stop-color="#E30613"/>
<stop offset="1" stop-color="#BE1622"/>
</linearGradient>
<linearGradient id="paint5_linear_5014_8003" x1="59.5869" y1="79.0143" x2="213.847" y2="79.0143" gradientUnits="userSpaceOnUse">
<stop stop-color="#E30613"/>
<stop offset="1" stop-color="#BE1622"/>
</linearGradient>
</defs>
</svg>
