<svg width="1727" height="50" viewBox="0 0 1727 50" fill="none" xmlns="http://www.w3.org/2000/svg">
<g clip-path="url(#clip0_4847_15703)">
<g clip-path="url(#clip1_4847_15703)">
<path d="M67.5875 49.6332C67.362 49.6332 67.1027 49.5946 66.8095 49.5175C66.5164 49.4514 66.2289 49.3357 65.9471 49.1705C65.6765 49.0053 65.451 48.7629 65.2706 48.4435C65.0902 48.124 65 47.7164 65 47.2207H65.7103C65.7103 47.4741 65.761 47.7385 65.8625 48.0139C65.964 48.2782 66.15 48.5041 66.4206 48.6913C66.7024 48.8786 67.0914 48.9722 67.5875 48.9722C68.2076 48.9722 68.6642 48.8125 68.9573 48.493C69.2617 48.1736 69.4139 47.6448 69.4139 46.9068V40.4627H70.1749V46.8407C70.1749 47.2813 70.1242 47.6779 70.0227 48.0304C69.9213 48.3719 69.7634 48.6638 69.5492 48.9061C69.3463 49.1485 69.0813 49.3302 68.7544 49.4514C68.4387 49.5726 68.0497 49.6332 67.5875 49.6332ZM67.5706 40.8096V40.1818H70.1749V40.8096H67.5706ZM84.7879 49.6993C83.559 49.6993 82.6063 49.3357 81.9299 48.6087C81.2534 47.8707 80.9152 46.8352 80.9152 45.5023V40.1652H81.6931V45.5023C81.6931 46.0861 81.7664 46.5984 81.913 47.039C82.0595 47.4686 82.2681 47.8321 82.5387 48.1295C82.8093 48.4159 83.1362 48.6307 83.5196 48.7739C83.9029 48.9171 84.3257 48.9887 84.7879 48.9887C85.4644 48.9887 86.0281 48.8621 86.4791 48.6087C86.9413 48.3554 87.2908 47.9698 87.5276 47.4521C87.7756 46.9343 87.8996 46.2844 87.8996 45.5023V40.1652H88.6607V45.5023C88.6607 46.8572 88.3281 47.8982 87.6629 48.6252C87.009 49.3413 86.0506 49.6993 84.7879 49.6993ZM106.306 40.1652H107.067V49.4679H105.646L100.167 40.5122H100.133V49.4679H99.3722V40.1652H100.708L106.272 49.1209H106.306V40.1652ZM119.148 49.1705V40.4627H119.909V49.1705H119.148ZM117.812 49.4679V48.807H121.228V49.4679H117.812ZM117.812 40.8427V40.1652H121.228V40.8427H117.812ZM136.081 49.6993C134.592 49.6993 133.459 49.2641 132.681 48.3939C131.903 47.5127 131.515 46.3285 131.515 44.8414C131.515 43.861 131.684 43.0128 132.022 42.2968C132.36 41.5697 132.867 41.0079 133.544 40.6114C134.22 40.2038 135.066 40 136.081 40C137.569 40 138.696 40.4406 139.463 41.3219C140.241 42.1921 140.63 43.3653 140.63 44.8414C140.63 45.7997 140.455 46.6479 140.106 47.386C139.767 48.113 139.26 48.6803 138.584 49.0879C137.918 49.4955 137.084 49.6993 136.081 49.6993ZM136.081 48.9887C136.926 48.9887 137.625 48.818 138.178 48.4765C138.741 48.124 139.164 47.6393 139.446 47.0225C139.739 46.3946 139.886 45.6675 139.886 44.8414C139.886 44.0042 139.745 43.2771 139.463 42.6603C139.192 42.0434 138.77 41.5642 138.195 41.2227C137.631 40.8813 136.926 40.7105 136.081 40.7105C134.829 40.7105 133.882 41.074 133.239 41.8011C132.597 42.5281 132.276 43.5415 132.276 44.8414C132.276 45.6565 132.411 46.378 132.681 47.0059C132.952 47.6228 133.369 48.1075 133.933 48.46C134.508 48.8125 135.224 48.9887 136.081 48.9887ZM151.176 49.4679V40.1652H154.135C154.936 40.1652 155.612 40.2423 156.164 40.3966C156.717 40.5508 157.134 40.8152 157.416 41.1897C157.709 41.5642 157.856 42.093 157.856 42.7759C157.856 43.1945 157.777 43.5856 157.619 43.9491C157.461 44.3126 157.213 44.61 156.875 44.8414C156.548 45.0617 156.119 45.1718 155.589 45.1718C156.029 45.1718 156.373 45.2545 156.621 45.4197C156.869 45.5739 157.044 45.7777 157.145 46.0311C157.258 46.2844 157.326 46.5598 157.348 46.8572C157.382 47.1547 157.399 47.4466 157.399 47.733C157.399 48.0194 157.416 48.2727 157.45 48.493C157.484 48.7134 157.563 48.8676 157.687 48.9557C157.811 49.0438 158.008 49.0438 158.278 48.9557V49.501C158.222 49.545 158.109 49.5836 157.94 49.6166C157.782 49.6497 157.608 49.6387 157.416 49.5836C157.224 49.5285 157.061 49.4018 156.926 49.2036C156.79 49.0053 156.723 48.7023 156.723 48.2948C156.723 47.6559 156.694 47.1436 156.638 46.7581C156.593 46.3725 156.486 46.0806 156.317 45.8823C156.159 45.6841 155.905 45.5464 155.556 45.4693C155.206 45.3921 154.738 45.3536 154.152 45.3536C153.577 45.3536 152.844 45.3591 151.954 45.3701V49.4679H151.176ZM151.954 44.7587H154.44C155.06 44.7587 155.567 44.7037 155.962 44.5935C156.367 44.4723 156.666 44.2741 156.858 43.9987C157.061 43.7123 157.162 43.3157 157.162 42.809C157.162 42.2252 157.038 41.7955 156.79 41.5202C156.542 41.2338 156.187 41.0465 155.725 40.9584C155.263 40.8702 154.699 40.8262 154.034 40.8262H151.954V44.7587Z" fill="white"/>
<path d="M41.3784 36.065C35.5284 36.065 31.0581 34.4513 27.9661 31.2237C24.8741 27.9961 23.3281 23.6422 23.3281 18.1619C23.3281 14.5488 23.9961 11.4134 25.3336 8.75317C26.671 6.09428 28.6764 4.02472 31.3498 2.54174C34.0233 1.06014 37.3661 0.319336 41.3784 0.319336C47.2284 0.319336 51.6775 1.93312 54.7286 5.1607C57.7784 8.38828 59.3046 12.7229 59.3046 18.1619C59.3046 21.6938 58.6253 24.8098 57.2682 27.5087C55.9096 30.2089 53.9042 32.3101 51.2519 33.811C48.5982 35.3118 45.3075 36.0637 41.3798 36.0637L41.3784 36.065ZM41.253 27.8446C43.3838 27.8446 45.1483 27.4095 46.5491 26.5351C47.9485 25.6622 48.9928 24.4862 49.6834 23.0033C50.3725 21.5217 50.7178 19.9079 50.7178 18.1619C50.7178 16.4159 50.3725 14.7319 49.6834 13.2296C48.9942 11.7288 47.9485 10.5308 46.5491 9.63718C45.1483 8.74491 43.3838 8.2974 41.253 8.2974C38.2018 8.2974 35.8723 9.23098 34.2643 11.0981C32.6548 12.9653 31.8515 15.3212 31.8515 18.1619C31.8515 19.8666 32.1968 21.4611 32.886 22.9427C33.5751 24.4257 34.6095 25.6126 35.9878 26.5049C37.3661 27.3985 39.1221 27.8446 41.253 27.8446Z" fill="url(#paint0_linear_4847_15703)"/>
<path d="M72.6426 35.5034C69.2998 35.5034 66.2501 34.8548 63.4921 33.555C60.7341 32.2565 58.5412 30.3081 56.9107 27.7084C55.2815 25.1115 54.4867 21.8839 54.5289 18.0257C54.5698 14.2501 55.3957 11.0129 57.0051 8.31267C58.6131 5.61384 60.7975 3.55392 63.5541 2.13152C66.3121 0.710508 69.4041 0 72.8301 0C76.2561 0 79.3692 0.619629 81.7932 1.85751C84.2158 3.09677 86.107 4.7202 87.4656 6.72917C88.8227 8.73814 89.6909 10.9 90.0672 13.2146H81.042C80.832 11.6724 80.2373 10.5351 79.2564 9.80391C78.2742 9.07274 77.1876 8.59632 75.9967 8.37325C74.8059 8.15019 73.7503 8.03865 72.8315 8.03865C69.5718 8.03865 67.1492 8.86069 65.5609 10.5048C63.9726 12.1489 63.1792 14.4318 63.1792 17.3551C63.1792 20.562 63.9515 23.0598 65.4975 24.8457C67.0435 26.633 69.4661 27.5253 72.7681 27.5253C73.7292 27.5253 74.8144 27.3945 76.0278 27.1287C77.2397 26.8657 78.3362 26.3273 79.3185 25.5149C80.2993 24.7039 80.8955 23.4853 81.104 21.8619H90.1926C89.774 24.2578 88.8763 26.5008 87.498 28.5911C86.1197 30.6826 84.2073 32.357 81.7636 33.6142C79.3199 34.8727 76.28 35.502 72.644 35.502L72.6426 35.5034Z" fill="url(#paint1_linear_4847_15703)"/>
<path d="M86.4883 35.3619V1.07715H95.2005V35.3605H86.4883V35.3619ZM95.0751 25.0706V15.7541L107.86 1.07715H119.267V1.8689L95.0737 25.0692L95.0751 25.0706ZM110.055 35.3619L98.3348 17.9462L104.665 11.9179L120.021 34.5715V35.3633H110.056L110.055 35.3619Z" fill="url(#paint2_linear_4847_15703)"/>
<path d="M116.619 35.3619V1.07715H143.318V8.32405H125.204V14.5961H138.68V21.4161H125.204V28.6011H144.007V35.3605H116.617L116.619 35.3619Z" fill="url(#paint3_linear_4847_15703)"/>
<path d="M139.793 8.32405V1.07715H167.683V8.32405H139.793ZM158.094 2.1732V35.3605H149.32V2.1732H158.094Z" fill="url(#paint4_linear_4847_15703)"/>
<path d="M0.00141067 35.6195V0.0927734H14.6877C17.8515 0.0927734 20.5658 0.450781 22.832 1.16542C25.0981 1.88144 26.8499 3.01742 28.0901 4.57338C29.3303 6.13072 29.9503 8.21267 29.9503 10.8206C29.9503 12.9659 29.629 14.7862 28.9878 16.2789C28.3466 17.7729 27.4263 18.9199 26.2298 19.7185C25.0319 20.5185 23.6212 20.9178 21.9977 20.9178C23.0237 20.9178 23.8255 21.1175 24.402 21.5168C24.9798 21.9175 25.4279 22.4421 25.7492 23.0948C26.0706 23.7475 26.3158 24.4304 26.4863 25.1451C26.6568 25.8611 26.8273 26.5551 26.9993 27.227C27.1698 27.9003 27.4164 28.469 27.7363 28.9303C28.0577 29.3943 28.5382 29.667 29.1795 29.751C29.8207 29.8363 30.6761 29.667 31.7444 29.2456V34.0416C30.5465 35.0509 29.2217 35.7132 27.7688 36.0299C26.3144 36.3452 24.9361 36.2612 23.6325 35.7779C22.3275 35.2946 21.2479 34.3693 20.3939 33.002C19.5385 31.636 19.1115 29.7744 19.1115 27.417C19.1115 26.6184 19.0678 25.8707 18.9832 25.1767C18.8972 24.4827 18.683 23.8728 18.342 23.3468C17.9995 22.8208 17.4654 22.3898 16.7382 22.0538C16.011 21.7178 15.0273 21.5072 13.7885 21.4232C12.5484 21.3392 10.9446 21.3818 8.97862 21.5498V35.6209H0L0.00141067 35.6195ZM8.98003 15.3632H13.4686C15.4346 15.3632 17.0384 15.3425 18.2786 15.2998C19.5187 15.2585 20.4475 14.9749 21.069 14.4475C21.6876 13.9215 21.9991 12.9645 21.9991 11.5766C21.9991 10.0206 21.6242 8.93695 20.8773 8.32696C20.129 7.71697 19.0382 7.36997 17.6063 7.28598C16.1731 7.20198 14.41 7.1593 12.3158 7.1593H8.98144V15.3632H8.98003Z" fill="url(#paint5_linear_4847_15703)"/>
<path d="M265.271 49.6332C265.046 49.6332 264.786 49.5946 264.493 49.5175C264.2 49.4514 263.913 49.3357 263.631 49.1705C263.36 49.0053 263.135 48.7629 262.954 48.4435C262.774 48.124 262.684 47.7164 262.684 47.2207H263.394C263.394 47.4741 263.445 47.7385 263.546 48.0139C263.648 48.2782 263.834 48.5041 264.104 48.6913C264.386 48.8786 264.775 48.9722 265.271 48.9722C265.891 48.9722 266.348 48.8125 266.641 48.493C266.945 48.1736 267.098 47.6448 267.098 46.9068V40.4627H267.859V46.8407C267.859 47.2813 267.808 47.6779 267.706 48.0304C267.605 48.3719 267.447 48.6638 267.233 48.9061C267.03 49.1485 266.765 49.3302 266.438 49.4514C266.122 49.5726 265.733 49.6332 265.271 49.6332ZM265.254 40.8096V40.1818H267.859V40.8096H265.254ZM282.472 49.6993C281.243 49.6993 280.29 49.3357 279.613 48.6087C278.937 47.8707 278.599 46.8352 278.599 45.5023V40.1652H279.377V45.5023C279.377 46.0861 279.45 46.5984 279.597 47.039C279.743 47.4686 279.952 47.8321 280.222 48.1295C280.493 48.4159 280.82 48.6307 281.203 48.7739C281.586 48.9171 282.009 48.9887 282.472 48.9887C283.148 48.9887 283.712 48.8621 284.163 48.6087C284.625 48.3554 284.974 47.9698 285.211 47.4521C285.459 46.9343 285.583 46.2844 285.583 45.5023V40.1652H286.344V45.5023C286.344 46.8572 286.012 47.8982 285.346 48.6252C284.693 49.3413 283.734 49.6993 282.472 49.6993ZM303.989 40.1652H304.75V49.4679H303.33L297.851 40.5122H297.817V49.4679H297.056V40.1652H298.392L303.956 49.1209H303.989V40.1652ZM316.831 49.1705V40.4627H317.592V49.1705H316.831ZM315.495 49.4679V48.807H318.912V49.4679H315.495ZM315.495 40.8427V40.1652H318.912V40.8427H315.495ZM333.764 49.6993C332.276 49.6993 331.143 49.2641 330.365 48.3939C329.587 47.5127 329.198 46.3285 329.198 44.8414C329.198 43.861 329.367 43.0128 329.705 42.2968C330.044 41.5697 330.551 41.0079 331.227 40.6114C331.904 40.2038 332.75 40 333.764 40C335.252 40 336.38 40.4406 337.147 41.3219C337.924 42.1921 338.313 43.3653 338.313 44.8414C338.313 45.7997 338.139 46.6479 337.789 47.386C337.451 48.113 336.944 48.6803 336.267 49.0879C335.602 49.4955 334.768 49.6993 333.764 49.6993ZM333.764 48.9887C334.61 48.9887 335.309 48.818 335.861 48.4765C336.425 48.124 336.848 47.6393 337.13 47.0225C337.423 46.3946 337.569 45.6675 337.569 44.8414C337.569 44.0042 337.428 43.2771 337.147 42.6603C336.876 42.0434 336.453 41.5642 335.878 41.2227C335.314 40.8813 334.61 40.7105 333.764 40.7105C332.513 40.7105 331.566 41.074 330.923 41.8011C330.28 42.5281 329.959 43.5415 329.959 44.8414C329.959 45.6565 330.094 46.378 330.365 47.0059C330.636 47.6228 331.053 48.1075 331.616 48.46C332.191 48.8125 332.907 48.9887 333.764 48.9887ZM348.859 49.4679V40.1652H351.819C352.619 40.1652 353.296 40.2423 353.848 40.3966C354.401 40.5508 354.818 40.8152 355.1 41.1897C355.393 41.5642 355.539 42.093 355.539 42.7759C355.539 43.1945 355.46 43.5856 355.302 43.9491C355.145 44.3126 354.897 44.61 354.558 44.8414C354.231 45.0617 353.803 45.1718 353.273 45.1718C353.713 45.1718 354.057 45.2545 354.305 45.4197C354.553 45.5739 354.727 45.7777 354.829 46.0311C354.942 46.2844 355.009 46.5598 355.032 46.8572C355.066 47.1547 355.083 47.4466 355.083 47.733C355.083 48.0194 355.1 48.2727 355.133 48.493C355.167 48.7134 355.246 48.8676 355.37 48.9557C355.494 49.0438 355.691 49.0438 355.962 48.9557V49.501C355.906 49.545 355.793 49.5836 355.624 49.6166C355.466 49.6497 355.291 49.6387 355.1 49.5836C354.908 49.5285 354.744 49.4018 354.609 49.2036C354.474 49.0053 354.406 48.7023 354.406 48.2948C354.406 47.6559 354.378 47.1436 354.322 46.7581C354.277 46.3725 354.169 46.0806 354 45.8823C353.842 45.6841 353.589 45.5464 353.239 45.4693C352.89 45.3921 352.422 45.3536 351.836 45.3536C351.261 45.3536 350.528 45.3591 349.637 45.3701V49.4679H348.859ZM349.637 44.7587H352.123C352.743 44.7587 353.251 44.7037 353.645 44.5935C354.051 44.4723 354.35 44.2741 354.541 43.9987C354.744 43.7123 354.846 43.3157 354.846 42.809C354.846 42.2252 354.722 41.7955 354.474 41.5202C354.226 41.2338 353.871 41.0465 353.408 40.9584C352.946 40.8702 352.382 40.8262 351.717 40.8262H349.637V44.7587Z" fill="white"/>
<path d="M239.062 36.065C233.212 36.065 228.742 34.4513 225.65 31.2237C222.558 27.9961 221.012 23.6422 221.012 18.1619C221.012 14.5488 221.68 11.4134 223.017 8.75317C224.355 6.09428 226.36 4.02472 229.033 2.54174C231.707 1.06014 235.05 0.319336 239.062 0.319336C244.912 0.319336 249.361 1.93312 252.412 5.1607C255.462 8.38828 256.988 12.7229 256.988 18.1619C256.988 21.6938 256.309 24.8098 254.952 27.5087C253.593 30.2089 251.588 32.3101 248.936 33.811C246.282 35.3118 242.991 36.0637 239.063 36.0637L239.062 36.065ZM238.937 27.8446C241.067 27.8446 242.832 27.4095 244.233 26.5351C245.632 25.6622 246.676 24.4862 247.367 23.0033C248.056 21.5217 248.401 19.9079 248.401 18.1619C248.401 16.4159 248.056 14.7319 247.367 13.2296C246.678 11.7288 245.632 10.5308 244.233 9.63718C242.832 8.74491 241.067 8.2974 238.937 8.2974C235.885 8.2974 233.556 9.23098 231.948 11.0981C230.338 12.9653 229.535 15.3212 229.535 18.1619C229.535 19.8666 229.88 21.4611 230.57 22.9427C231.259 24.4257 232.293 25.6126 233.671 26.5049C235.05 27.3985 236.806 27.8446 238.937 27.8446Z" fill="url(#paint6_linear_4847_15703)"/>
<path d="M270.326 35.5034C266.983 35.5034 263.934 34.8548 261.176 33.555C258.418 32.2565 256.225 30.3081 254.594 27.7084C252.965 25.1115 252.17 21.8839 252.213 18.0257C252.253 14.2501 253.079 11.0129 254.689 8.31267C256.297 5.61384 258.481 3.55392 261.238 2.13152C263.996 0.710508 267.088 0 270.514 0C273.94 0 277.053 0.619629 279.477 1.85751C281.899 3.09677 283.791 4.7202 285.149 6.72917C286.506 8.73814 287.374 10.9 287.751 13.2146H278.726C278.516 11.6724 277.921 10.5351 276.94 9.80391C275.958 9.07274 274.871 8.59632 273.68 8.37325C272.489 8.15019 271.434 8.03865 270.515 8.03865C267.255 8.03865 264.833 8.86069 263.245 10.5048C261.656 12.1489 260.863 14.4318 260.863 17.3551C260.863 20.562 261.635 23.0598 263.181 24.8457C264.727 26.633 267.15 27.5253 270.452 27.5253C271.413 27.5253 272.498 27.3945 273.711 27.1287C274.923 26.8657 276.02 26.3273 277.002 25.5149C277.983 24.7039 278.579 23.4853 278.788 21.8619H287.876C287.458 24.2578 286.56 26.5008 285.182 28.5911C283.803 30.6826 281.891 32.357 279.447 33.6142C277.003 34.8727 273.964 35.502 270.328 35.502L270.326 35.5034Z" fill="url(#paint7_linear_4847_15703)"/>
<path d="M284.172 35.3619V1.07715H292.884V35.3605H284.172V35.3619ZM292.759 25.0706V15.7541L305.544 1.07715H316.951V1.8689L292.757 25.0692L292.759 25.0706ZM307.738 35.3619L296.018 17.9462L302.349 11.9179L317.705 34.5715V35.3633H307.74L307.738 35.3619Z" fill="url(#paint8_linear_4847_15703)"/>
<path d="M314.302 35.3619V1.07715H341.001V8.32405H322.888V14.5961H336.363V21.4161H322.888V28.6011H341.69V35.3605H314.301L314.302 35.3619Z" fill="url(#paint9_linear_4847_15703)"/>
<path d="M337.477 8.32405V1.07715H365.367V8.32405H337.477ZM355.778 2.1732V35.3605H347.003V2.1732H355.778Z" fill="url(#paint10_linear_4847_15703)"/>
<path d="M197.685 35.6195V0.0927734H212.371C215.535 0.0927734 218.249 0.450781 220.516 1.16542C222.782 1.88144 224.533 3.01742 225.774 4.57338C227.014 6.13072 227.634 8.21267 227.634 10.8206C227.634 12.9659 227.313 14.7862 226.671 16.2789C226.03 17.7729 225.11 18.9199 223.913 19.7185C222.715 20.5185 221.305 20.9178 219.681 20.9178C220.707 20.9178 221.509 21.1175 222.086 21.5168C222.663 21.9175 223.112 22.4421 223.433 23.0948C223.754 23.7475 223.999 24.4304 224.17 25.1451C224.34 25.8611 224.511 26.5551 224.683 27.227C224.853 27.9003 225.1 28.469 225.42 28.9303C225.741 29.3943 226.222 29.667 226.863 29.751C227.504 29.8363 228.36 29.667 229.428 29.2456V34.0416C228.23 35.0509 226.905 35.7132 225.452 36.0299C223.998 36.3452 222.62 36.2612 221.316 35.7779C220.011 35.2946 218.932 34.3693 218.078 33.002C217.222 31.636 216.795 29.7744 216.795 27.417C216.795 26.6184 216.751 25.8707 216.667 25.1767C216.581 24.4827 216.367 23.8728 216.026 23.3468C215.683 22.8208 215.149 22.3898 214.422 22.0538C213.695 21.7178 212.711 21.5072 211.472 21.4232C210.232 21.3392 208.628 21.3818 206.662 21.5498V35.6209H197.684L197.685 35.6195ZM206.664 15.3632H211.152C213.118 15.3632 214.722 15.3425 215.962 15.2998C217.202 15.2585 218.131 14.9749 218.753 14.4475C219.371 13.9215 219.683 12.9645 219.683 11.5766C219.683 10.0206 219.308 8.93695 218.561 8.32696C217.813 7.71697 216.722 7.36997 215.29 7.28598C213.857 7.20198 212.094 7.1593 209.999 7.1593H206.665V15.3632H206.664Z" fill="url(#paint11_linear_4847_15703)"/>
<path d="M462.953 49.6332C462.727 49.6332 462.468 49.5946 462.175 49.5175C461.882 49.4514 461.594 49.3357 461.312 49.1705C461.042 49.0053 460.816 48.7629 460.636 48.4435C460.455 48.124 460.365 47.7164 460.365 47.2207H461.076C461.076 47.4741 461.126 47.7385 461.228 48.0139C461.329 48.2782 461.515 48.5041 461.786 48.6913C462.068 48.8786 462.457 48.9722 462.953 48.9722C463.573 48.9722 464.029 48.8125 464.323 48.493C464.627 48.1736 464.779 47.6448 464.779 46.9068V40.4627H465.54V46.8407C465.54 47.2813 465.489 47.6779 465.388 48.0304C465.286 48.3719 465.129 48.6638 464.914 48.9061C464.712 49.1485 464.447 49.3302 464.12 49.4514C463.804 49.5726 463.415 49.6332 462.953 49.6332ZM462.936 40.8096V40.1818H465.54V40.8096H462.936ZM480.153 49.6993C478.924 49.6993 477.972 49.3357 477.295 48.6087C476.619 47.8707 476.28 46.8352 476.28 45.5023V40.1652H477.058V45.5023C477.058 46.0861 477.132 46.5984 477.278 47.039C477.425 47.4686 477.633 47.8321 477.904 48.1295C478.174 48.4159 478.501 48.6307 478.885 48.7739C479.268 48.9171 479.691 48.9887 480.153 48.9887C480.83 48.9887 481.393 48.8621 481.844 48.6087C482.307 48.3554 482.656 47.9698 482.893 47.4521C483.141 46.9343 483.265 46.2844 483.265 45.5023V40.1652H484.026V45.5023C484.026 46.8572 483.693 47.8982 483.028 48.6252C482.374 49.3413 481.416 49.6993 480.153 49.6993ZM501.671 40.1652H502.432V49.4679H501.012L495.532 40.5122H495.498V49.4679H494.737V40.1652H496.073L501.637 49.1209H501.671V40.1652ZM514.513 49.1705V40.4627H515.274V49.1705H514.513ZM513.177 49.4679V48.807H516.593V49.4679H513.177ZM513.177 40.8427V40.1652H516.593V40.8427H513.177ZM531.446 49.6993C529.958 49.6993 528.825 49.2641 528.047 48.3939C527.269 47.5127 526.88 46.3285 526.88 44.8414C526.88 43.861 527.049 43.0128 527.387 42.2968C527.725 41.5697 528.233 41.0079 528.909 40.6114C529.586 40.2038 530.431 40 531.446 40C532.934 40 534.062 40.4406 534.828 41.3219C535.606 42.1921 535.995 43.3653 535.995 44.8414C535.995 45.7997 535.82 46.6479 535.471 47.386C535.133 48.113 534.625 48.6803 533.949 49.0879C533.284 49.4955 532.449 49.6993 531.446 49.6993ZM531.446 48.9887C532.291 48.9887 532.99 48.818 533.543 48.4765C534.107 48.124 534.529 47.6393 534.811 47.0225C535.104 46.3946 535.251 45.6675 535.251 44.8414C535.251 44.0042 535.11 43.2771 534.828 42.6603C534.558 42.0434 534.135 41.5642 533.56 41.2227C532.996 40.8813 532.291 40.7105 531.446 40.7105C530.194 40.7105 529.247 41.074 528.605 41.8011C527.962 42.5281 527.641 43.5415 527.641 44.8414C527.641 45.6565 527.776 46.378 528.047 47.0059C528.317 47.6228 528.734 48.1075 529.298 48.46C529.873 48.8125 530.589 48.9887 531.446 48.9887ZM546.541 49.4679V40.1652H549.5C550.301 40.1652 550.977 40.2423 551.53 40.3966C552.082 40.5508 552.499 40.8152 552.781 41.1897C553.074 41.5642 553.221 42.093 553.221 42.7759C553.221 43.1945 553.142 43.5856 552.984 43.9491C552.826 44.3126 552.578 44.61 552.24 44.8414C551.913 45.0617 551.485 45.1718 550.955 45.1718C551.394 45.1718 551.738 45.2545 551.986 45.4197C552.234 45.5739 552.409 45.7777 552.511 46.0311C552.623 46.2844 552.691 46.5598 552.714 46.8572C552.747 47.1547 552.764 47.4466 552.764 47.733C552.764 48.0194 552.781 48.2727 552.815 48.493C552.849 48.7134 552.928 48.8676 553.052 48.9557C553.176 49.0438 553.373 49.0438 553.644 48.9557V49.501C553.587 49.545 553.475 49.5836 553.305 49.6166C553.148 49.6497 552.973 49.6387 552.781 49.5836C552.59 49.5285 552.426 49.4018 552.291 49.2036C552.155 49.0053 552.088 48.7023 552.088 48.2948C552.088 47.6559 552.06 47.1436 552.003 46.7581C551.958 46.3725 551.851 46.0806 551.682 45.8823C551.524 45.6841 551.27 45.5464 550.921 45.4693C550.571 45.3921 550.104 45.3536 549.517 45.3536C548.942 45.3536 548.209 45.3591 547.319 45.3701V49.4679H546.541ZM547.319 44.7587H549.805C550.425 44.7587 550.932 44.7037 551.327 44.5935C551.733 44.4723 552.031 44.2741 552.223 43.9987C552.426 43.7123 552.528 43.3157 552.528 42.809C552.528 42.2252 552.403 41.7955 552.155 41.5202C551.907 41.2338 551.552 41.0465 551.09 40.9584C550.628 40.8702 550.064 40.8262 549.399 40.8262H547.319V44.7587Z" fill="white"/>
<path d="M436.744 36.065C430.894 36.065 426.423 34.4513 423.331 31.2237C420.239 27.9961 418.693 23.6422 418.693 18.1619C418.693 14.5488 419.361 11.4134 420.699 8.75317C422.036 6.09428 424.042 4.02472 426.715 2.54174C429.389 1.06014 432.731 0.319336 436.744 0.319336C442.594 0.319336 447.043 1.93312 450.094 5.1607C453.144 8.38828 454.67 12.7229 454.67 18.1619C454.67 21.6938 453.991 24.8098 452.633 27.5087C451.275 30.2089 449.269 32.3101 446.617 33.811C443.963 35.3118 440.673 36.0637 436.745 36.0637L436.744 36.065ZM436.618 27.8446C438.749 27.8446 440.513 27.4095 441.914 26.5351C443.314 25.6622 444.358 24.4862 445.049 23.0033C445.738 21.5217 446.083 19.9079 446.083 18.1619C446.083 16.4159 445.738 14.7319 445.049 13.2296C444.359 11.7288 443.314 10.5308 441.914 9.63718C440.513 8.74491 438.749 8.2974 436.618 8.2974C433.567 8.2974 431.237 9.23098 429.629 11.0981C428.02 12.9653 427.217 15.3212 427.217 18.1619C427.217 19.8666 427.562 21.4611 428.251 22.9427C428.94 24.4257 429.975 25.6126 431.353 26.5049C432.731 27.3985 434.487 27.8446 436.618 27.8446Z" fill="url(#paint12_linear_4847_15703)"/>
<path d="M468.008 35.5034C464.665 35.5034 461.615 34.8548 458.857 33.555C456.099 32.2565 453.906 30.3081 452.276 27.7084C450.647 25.1115 449.852 21.8839 449.894 18.0257C449.935 14.2501 450.761 11.0129 452.37 8.31267C453.978 5.61384 456.163 3.55392 458.919 2.13152C461.677 0.710508 464.769 0 468.195 0C471.621 0 474.734 0.619629 477.158 1.85751C479.581 3.09677 481.472 4.7202 482.831 6.72917C484.188 8.73814 485.056 10.9 485.432 13.2146H476.407C476.197 11.6724 475.603 10.5351 474.622 9.80391C473.639 9.07274 472.553 8.59632 471.362 8.37325C470.171 8.15019 469.116 8.03865 468.197 8.03865C464.937 8.03865 462.514 8.86069 460.926 10.5048C459.338 12.1489 458.544 14.4318 458.544 17.3551C458.544 20.562 459.317 23.0598 460.863 24.8457C462.409 26.633 464.831 27.5253 468.133 27.5253C469.094 27.5253 470.18 27.3945 471.393 27.1287C472.605 26.8657 473.701 26.3273 474.684 25.5149C475.665 24.7039 476.261 23.4853 476.469 21.8619H485.558C485.139 24.2578 484.242 26.5008 482.863 28.5911C481.485 30.6826 479.573 32.357 477.129 33.6142C474.685 34.8727 471.645 35.502 468.009 35.502L468.008 35.5034Z" fill="url(#paint13_linear_4847_15703)"/>
<path d="M481.854 35.3619V1.07715H490.566V35.3605H481.854V35.3619ZM490.44 25.0706V15.7541L503.225 1.07715H514.632V1.8689L490.439 25.0692L490.44 25.0706ZM505.42 35.3619L493.7 17.9462L500.031 11.9179L515.386 34.5715V35.3633H505.421L505.42 35.3619Z" fill="url(#paint14_linear_4847_15703)"/>
<path d="M511.984 35.3619V1.07715H538.683V8.32405H520.569V14.5961H534.045V21.4161H520.569V28.6011H539.372V35.3605H511.982L511.984 35.3619Z" fill="url(#paint15_linear_4847_15703)"/>
<path d="M535.158 8.32405V1.07715H563.048V8.32405H535.158ZM553.459 2.1732V35.3605H544.685V2.1732H553.459Z" fill="url(#paint16_linear_4847_15703)"/>
<path d="M395.367 35.6195V0.0927734H410.053C413.217 0.0927734 415.931 0.450781 418.197 1.16542C420.463 1.88144 422.215 3.01742 423.455 4.57338C424.695 6.13072 425.316 8.21267 425.316 10.8206C425.316 12.9659 424.994 14.7862 424.353 16.2789C423.712 17.7729 422.792 18.9199 421.595 19.7185C420.397 20.5185 418.986 20.9178 417.363 20.9178C418.389 20.9178 419.191 21.1175 419.767 21.5168C420.345 21.9175 420.793 22.4421 421.114 23.0948C421.436 23.7475 421.681 24.4304 421.852 25.1451C422.022 25.8611 422.193 26.5551 422.365 27.227C422.535 27.9003 422.782 28.469 423.102 28.9303C423.423 29.3943 423.903 29.667 424.545 29.751C425.186 29.8363 426.041 29.667 427.11 29.2456V34.0416C425.912 35.0509 424.587 35.7132 423.134 36.0299C421.68 36.3452 420.301 36.2612 418.998 35.7779C417.693 35.2946 416.613 34.3693 415.759 33.002C414.904 31.636 414.477 29.7744 414.477 27.417C414.477 26.6184 414.433 25.8707 414.348 25.1767C414.262 24.4827 414.048 23.8728 413.707 23.3468C413.365 22.8208 412.831 22.3898 412.103 22.0538C411.376 21.7178 410.393 21.5072 409.154 21.4232C407.914 21.3392 406.31 21.3818 404.344 21.5498V35.6209H395.365L395.367 35.6195ZM404.345 15.3632H408.834C410.8 15.3632 412.404 15.3425 413.644 15.2998C414.884 15.2585 415.813 14.9749 416.434 14.4475C417.053 13.9215 417.364 12.9645 417.364 11.5766C417.364 10.0206 416.989 8.93695 416.243 8.32696C415.494 7.71697 414.403 7.36997 412.972 7.28598C411.538 7.20198 409.775 7.1593 407.681 7.1593H404.347V15.3632H404.345Z" fill="url(#paint17_linear_4847_15703)"/>
<path d="M660.636 49.6332C660.411 49.6332 660.152 49.5946 659.858 49.5175C659.565 49.4514 659.278 49.3357 658.996 49.1705C658.725 49.0053 658.5 48.7629 658.319 48.4435C658.139 48.124 658.049 47.7164 658.049 47.2207H658.759C658.759 47.4741 658.81 47.7385 658.911 48.0139C659.013 48.2782 659.199 48.5041 659.469 48.6913C659.751 48.8786 660.14 48.9722 660.636 48.9722C661.256 48.9722 661.713 48.8125 662.006 48.493C662.311 48.1736 662.463 47.6448 662.463 46.9068V40.4627H663.224V46.8407C663.224 47.2813 663.173 47.6779 663.072 48.0304C662.97 48.3719 662.812 48.6638 662.598 48.9061C662.395 49.1485 662.13 49.3302 661.803 49.4514C661.488 49.5726 661.099 49.6332 660.636 49.6332ZM660.619 40.8096V40.1818H663.224V40.8096H660.619ZM677.837 49.6993C676.608 49.6993 675.655 49.3357 674.979 48.6087C674.302 47.8707 673.964 46.8352 673.964 45.5023V40.1652H674.742V45.5023C674.742 46.0861 674.815 46.5984 674.962 47.039C675.108 47.4686 675.317 47.8321 675.588 48.1295C675.858 48.4159 676.185 48.6307 676.568 48.7739C676.952 48.9171 677.374 48.9887 677.837 48.9887C678.513 48.9887 679.077 48.8621 679.528 48.6087C679.99 48.3554 680.34 47.9698 680.576 47.4521C680.824 46.9343 680.948 46.2844 680.948 45.5023V40.1652H681.709V45.5023C681.709 46.8572 681.377 47.8982 680.712 48.6252C680.058 49.3413 679.099 49.6993 677.837 49.6993ZM699.355 40.1652H700.116V49.4679H698.695L693.216 40.5122H693.182V49.4679H692.421V40.1652H693.757L699.321 49.1209H699.355V40.1652ZM712.196 49.1705V40.4627H712.957V49.1705H712.196ZM710.86 49.4679V48.807H714.277V49.4679H710.86ZM710.86 40.8427V40.1652H714.277V40.8427H710.86ZM729.129 49.6993C727.641 49.6993 726.508 49.2641 725.73 48.3939C724.952 47.5127 724.563 46.3285 724.563 44.8414C724.563 43.861 724.732 43.0128 725.071 42.2968C725.409 41.5697 725.916 41.0079 726.593 40.6114C727.269 40.2038 728.115 40 729.129 40C730.618 40 731.745 40.4406 732.512 41.3219C733.29 42.1921 733.679 43.3653 733.679 44.8414C733.679 45.7997 733.504 46.6479 733.154 47.386C732.816 48.113 732.309 48.6803 731.632 49.0879C730.967 49.4955 730.133 49.6993 729.129 49.6993ZM729.129 48.9887C729.975 48.9887 730.674 48.818 731.226 48.4765C731.79 48.124 732.213 47.6393 732.495 47.0225C732.788 46.3946 732.935 45.6675 732.935 44.8414C732.935 44.0042 732.794 43.2771 732.512 42.6603C732.241 42.0434 731.818 41.5642 731.243 41.2227C730.68 40.8813 729.975 40.7105 729.129 40.7105C727.878 40.7105 726.931 41.074 726.288 41.8011C725.646 42.5281 725.324 43.5415 725.324 44.8414C725.324 45.6565 725.46 46.378 725.73 47.0059C726.001 47.6228 726.418 48.1075 726.982 48.46C727.557 48.8125 728.273 48.9887 729.129 48.9887ZM744.224 49.4679V40.1652H747.184C747.984 40.1652 748.661 40.2423 749.213 40.3966C749.766 40.5508 750.183 40.8152 750.465 41.1897C750.758 41.5642 750.904 42.093 750.904 42.7759C750.904 43.1945 750.826 43.5856 750.668 43.9491C750.51 44.3126 750.262 44.61 749.924 44.8414C749.597 45.0617 749.168 45.1718 748.638 45.1718C749.078 45.1718 749.422 45.2545 749.67 45.4197C749.918 45.5739 750.093 45.7777 750.194 46.0311C750.307 46.2844 750.375 46.5598 750.397 46.8572C750.431 47.1547 750.448 47.4466 750.448 47.733C750.448 48.0194 750.465 48.2727 750.499 48.493C750.532 48.7134 750.611 48.8676 750.735 48.9557C750.859 49.0438 751.057 49.0438 751.327 48.9557V49.501C751.271 49.545 751.158 49.5836 750.989 49.6166C750.831 49.6497 750.656 49.6387 750.465 49.5836C750.273 49.5285 750.11 49.4018 749.974 49.2036C749.839 49.0053 749.771 48.7023 749.771 48.2948C749.771 47.6559 749.743 47.1436 749.687 46.7581C749.642 46.3725 749.535 46.0806 749.366 45.8823C749.208 45.6841 748.954 45.5464 748.604 45.4693C748.255 45.3921 747.787 45.3536 747.201 45.3536C746.626 45.3536 745.893 45.3591 745.002 45.3701V49.4679H744.224ZM745.002 44.7587H747.488C748.108 44.7587 748.616 44.7037 749.01 44.5935C749.416 44.4723 749.715 44.2741 749.907 43.9987C750.11 43.7123 750.211 43.3157 750.211 42.809C750.211 42.2252 750.087 41.7955 749.839 41.5202C749.591 41.2338 749.236 41.0465 748.774 40.9584C748.311 40.8702 747.748 40.8262 747.082 40.8262H745.002V44.7587Z" fill="white"/>
<path d="M634.427 36.065C628.577 36.065 624.107 34.4513 621.015 31.2237C617.923 27.9961 616.377 23.6422 616.377 18.1619C616.377 14.5488 617.045 11.4134 618.382 8.75317C619.72 6.09428 621.725 4.02472 624.399 2.54174C627.072 1.06014 630.415 0.319336 634.427 0.319336C640.277 0.319336 644.726 1.93312 647.777 5.1607C650.827 8.38828 652.353 12.7229 652.353 18.1619C652.353 21.6938 651.674 24.8098 650.317 27.5087C648.958 30.2089 646.953 32.3101 644.301 33.811C641.647 35.3118 638.356 36.0637 634.429 36.0637L634.427 36.065ZM634.302 27.8446C636.433 27.8446 638.197 27.4095 639.598 26.5351C640.997 25.6622 642.042 24.4862 642.732 23.0033C643.421 21.5217 643.767 19.9079 643.767 18.1619C643.767 16.4159 643.421 14.7319 642.732 13.2296C642.043 11.7288 640.997 10.5308 639.598 9.63718C638.197 8.74491 636.433 8.2974 634.302 8.2974C631.251 8.2974 628.921 9.23098 627.313 11.0981C625.704 12.9653 624.9 15.3212 624.9 18.1619C624.9 19.8666 625.246 21.4611 625.935 22.9427C626.624 24.4257 627.658 25.6126 629.037 26.5049C630.415 27.3985 632.171 27.8446 634.302 27.8446Z" fill="url(#paint18_linear_4847_15703)"/>
<path d="M665.691 35.5034C662.349 35.5034 659.299 34.8548 656.541 33.555C653.783 32.2565 651.59 30.3081 649.959 27.7084C648.33 25.1115 647.535 21.8839 647.578 18.0257C647.619 14.2501 648.444 11.0129 650.054 8.31267C651.662 5.61384 653.846 3.55392 656.603 2.13152C659.361 0.710508 662.453 0 665.879 0C669.305 0 672.418 0.619629 674.842 1.85751C677.265 3.09677 679.156 4.7202 680.514 6.72917C681.872 8.73814 682.74 10.9 683.116 13.2146H674.091C673.881 11.6724 673.286 10.5351 672.305 9.80391C671.323 9.07274 670.236 8.59632 669.046 8.37325C667.855 8.15019 666.799 8.03865 665.88 8.03865C662.621 8.03865 660.198 8.86069 658.61 10.5048C657.021 12.1489 656.228 14.4318 656.228 17.3551C656.228 20.562 657 23.0598 658.546 24.8457C660.092 26.633 662.515 27.5253 665.817 27.5253C666.778 27.5253 667.863 27.3945 669.077 27.1287C670.289 26.8657 671.385 26.3273 672.367 25.5149C673.348 24.7039 673.944 23.4853 674.153 21.8619H683.241C682.823 24.2578 681.925 26.5008 680.547 28.5911C679.169 30.6826 677.256 32.357 674.812 33.6142C672.369 34.8727 669.329 35.502 665.693 35.502L665.691 35.5034Z" fill="url(#paint19_linear_4847_15703)"/>
<path d="M679.537 35.3619V1.07715H688.249V35.3605H679.537V35.3619ZM688.124 25.0706V15.7541L700.909 1.07715H712.316V1.8689L688.123 25.0692L688.124 25.0706ZM703.103 35.3619L691.384 17.9462L697.714 11.9179L713.07 34.5715V35.3633H703.105L703.103 35.3619Z" fill="url(#paint20_linear_4847_15703)"/>
<path d="M709.667 35.3619V1.07715H736.367V8.32405H718.253V14.5961H731.729V21.4161H718.253V28.6011H737.056V35.3605H709.666L709.667 35.3619Z" fill="url(#paint21_linear_4847_15703)"/>
<path d="M732.842 8.32405V1.07715H760.732V8.32405H732.842ZM751.143 2.1732V35.3605H742.369V2.1732H751.143Z" fill="url(#paint22_linear_4847_15703)"/>
<path d="M593.05 35.6195V0.0927734H607.737C610.9 0.0927734 613.615 0.450781 615.881 1.16542C618.147 1.88144 619.899 3.01742 621.139 4.57338C622.379 6.13072 622.999 8.21267 622.999 10.8206C622.999 12.9659 622.678 14.7862 622.037 16.2789C621.395 17.7729 620.475 18.9199 619.279 19.7185C618.081 20.5185 616.67 20.9178 615.047 20.9178C616.072 20.9178 616.874 21.1175 617.451 21.5168C618.029 21.9175 618.477 22.4421 618.798 23.0948C619.119 23.7475 619.365 24.4304 619.535 25.1451C619.706 25.8611 619.876 26.5551 620.048 27.227C620.219 27.9003 620.465 28.469 620.785 28.9303C621.106 29.3943 621.587 29.667 622.228 29.751C622.87 29.8363 623.725 29.667 624.793 29.2456V34.0416C623.595 35.0509 622.271 35.7132 620.818 36.0299C619.363 36.3452 617.985 36.2612 616.681 35.7779C615.376 35.2946 614.297 34.3693 613.443 33.002C612.587 31.636 612.16 29.7744 612.16 27.417C612.16 26.6184 612.117 25.8707 612.032 25.1767C611.946 24.4827 611.732 23.8728 611.391 23.3468C611.048 22.8208 610.514 22.3898 609.787 22.0538C609.06 21.7178 608.076 21.5072 606.837 21.4232C605.597 21.3392 603.993 21.3818 602.027 21.5498V35.6209H593.049L593.05 35.6195ZM602.029 15.3632H606.517C608.483 15.3632 610.087 15.3425 611.327 15.2998C612.568 15.2585 613.496 14.9749 614.118 14.4475C614.736 13.9215 615.048 12.9645 615.048 11.5766C615.048 10.0206 614.673 8.93695 613.926 8.32696C613.178 7.71697 612.087 7.36997 610.655 7.28598C609.222 7.20198 607.459 7.1593 605.365 7.1593H602.03V15.3632H602.029Z" fill="url(#paint23_linear_4847_15703)"/>
<path d="M858.32 49.6332C858.094 49.6332 857.835 49.5946 857.542 49.5175C857.249 49.4514 856.961 49.3357 856.679 49.1705C856.409 49.0053 856.183 48.7629 856.003 48.4435C855.823 48.124 855.732 47.7164 855.732 47.2207H856.443C856.443 47.4741 856.493 47.7385 856.595 48.0139C856.696 48.2782 856.882 48.5041 857.153 48.6913C857.435 48.8786 857.824 48.9722 858.32 48.9722C858.94 48.9722 859.397 48.8125 859.69 48.493C859.994 48.1736 860.146 47.6448 860.146 46.9068V40.4627H860.907V46.8407C860.907 47.2813 860.857 47.6779 860.755 48.0304C860.654 48.3719 860.496 48.6638 860.282 48.9061C860.079 49.1485 859.814 49.3302 859.487 49.4514C859.171 49.5726 858.782 49.6332 858.32 49.6332ZM858.303 40.8096V40.1818H860.907V40.8096H858.303ZM875.52 49.6993C874.291 49.6993 873.339 49.3357 872.662 48.6087C871.986 47.8707 871.648 46.8352 871.648 45.5023V40.1652H872.426V45.5023C872.426 46.0861 872.499 46.5984 872.645 47.039C872.792 47.4686 873.001 47.8321 873.271 48.1295C873.542 48.4159 873.869 48.6307 874.252 48.7739C874.635 48.9171 875.058 48.9887 875.52 48.9887C876.197 48.9887 876.761 48.8621 877.211 48.6087C877.674 48.3554 878.023 47.9698 878.26 47.4521C878.508 46.9343 878.632 46.2844 878.632 45.5023V40.1652H879.393V45.5023C879.393 46.8572 879.06 47.8982 878.395 48.6252C877.741 49.3413 876.783 49.6993 875.52 49.6993ZM897.038 40.1652H897.799V49.4679H896.379L890.899 40.5122H890.866V49.4679H890.105V40.1652H891.441L897.004 49.1209H897.038V40.1652ZM909.88 49.1705V40.4627H910.641V49.1705H909.88ZM908.544 49.4679V48.807H911.96V49.4679H908.544ZM908.544 40.8427V40.1652H911.96V40.8427H908.544ZM926.813 49.6993C925.325 49.6993 924.192 49.2641 923.414 48.3939C922.636 47.5127 922.247 46.3285 922.247 44.8414C922.247 43.861 922.416 43.0128 922.754 42.2968C923.093 41.5697 923.6 41.0079 924.276 40.6114C924.953 40.2038 925.798 40 926.813 40C928.301 40 929.429 40.4406 930.195 41.3219C930.973 42.1921 931.362 43.3653 931.362 44.8414C931.362 45.7997 931.187 46.6479 930.838 47.386C930.5 48.113 929.992 48.6803 929.316 49.0879C928.651 49.4955 927.816 49.6993 926.813 49.6993ZM926.813 48.9887C927.659 48.9887 928.358 48.818 928.91 48.4765C929.474 48.124 929.897 47.6393 930.178 47.0225C930.472 46.3946 930.618 45.6675 930.618 44.8414C930.618 44.0042 930.477 43.2771 930.195 42.6603C929.925 42.0434 929.502 41.5642 928.927 41.2227C928.363 40.8813 927.659 40.7105 926.813 40.7105C925.562 40.7105 924.615 41.074 923.972 41.8011C923.329 42.5281 923.008 43.5415 923.008 44.8414C923.008 45.6565 923.143 46.378 923.414 47.0059C923.684 47.6228 924.102 48.1075 924.665 48.46C925.24 48.8125 925.956 48.9887 926.813 48.9887ZM941.908 49.4679V40.1652H944.868C945.668 40.1652 946.344 40.2423 946.897 40.3966C947.449 40.5508 947.867 40.8152 948.148 41.1897C948.442 41.5642 948.588 42.093 948.588 42.7759C948.588 43.1945 948.509 43.5856 948.351 43.9491C948.193 44.3126 947.945 44.61 947.607 44.8414C947.28 45.0617 946.852 45.1718 946.322 45.1718C946.762 45.1718 947.105 45.2545 947.354 45.4197C947.602 45.5739 947.776 45.7777 947.878 46.0311C947.991 46.2844 948.058 46.5598 948.081 46.8572C948.115 47.1547 948.131 47.4466 948.131 47.733C948.131 48.0194 948.148 48.2727 948.182 48.493C948.216 48.7134 948.295 48.8676 948.419 48.9557C948.543 49.0438 948.74 49.0438 949.011 48.9557V49.501C948.954 49.545 948.842 49.5836 948.673 49.6166C948.515 49.6497 948.34 49.6387 948.148 49.5836C947.957 49.5285 947.793 49.4018 947.658 49.2036C947.523 49.0053 947.455 48.7023 947.455 48.2948C947.455 47.6559 947.427 47.1436 947.37 46.7581C947.325 46.3725 947.218 46.0806 947.049 45.8823C946.891 45.6841 946.638 45.5464 946.288 45.4693C945.939 45.3921 945.471 45.3536 944.884 45.3536C944.309 45.3536 943.577 45.3591 942.686 45.3701V49.4679H941.908ZM942.686 44.7587H945.172C945.792 44.7587 946.299 44.7037 946.694 44.5935C947.1 44.4723 947.399 44.2741 947.59 43.9987C947.793 43.7123 947.895 43.3157 947.895 42.809C947.895 42.2252 947.771 41.7955 947.523 41.5202C947.275 41.2338 946.919 41.0465 946.457 40.9584C945.995 40.8702 945.431 40.8262 944.766 40.8262H942.686V44.7587Z" fill="white"/>
<path d="M832.111 36.065C826.261 36.065 821.791 34.4513 818.699 31.2237C815.607 27.9961 814.061 23.6422 814.061 18.1619C814.061 14.5488 814.729 11.4134 816.066 8.75317C817.403 6.09428 819.409 4.02472 822.082 2.54174C824.756 1.06014 828.099 0.319336 832.111 0.319336C837.961 0.319336 842.41 1.93312 845.461 5.1607C848.511 8.38828 850.037 12.7229 850.037 18.1619C850.037 21.6938 849.358 24.8098 848.001 27.5087C846.642 30.2089 844.637 32.3101 841.984 33.811C839.331 35.3118 836.04 36.0637 832.112 36.0637L832.111 36.065ZM831.985 27.8446C834.116 27.8446 835.881 27.4095 837.282 26.5351C838.681 25.6622 839.725 24.4862 840.416 23.0033C841.105 21.5217 841.45 19.9079 841.45 18.1619C841.45 16.4159 841.105 14.7319 840.416 13.2296C839.727 11.7288 838.681 10.5308 837.282 9.63718C835.881 8.74491 834.116 8.2974 831.985 8.2974C828.934 8.2974 826.605 9.23098 824.997 11.0981C823.387 12.9653 822.584 15.3212 822.584 18.1619C822.584 19.8666 822.929 21.4611 823.618 22.9427C824.308 24.4257 825.342 25.6126 826.72 26.5049C828.099 27.3985 829.855 27.8446 831.985 27.8446Z" fill="url(#paint24_linear_4847_15703)"/>
<path d="M863.375 35.5034C860.032 35.5034 856.982 34.8548 854.224 33.555C851.466 32.2565 849.274 30.3081 847.643 27.7084C846.014 25.1115 845.219 21.8839 845.261 18.0257C845.302 14.2501 846.128 11.0129 847.738 8.31267C849.346 5.61384 851.53 3.55392 854.286 2.13152C857.044 0.710508 860.136 0 863.562 0C866.988 0 870.102 0.619629 872.526 1.85751C874.948 3.09677 876.839 4.7202 878.198 6.72917C879.555 8.73814 880.423 10.9 880.8 13.2146H871.774C871.564 11.6724 870.97 10.5351 869.989 9.80391C869.007 9.07274 867.92 8.59632 866.729 8.37325C865.538 8.15019 864.483 8.03865 863.564 8.03865C860.304 8.03865 857.882 8.86069 856.293 10.5048C854.705 12.1489 853.912 14.4318 853.912 17.3551C853.912 20.562 854.684 23.0598 856.23 24.8457C857.776 26.633 860.198 27.5253 863.5 27.5253C864.462 27.5253 865.547 27.3945 866.76 27.1287C867.972 26.8657 869.069 26.3273 870.051 25.5149C871.032 24.7039 871.628 23.4853 871.836 21.8619H880.925C880.506 24.2578 879.609 26.5008 878.23 28.5911C876.852 30.6826 874.94 32.357 872.496 33.6142C870.052 34.8727 867.012 35.502 863.376 35.502L863.375 35.5034Z" fill="url(#paint25_linear_4847_15703)"/>
<path d="M877.221 35.3619V1.07715H885.933V35.3605H877.221V35.3619ZM885.808 25.0706V15.7541L898.593 1.07715H909.999V1.8689L885.806 25.0692L885.808 25.0706ZM900.787 35.3619L889.067 17.9462L895.398 11.9179L910.753 34.5715V35.3633H900.788L900.787 35.3619Z" fill="url(#paint26_linear_4847_15703)"/>
<path d="M907.351 35.3619V1.07715H934.05V8.32405H915.936V14.5961H929.412V21.4161H915.936V28.6011H934.739V35.3605H907.35L907.351 35.3619Z" fill="url(#paint27_linear_4847_15703)"/>
<path d="M930.525 8.32405V1.07715H958.415V8.32405H930.525ZM948.826 2.1732V35.3605H940.052V2.1732H948.826Z" fill="url(#paint28_linear_4847_15703)"/>
<path d="M790.734 35.6195V0.0927734H805.42C808.584 0.0927734 811.298 0.450781 813.564 1.16542C815.831 1.88144 817.582 3.01742 818.822 4.57338C820.063 6.13072 820.683 8.21267 820.683 10.8206C820.683 12.9659 820.361 14.7862 819.72 16.2789C819.079 17.7729 818.159 18.9199 816.962 19.7185C815.764 20.5185 814.354 20.9178 812.73 20.9178C813.756 20.9178 814.558 21.1175 815.134 21.5168C815.712 21.9175 816.16 22.4421 816.482 23.0948C816.803 23.7475 817.048 24.4304 817.219 25.1451C817.389 25.8611 817.56 26.5551 817.732 27.227C817.902 27.9003 818.149 28.469 818.469 28.9303C818.79 29.3943 819.271 29.667 819.912 29.751C820.553 29.8363 821.409 29.667 822.477 29.2456V34.0416C821.279 35.0509 819.954 35.7132 818.501 36.0299C817.047 36.3452 815.668 36.2612 814.365 35.7779C813.06 35.2946 811.98 34.3693 811.126 33.002C810.271 31.636 809.844 29.7744 809.844 27.417C809.844 26.6184 809.8 25.8707 809.716 25.1767C809.63 24.4827 809.415 23.8728 809.074 23.3468C808.732 22.8208 808.198 22.3898 807.471 22.0538C806.743 21.7178 805.76 21.5072 804.521 21.4232C803.281 21.3392 801.677 21.3818 799.711 21.5498V35.6209H790.732L790.734 35.6195ZM799.712 15.3632H804.201C806.167 15.3632 807.771 15.3425 809.011 15.2998C810.251 15.2585 811.18 14.9749 811.801 14.4475C812.42 13.9215 812.732 12.9645 812.732 11.5766C812.732 10.0206 812.357 8.93695 811.61 8.32696C810.861 7.71697 809.771 7.36997 808.339 7.28598C806.905 7.20198 805.142 7.1593 803.048 7.1593H799.714V15.3632H799.712Z" fill="url(#paint29_linear_4847_15703)"/>
<path d="M1056 49.6332C1055.78 49.6332 1055.52 49.5946 1055.22 49.5175C1054.93 49.4514 1054.64 49.3357 1054.36 49.1705C1054.09 49.0053 1053.87 48.7629 1053.68 48.4435C1053.5 48.124 1053.41 47.7164 1053.41 47.2207H1054.12C1054.12 47.4741 1054.18 47.7385 1054.28 48.0139C1054.38 48.2782 1054.56 48.5041 1054.83 48.6913C1055.12 48.8786 1055.51 48.9722 1056 48.9722C1056.62 48.9722 1057.08 48.8125 1057.37 48.493C1057.68 48.1736 1057.83 47.6448 1057.83 46.9068V40.4627H1058.59V46.8407C1058.59 47.2813 1058.54 47.6779 1058.44 48.0304C1058.34 48.3719 1058.18 48.6638 1057.96 48.9061C1057.76 49.1485 1057.5 49.3302 1057.17 49.4514C1056.85 49.5726 1056.46 49.6332 1056 49.6332ZM1055.98 40.8096V40.1818H1058.59V40.8096H1055.98ZM1073.2 49.6993C1071.97 49.6993 1071.02 49.3357 1070.34 48.6087C1069.67 47.8707 1069.33 46.8352 1069.33 45.5023V40.1652H1070.11V45.5023C1070.11 46.0861 1070.18 46.5984 1070.33 47.039C1070.47 47.4686 1070.68 47.8321 1070.95 48.1295C1071.22 48.4159 1071.55 48.6307 1071.93 48.7739C1072.32 48.9171 1072.74 48.9887 1073.2 48.9887C1073.88 48.9887 1074.44 48.8621 1074.89 48.6087C1075.36 48.3554 1075.7 47.9698 1075.94 47.4521C1076.19 46.9343 1076.31 46.2844 1076.31 45.5023V40.1652H1077.07V45.5023C1077.07 46.8572 1076.74 47.8982 1076.08 48.6252C1075.42 49.3413 1074.46 49.6993 1073.2 49.6993ZM1094.72 40.1652H1095.48V49.4679H1094.06L1088.58 40.5122H1088.55V49.4679H1087.79V40.1652H1089.12L1094.69 49.1209H1094.72V40.1652ZM1107.56 49.1705V40.4627H1108.32V49.1705H1107.56ZM1106.23 49.4679V48.807H1109.64V49.4679H1106.23ZM1106.23 40.8427V40.1652H1109.64V40.8427H1106.23ZM1124.49 49.6993C1123.01 49.6993 1121.87 49.2641 1121.1 48.3939C1120.32 47.5127 1119.93 46.3285 1119.93 44.8414C1119.93 43.861 1120.1 43.0128 1120.44 42.2968C1120.77 41.5697 1121.28 41.0079 1121.96 40.6114C1122.63 40.2038 1123.48 40 1124.49 40C1125.98 40 1127.11 40.4406 1127.88 41.3219C1128.65 42.1921 1129.04 43.3653 1129.04 44.8414C1129.04 45.7997 1128.87 46.6479 1128.52 47.386C1128.18 48.113 1127.67 48.6803 1127 49.0879C1126.33 49.4955 1125.5 49.6993 1124.49 49.6993ZM1124.49 48.9887C1125.34 48.9887 1126.04 48.818 1126.59 48.4765C1127.16 48.124 1127.58 47.6393 1127.86 47.0225C1128.15 46.3946 1128.3 45.6675 1128.3 44.8414C1128.3 44.0042 1128.16 43.2771 1127.88 42.6603C1127.61 42.0434 1127.18 41.5642 1126.61 41.2227C1126.04 40.8813 1125.34 40.7105 1124.49 40.7105C1123.24 40.7105 1122.3 41.074 1121.65 41.8011C1121.01 42.5281 1120.69 43.5415 1120.69 44.8414C1120.69 45.6565 1120.82 46.378 1121.1 47.0059C1121.37 47.6228 1121.78 48.1075 1122.35 48.46C1122.92 48.8125 1123.64 48.9887 1124.49 48.9887ZM1139.59 49.4679V40.1652H1142.55C1143.35 40.1652 1144.03 40.2423 1144.58 40.3966C1145.13 40.5508 1145.55 40.8152 1145.83 41.1897C1146.12 41.5642 1146.27 42.093 1146.27 42.7759C1146.27 43.1945 1146.19 43.5856 1146.03 43.9491C1145.88 44.3126 1145.63 44.61 1145.29 44.8414C1144.96 45.0617 1144.53 45.1718 1144 45.1718C1144.44 45.1718 1144.79 45.2545 1145.04 45.4197C1145.28 45.5739 1145.46 45.7777 1145.56 46.0311C1145.67 46.2844 1145.74 46.5598 1145.76 46.8572C1145.8 47.1547 1145.81 47.4466 1145.81 47.733C1145.81 48.0194 1145.83 48.2727 1145.86 48.493C1145.9 48.7134 1145.98 48.8676 1146.1 48.9557C1146.22 49.0438 1146.42 49.0438 1146.69 48.9557V49.501C1146.64 49.545 1146.52 49.5836 1146.35 49.6166C1146.2 49.6497 1146.02 49.6387 1145.83 49.5836C1145.64 49.5285 1145.47 49.4018 1145.34 49.2036C1145.2 49.0053 1145.14 48.7023 1145.14 48.2948C1145.14 47.6559 1145.11 47.1436 1145.05 46.7581C1145.01 46.3725 1144.9 46.0806 1144.73 45.8823C1144.57 45.6841 1144.32 45.5464 1143.97 45.4693C1143.62 45.3921 1143.15 45.3536 1142.57 45.3536C1141.99 45.3536 1141.26 45.3591 1140.37 45.3701V49.4679H1139.59ZM1140.37 44.7587H1142.85C1143.47 44.7587 1143.98 44.7037 1144.38 44.5935C1144.78 44.4723 1145.08 44.2741 1145.27 43.9987C1145.47 43.7123 1145.58 43.3157 1145.58 42.809C1145.58 42.2252 1145.45 41.7955 1145.2 41.5202C1144.96 41.2338 1144.6 41.0465 1144.14 40.9584C1143.68 40.8702 1143.11 40.8262 1142.45 40.8262H1140.37V44.7587Z" fill="white"/>
<path d="M1029.79 36.065C1023.94 36.065 1019.47 34.4513 1016.38 31.2237C1013.29 27.9961 1011.74 23.6422 1011.74 18.1619C1011.74 14.5488 1012.41 11.4134 1013.75 8.75317C1015.09 6.09428 1017.09 4.02472 1019.76 2.54174C1022.44 1.06014 1025.78 0.319336 1029.79 0.319336C1035.64 0.319336 1040.09 1.93312 1043.14 5.1607C1046.19 8.38828 1047.72 12.7229 1047.72 18.1619C1047.72 21.6938 1047.04 24.8098 1045.68 27.5087C1044.32 30.2089 1042.32 32.3101 1039.67 33.811C1037.01 35.3118 1033.72 36.0637 1029.79 36.0637L1029.79 36.065ZM1029.67 27.8446C1031.8 27.8446 1033.56 27.4095 1034.96 26.5351C1036.36 25.6622 1037.41 24.4862 1038.1 23.0033C1038.79 21.5217 1039.13 19.9079 1039.13 18.1619C1039.13 16.4159 1038.79 14.7319 1038.1 13.2296C1037.41 11.7288 1036.36 10.5308 1034.96 9.63718C1033.56 8.74491 1031.8 8.2974 1029.67 8.2974C1026.62 8.2974 1024.29 9.23098 1022.68 11.0981C1021.07 12.9653 1020.27 15.3212 1020.27 18.1619C1020.27 19.8666 1020.61 21.4611 1021.3 22.9427C1021.99 24.4257 1023.02 25.6126 1024.4 26.5049C1025.78 27.3985 1027.54 27.8446 1029.67 27.8446Z" fill="url(#paint30_linear_4847_15703)"/>
<path d="M1061.06 35.5034C1057.71 35.5034 1054.66 34.8548 1051.91 33.555C1049.15 32.2565 1046.96 30.3081 1045.32 27.7084C1043.7 25.1115 1042.9 21.8839 1042.94 18.0257C1042.98 14.2501 1043.81 11.0129 1045.42 8.31267C1047.03 5.61384 1049.21 3.55392 1051.97 2.13152C1054.73 0.710508 1057.82 0 1061.24 0C1064.67 0 1067.78 0.619629 1070.21 1.85751C1072.63 3.09677 1074.52 4.7202 1075.88 6.72917C1077.24 8.73814 1078.1 10.9 1078.48 13.2146H1069.46C1069.25 11.6724 1068.65 10.5351 1067.67 9.80391C1066.69 9.07274 1065.6 8.59632 1064.41 8.37325C1063.22 8.15019 1062.16 8.03865 1061.25 8.03865C1057.99 8.03865 1055.56 8.86069 1053.97 10.5048C1052.39 12.1489 1051.59 14.4318 1051.59 17.3551C1051.59 20.562 1052.37 23.0598 1053.91 24.8457C1055.46 26.633 1057.88 27.5253 1061.18 27.5253C1062.14 27.5253 1063.23 27.3945 1064.44 27.1287C1065.65 26.8657 1066.75 26.3273 1067.73 25.5149C1068.71 24.7039 1069.31 23.4853 1069.52 21.8619H1078.61C1078.19 24.2578 1077.29 26.5008 1075.91 28.5911C1074.53 30.6826 1072.62 32.357 1070.18 33.6142C1067.73 34.8727 1064.69 35.502 1061.06 35.502L1061.06 35.5034Z" fill="url(#paint31_linear_4847_15703)"/>
<path d="M1074.9 35.3619V1.07715H1083.61V35.3605H1074.9V35.3619ZM1083.49 25.0706V15.7541L1096.27 1.07715H1107.68V1.8689L1083.49 25.0692L1083.49 25.0706ZM1098.47 35.3619L1086.75 17.9462L1093.08 11.9179L1108.44 34.5715V35.3633H1098.47L1098.47 35.3619Z" fill="url(#paint32_linear_4847_15703)"/>
<path d="M1105.03 35.3619V1.07715H1131.73V8.32405H1113.62V14.5961H1127.09V21.4161H1113.62V28.6011H1132.42V35.3605H1105.03L1105.03 35.3619Z" fill="url(#paint33_linear_4847_15703)"/>
<path d="M1128.21 8.32405V1.07715H1156.1V8.32405H1128.21ZM1146.51 2.1732V35.3605H1137.73V2.1732H1146.51Z" fill="url(#paint34_linear_4847_15703)"/>
<path d="M988.415 35.6195V0.0927734H1003.1C1006.27 0.0927734 1008.98 0.450781 1011.25 1.16542C1013.51 1.88144 1015.26 3.01742 1016.5 4.57338C1017.74 6.13072 1018.36 8.21267 1018.36 10.8206C1018.36 12.9659 1018.04 14.7862 1017.4 16.2789C1016.76 17.7729 1015.84 18.9199 1014.64 19.7185C1013.45 20.5185 1012.04 20.9178 1010.41 20.9178C1011.44 20.9178 1012.24 21.1175 1012.82 21.5168C1013.39 21.9175 1013.84 22.4421 1014.16 23.0948C1014.48 23.7475 1014.73 24.4304 1014.9 25.1451C1015.07 25.8611 1015.24 26.5551 1015.41 27.227C1015.58 27.9003 1015.83 28.469 1016.15 28.9303C1016.47 29.3943 1016.95 29.667 1017.59 29.751C1018.23 29.8363 1019.09 29.667 1020.16 29.2456V34.0416C1018.96 35.0509 1017.64 35.7132 1016.18 36.0299C1014.73 36.3452 1013.35 36.2612 1012.05 35.7779C1010.74 35.2946 1009.66 34.3693 1008.81 33.002C1007.95 31.636 1007.53 29.7744 1007.53 27.417C1007.53 26.6184 1007.48 25.8707 1007.4 25.1767C1007.31 24.4827 1007.1 23.8728 1006.76 23.3468C1006.41 22.8208 1005.88 22.3898 1005.15 22.0538C1004.43 21.7178 1003.44 21.5072 1002.2 21.4232C1000.96 21.3392 999.359 21.3818 997.393 21.5498V35.6209H988.414L988.415 35.6195ZM997.394 15.3632H1001.88C1003.85 15.3632 1005.45 15.3425 1006.69 15.2998C1007.93 15.2585 1008.86 14.9749 1009.48 14.4475C1010.1 13.9215 1010.41 12.9645 1010.41 11.5766C1010.41 10.0206 1010.04 8.93695 1009.29 8.32696C1008.54 7.71697 1007.45 7.36997 1006.02 7.28598C1004.59 7.20198 1002.82 7.1593 1000.73 7.1593H997.396V15.3632H997.394Z" fill="url(#paint35_linear_4847_15703)"/>
<path d="M1253.69 49.6332C1253.46 49.6332 1253.2 49.5946 1252.91 49.5175C1252.61 49.4514 1252.33 49.3357 1252.04 49.1705C1251.77 49.0053 1251.55 48.7629 1251.37 48.4435C1251.19 48.124 1251.1 47.7164 1251.1 47.2207H1251.81C1251.81 47.4741 1251.86 47.7385 1251.96 48.0139C1252.06 48.2782 1252.25 48.5041 1252.52 48.6913C1252.8 48.8786 1253.19 48.9722 1253.69 48.9722C1254.31 48.9722 1254.76 48.8125 1255.05 48.493C1255.36 48.1736 1255.51 47.6448 1255.51 46.9068V40.4627H1256.27V46.8407C1256.27 47.2813 1256.22 47.6779 1256.12 48.0304C1256.02 48.3719 1255.86 48.6638 1255.65 48.9061C1255.44 49.1485 1255.18 49.3302 1254.85 49.4514C1254.54 49.5726 1254.15 49.6332 1253.69 49.6332ZM1253.67 40.8096V40.1818H1256.27V40.8096H1253.67ZM1270.89 49.6993C1269.66 49.6993 1268.7 49.3357 1268.03 48.6087C1267.35 47.8707 1267.01 46.8352 1267.01 45.5023V40.1652H1267.79V45.5023C1267.79 46.0861 1267.86 46.5984 1268.01 47.039C1268.16 47.4686 1268.37 47.8321 1268.64 48.1295C1268.91 48.4159 1269.23 48.6307 1269.62 48.7739C1270 48.9171 1270.42 48.9887 1270.89 48.9887C1271.56 48.9887 1272.13 48.8621 1272.58 48.6087C1273.04 48.3554 1273.39 47.9698 1273.63 47.4521C1273.87 46.9343 1274 46.2844 1274 45.5023V40.1652H1274.76V45.5023C1274.76 46.8572 1274.43 47.8982 1273.76 48.6252C1273.11 49.3413 1272.15 49.6993 1270.89 49.6993ZM1292.4 40.1652H1293.16V49.4679H1291.74L1286.26 40.5122H1286.23V49.4679H1285.47V40.1652H1286.81L1292.37 49.1209H1292.4V40.1652ZM1305.25 49.1705V40.4627H1306.01V49.1705H1305.25ZM1303.91 49.4679V48.807H1307.33V49.4679H1303.91ZM1303.91 40.8427V40.1652H1307.33V40.8427H1303.91ZM1322.18 49.6993C1320.69 49.6993 1319.56 49.2641 1318.78 48.3939C1318 47.5127 1317.61 46.3285 1317.61 44.8414C1317.61 43.861 1317.78 43.0128 1318.12 42.2968C1318.46 41.5697 1318.97 41.0079 1319.64 40.6114C1320.32 40.2038 1321.16 40 1322.18 40C1323.67 40 1324.79 40.4406 1325.56 41.3219C1326.34 42.1921 1326.73 43.3653 1326.73 44.8414C1326.73 45.7997 1326.55 46.6479 1326.2 47.386C1325.86 48.113 1325.36 48.6803 1324.68 49.0879C1324.02 49.4955 1323.18 49.6993 1322.18 49.6993ZM1322.18 48.9887C1323.02 48.9887 1323.72 48.818 1324.28 48.4765C1324.84 48.124 1325.26 47.6393 1325.54 47.0225C1325.84 46.3946 1325.98 45.6675 1325.98 44.8414C1325.98 44.0042 1325.84 43.2771 1325.56 42.6603C1325.29 42.0434 1324.87 41.5642 1324.29 41.2227C1323.73 40.8813 1323.02 40.7105 1322.18 40.7105C1320.93 40.7105 1319.98 41.074 1319.34 41.8011C1318.69 42.5281 1318.37 43.5415 1318.37 44.8414C1318.37 45.6565 1318.51 46.378 1318.78 47.0059C1319.05 47.6228 1319.47 48.1075 1320.03 48.46C1320.61 48.8125 1321.32 48.9887 1322.18 48.9887ZM1337.27 49.4679V40.1652H1340.23C1341.03 40.1652 1341.71 40.2423 1342.26 40.3966C1342.81 40.5508 1343.23 40.8152 1343.51 41.1897C1343.81 41.5642 1343.95 42.093 1343.95 42.7759C1343.95 43.1945 1343.87 43.5856 1343.72 43.9491C1343.56 44.3126 1343.31 44.61 1342.97 44.8414C1342.65 45.0617 1342.22 45.1718 1341.69 45.1718C1342.13 45.1718 1342.47 45.2545 1342.72 45.4197C1342.97 45.5739 1343.14 45.7777 1343.24 46.0311C1343.36 46.2844 1343.42 46.5598 1343.45 46.8572C1343.48 47.1547 1343.5 47.4466 1343.5 47.733C1343.5 48.0194 1343.51 48.2727 1343.55 48.493C1343.58 48.7134 1343.66 48.8676 1343.78 48.9557C1343.91 49.0438 1344.11 49.0438 1344.38 48.9557V49.501C1344.32 49.545 1344.21 49.5836 1344.04 49.6166C1343.88 49.6497 1343.71 49.6387 1343.51 49.5836C1343.32 49.5285 1343.16 49.4018 1343.02 49.2036C1342.89 49.0053 1342.82 48.7023 1342.82 48.2948C1342.82 47.6559 1342.79 47.1436 1342.74 46.7581C1342.69 46.3725 1342.58 46.0806 1342.41 45.8823C1342.26 45.6841 1342 45.5464 1341.65 45.4693C1341.3 45.3921 1340.84 45.3536 1340.25 45.3536C1339.67 45.3536 1338.94 45.3591 1338.05 45.3701V49.4679H1337.27ZM1338.05 44.7587H1340.54C1341.16 44.7587 1341.66 44.7037 1342.06 44.5935C1342.47 44.4723 1342.76 44.2741 1342.96 43.9987C1343.16 43.7123 1343.26 43.3157 1343.26 42.809C1343.26 42.2252 1343.14 41.7955 1342.89 41.5202C1342.64 41.2338 1342.28 41.0465 1341.82 40.9584C1341.36 40.8702 1340.8 40.8262 1340.13 40.8262H1338.05V44.7587Z" fill="white"/>
<path d="M1227.48 36.065C1221.63 36.065 1217.16 34.4513 1214.06 31.2237C1210.97 27.9961 1209.43 23.6422 1209.43 18.1619C1209.43 14.5488 1210.09 11.4134 1211.43 8.75317C1212.77 6.09428 1214.77 4.02472 1217.45 2.54174C1220.12 1.06014 1223.46 0.319336 1227.48 0.319336C1233.33 0.319336 1237.78 1.93312 1240.83 5.1607C1243.88 8.38828 1245.4 12.7229 1245.4 18.1619C1245.4 21.6938 1244.72 24.8098 1243.37 27.5087C1242.01 30.2089 1240 32.3101 1237.35 33.811C1234.7 35.3118 1231.41 36.0637 1227.48 36.0637L1227.48 36.065ZM1227.35 27.8446C1229.48 27.8446 1231.25 27.4095 1232.65 26.5351C1234.05 25.6622 1235.09 24.4862 1235.78 23.0033C1236.47 21.5217 1236.82 19.9079 1236.82 18.1619C1236.82 16.4159 1236.47 14.7319 1235.78 13.2296C1235.09 11.7288 1234.05 10.5308 1232.65 9.63718C1231.25 8.74491 1229.48 8.2974 1227.35 8.2974C1224.3 8.2974 1221.97 9.23098 1220.36 11.0981C1218.75 12.9653 1217.95 15.3212 1217.95 18.1619C1217.95 19.8666 1218.29 21.4611 1218.98 22.9427C1219.67 24.4257 1220.71 25.6126 1222.09 26.5049C1223.46 27.3985 1225.22 27.8446 1227.35 27.8446Z" fill="url(#paint36_linear_4847_15703)"/>
<path d="M1258.74 35.5034C1255.4 35.5034 1252.35 34.8548 1249.59 33.555C1246.83 32.2565 1244.64 30.3081 1243.01 27.7084C1241.38 25.1115 1240.58 21.8839 1240.63 18.0257C1240.67 14.2501 1241.49 11.0129 1243.1 8.31267C1244.71 5.61384 1246.9 3.55392 1249.65 2.13152C1252.41 0.710508 1255.5 0 1258.93 0C1262.35 0 1265.47 0.619629 1267.89 1.85751C1270.31 3.09677 1272.2 4.7202 1273.56 6.72917C1274.92 8.73814 1275.79 10.9 1276.16 13.2146H1267.14C1266.93 11.6724 1266.33 10.5351 1265.35 9.80391C1264.37 9.07274 1263.29 8.59632 1262.09 8.37325C1260.9 8.15019 1259.85 8.03865 1258.93 8.03865C1255.67 8.03865 1253.25 8.86069 1251.66 10.5048C1250.07 12.1489 1249.28 14.4318 1249.28 17.3551C1249.28 20.562 1250.05 23.0598 1251.6 24.8457C1253.14 26.633 1255.56 27.5253 1258.87 27.5253C1259.83 27.5253 1260.91 27.3945 1262.13 27.1287C1263.34 26.8657 1264.43 26.3273 1265.42 25.5149C1266.4 24.7039 1266.99 23.4853 1267.2 21.8619H1276.29C1275.87 24.2578 1274.97 26.5008 1273.6 28.5911C1272.22 30.6826 1270.3 32.357 1267.86 33.6142C1265.42 34.8727 1262.38 35.502 1258.74 35.502L1258.74 35.5034Z" fill="url(#paint37_linear_4847_15703)"/>
<path d="M1272.59 35.3619V1.07715H1281.3V35.3605H1272.59V35.3619ZM1281.17 25.0706V15.7541L1293.96 1.07715H1305.36V1.8689L1281.17 25.0692L1281.17 25.0706ZM1296.15 35.3619L1284.43 17.9462L1290.76 11.9179L1306.12 34.5715V35.3633H1296.15L1296.15 35.3619Z" fill="url(#paint38_linear_4847_15703)"/>
<path d="M1302.72 35.3619V1.07715H1329.42V8.32405H1311.3V14.5961H1324.78V21.4161H1311.3V28.6011H1330.1V35.3605H1302.71L1302.72 35.3619Z" fill="url(#paint39_linear_4847_15703)"/>
<path d="M1325.89 8.32405V1.07715H1353.78V8.32405H1325.89ZM1344.19 2.1732V35.3605H1335.42V2.1732H1344.19Z" fill="url(#paint40_linear_4847_15703)"/>
<path d="M1186.1 35.6195V0.0927734H1200.79C1203.95 0.0927734 1206.66 0.450781 1208.93 1.16542C1211.2 1.88144 1212.95 3.01742 1214.19 4.57338C1215.43 6.13072 1216.05 8.21267 1216.05 10.8206C1216.05 12.9659 1215.73 14.7862 1215.09 16.2789C1214.44 17.7729 1213.52 18.9199 1212.33 19.7185C1211.13 20.5185 1209.72 20.9178 1208.1 20.9178C1209.12 20.9178 1209.92 21.1175 1210.5 21.5168C1211.08 21.9175 1211.53 22.4421 1211.85 23.0948C1212.17 23.7475 1212.41 24.4304 1212.58 25.1451C1212.75 25.8611 1212.93 26.5551 1213.1 27.227C1213.27 27.9003 1213.51 28.469 1213.83 28.9303C1214.16 29.3943 1214.64 29.667 1215.28 29.751C1215.92 29.8363 1216.77 29.667 1217.84 29.2456V34.0416C1216.64 35.0509 1215.32 35.7132 1213.87 36.0299C1212.41 36.3452 1211.03 36.2612 1209.73 35.7779C1208.43 35.2946 1207.35 34.3693 1206.49 33.002C1205.64 31.636 1205.21 29.7744 1205.21 27.417C1205.21 26.6184 1205.17 25.8707 1205.08 25.1767C1204.99 24.4827 1204.78 23.8728 1204.44 23.3468C1204.1 22.8208 1203.56 22.3898 1202.84 22.0538C1202.11 21.7178 1201.12 21.5072 1199.89 21.4232C1198.65 21.3392 1197.04 21.3818 1195.08 21.5498V35.6209H1186.1L1186.1 35.6195ZM1195.08 15.3632H1199.57C1201.53 15.3632 1203.14 15.3425 1204.38 15.2998C1205.62 15.2585 1206.55 14.9749 1207.17 14.4475C1207.79 13.9215 1208.1 12.9645 1208.1 11.5766C1208.1 10.0206 1207.72 8.93695 1206.97 8.32696C1206.23 7.71697 1205.14 7.36997 1203.7 7.28598C1202.27 7.20198 1200.51 7.1593 1198.41 7.1593H1195.08V15.3632H1195.08Z" fill="url(#paint41_linear_4847_15703)"/>
<path d="M1451.37 49.6332C1451.14 49.6332 1450.88 49.5946 1450.59 49.5175C1450.3 49.4514 1450.01 49.3357 1449.73 49.1705C1449.46 49.0053 1449.23 48.7629 1449.05 48.4435C1448.87 48.124 1448.78 47.7164 1448.78 47.2207H1449.49C1449.49 47.4741 1449.54 47.7385 1449.64 48.0139C1449.75 48.2782 1449.93 48.5041 1450.2 48.6913C1450.48 48.8786 1450.87 48.9722 1451.37 48.9722C1451.99 48.9722 1452.45 48.8125 1452.74 48.493C1453.04 48.1736 1453.2 47.6448 1453.2 46.9068V40.4627H1453.96V46.8407C1453.96 47.2813 1453.91 47.6779 1453.8 48.0304C1453.7 48.3719 1453.54 48.6638 1453.33 48.9061C1453.13 49.1485 1452.86 49.3302 1452.54 49.4514C1452.22 49.5726 1451.83 49.6332 1451.37 49.6332ZM1451.35 40.8096V40.1818H1453.96V40.8096H1451.35ZM1468.57 49.6993C1467.34 49.6993 1466.39 49.3357 1465.71 48.6087C1465.03 47.8707 1464.7 46.8352 1464.7 45.5023V40.1652H1465.47V45.5023C1465.47 46.0861 1465.55 46.5984 1465.69 47.039C1465.84 47.4686 1466.05 47.8321 1466.32 48.1295C1466.59 48.4159 1466.92 48.6307 1467.3 48.7739C1467.68 48.9171 1468.11 48.9887 1468.57 48.9887C1469.25 48.9887 1469.81 48.8621 1470.26 48.6087C1470.72 48.3554 1471.07 47.9698 1471.31 47.4521C1471.56 46.9343 1471.68 46.2844 1471.68 45.5023V40.1652H1472.44V45.5023C1472.44 46.8572 1472.11 47.8982 1471.44 48.6252C1470.79 49.3413 1469.83 49.6993 1468.57 49.6993ZM1490.09 40.1652H1490.85V49.4679H1489.43L1483.95 40.5122H1483.91V49.4679H1483.15V40.1652H1484.49L1490.05 49.1209H1490.09V40.1652ZM1502.93 49.1705V40.4627H1503.69V49.1705H1502.93ZM1501.59 49.4679V48.807H1505.01V49.4679H1501.59ZM1501.59 40.8427V40.1652H1505.01V40.8427H1501.59ZM1519.86 49.6993C1518.37 49.6993 1517.24 49.2641 1516.46 48.3939C1515.68 47.5127 1515.3 46.3285 1515.3 44.8414C1515.3 43.861 1515.46 43.0128 1515.8 42.2968C1516.14 41.5697 1516.65 41.0079 1517.33 40.6114C1518 40.2038 1518.85 40 1519.86 40C1521.35 40 1522.48 40.4406 1523.24 41.3219C1524.02 42.1921 1524.41 43.3653 1524.41 44.8414C1524.41 45.7997 1524.24 46.6479 1523.89 47.386C1523.55 48.113 1523.04 48.6803 1522.36 49.0879C1521.7 49.4955 1520.87 49.6993 1519.86 49.6993ZM1519.86 48.9887C1520.71 48.9887 1521.41 48.818 1521.96 48.4765C1522.52 48.124 1522.95 47.6393 1523.23 47.0225C1523.52 46.3946 1523.67 45.6675 1523.67 44.8414C1523.67 44.0042 1523.53 43.2771 1523.24 42.6603C1522.97 42.0434 1522.55 41.5642 1521.98 41.2227C1521.41 40.8813 1520.71 40.7105 1519.86 40.7105C1518.61 40.7105 1517.66 41.074 1517.02 41.8011C1516.38 42.5281 1516.06 43.5415 1516.06 44.8414C1516.06 45.6565 1516.19 46.378 1516.46 47.0059C1516.73 47.6228 1517.15 48.1075 1517.71 48.46C1518.29 48.8125 1519.01 48.9887 1519.86 48.9887ZM1534.96 49.4679V40.1652H1537.92C1538.72 40.1652 1539.39 40.2423 1539.95 40.3966C1540.5 40.5508 1540.92 40.8152 1541.2 41.1897C1541.49 41.5642 1541.64 42.093 1541.64 42.7759C1541.64 43.1945 1541.56 43.5856 1541.4 43.9491C1541.24 44.3126 1540.99 44.61 1540.66 44.8414C1540.33 45.0617 1539.9 45.1718 1539.37 45.1718C1539.81 45.1718 1540.15 45.2545 1540.4 45.4197C1540.65 45.5739 1540.83 45.7777 1540.93 46.0311C1541.04 46.2844 1541.11 46.5598 1541.13 46.8572C1541.16 47.1547 1541.18 47.4466 1541.18 47.733C1541.18 48.0194 1541.2 48.2727 1541.23 48.493C1541.26 48.7134 1541.34 48.8676 1541.47 48.9557C1541.59 49.0438 1541.79 49.0438 1542.06 48.9557V49.501C1542 49.545 1541.89 49.5836 1541.72 49.6166C1541.56 49.6497 1541.39 49.6387 1541.2 49.5836C1541.01 49.5285 1540.84 49.4018 1540.71 49.2036C1540.57 49.0053 1540.5 48.7023 1540.5 48.2948C1540.5 47.6559 1540.48 47.1436 1540.42 46.7581C1540.37 46.3725 1540.27 46.0806 1540.1 45.8823C1539.94 45.6841 1539.69 45.5464 1539.34 45.4693C1538.99 45.3921 1538.52 45.3536 1537.93 45.3536C1537.36 45.3536 1536.63 45.3591 1535.73 45.3701V49.4679H1534.96ZM1535.73 44.7587H1538.22C1538.84 44.7587 1539.35 44.7037 1539.74 44.5935C1540.15 44.4723 1540.45 44.2741 1540.64 43.9987C1540.84 43.7123 1540.94 43.3157 1540.94 42.809C1540.94 42.2252 1540.82 41.7955 1540.57 41.5202C1540.32 41.2338 1539.97 41.0465 1539.51 40.9584C1539.04 40.8702 1538.48 40.8262 1537.81 40.8262H1535.73V44.7587Z" fill="white"/>
<path d="M1425.16 36.065C1419.31 36.065 1414.84 34.4513 1411.75 31.2237C1408.66 27.9961 1407.11 23.6422 1407.11 18.1619C1407.11 14.5488 1407.78 11.4134 1409.11 8.75317C1410.45 6.09428 1412.46 4.02472 1415.13 2.54174C1417.8 1.06014 1421.15 0.319336 1425.16 0.319336C1431.01 0.319336 1435.46 1.93312 1438.51 5.1607C1441.56 8.38828 1443.09 12.7229 1443.09 18.1619C1443.09 21.6938 1442.41 24.8098 1441.05 27.5087C1439.69 30.2089 1437.69 32.3101 1435.03 33.811C1432.38 35.3118 1429.09 36.0637 1425.16 36.0637L1425.16 36.065ZM1425.03 27.8446C1427.17 27.8446 1428.93 27.4095 1430.33 26.5351C1431.73 25.6622 1432.77 24.4862 1433.46 23.0033C1434.15 21.5217 1434.5 19.9079 1434.5 18.1619C1434.5 16.4159 1434.15 14.7319 1433.46 13.2296C1432.78 11.7288 1431.73 10.5308 1430.33 9.63718C1428.93 8.74491 1427.17 8.2974 1425.03 8.2974C1421.98 8.2974 1419.65 9.23098 1418.05 11.0981C1416.44 12.9653 1415.63 15.3212 1415.63 18.1619C1415.63 19.8666 1415.98 21.4611 1416.67 22.9427C1417.36 24.4257 1418.39 25.6126 1419.77 26.5049C1421.15 27.3985 1422.9 27.8446 1425.03 27.8446Z" fill="url(#paint42_linear_4847_15703)"/>
<path d="M1456.42 35.5034C1453.08 35.5034 1450.03 34.8548 1447.27 33.555C1444.52 32.2565 1442.32 30.3081 1440.69 27.7084C1439.06 25.1115 1438.27 21.8839 1438.31 18.0257C1438.35 14.2501 1439.18 11.0129 1440.79 8.31267C1442.39 5.61384 1444.58 3.55392 1447.34 2.13152C1450.09 0.710508 1453.19 0 1456.61 0C1460.04 0 1463.15 0.619629 1465.57 1.85751C1468 3.09677 1469.89 4.7202 1471.25 6.72917C1472.6 8.73814 1473.47 10.9 1473.85 13.2146H1464.82C1464.61 11.6724 1464.02 10.5351 1463.04 9.80391C1462.06 9.07274 1460.97 8.59632 1459.78 8.37325C1458.59 8.15019 1457.53 8.03865 1456.61 8.03865C1453.35 8.03865 1450.93 8.86069 1449.34 10.5048C1447.75 12.1489 1446.96 14.4318 1446.96 17.3551C1446.96 20.562 1447.73 23.0598 1449.28 24.8457C1450.82 26.633 1453.25 27.5253 1456.55 27.5253C1457.51 27.5253 1458.6 27.3945 1459.81 27.1287C1461.02 26.8657 1462.12 26.3273 1463.1 25.5149C1464.08 24.7039 1464.68 23.4853 1464.89 21.8619H1473.97C1473.56 24.2578 1472.66 26.5008 1471.28 28.5911C1469.9 30.6826 1467.99 32.357 1465.54 33.6142C1463.1 34.8727 1460.06 35.502 1456.43 35.502L1456.42 35.5034Z" fill="url(#paint43_linear_4847_15703)"/>
<path d="M1470.27 35.3619V1.07715H1478.98V35.3605H1470.27V35.3619ZM1478.86 25.0706V15.7541L1491.64 1.07715H1503.05V1.8689L1478.85 25.0692L1478.86 25.0706ZM1493.84 35.3619L1482.12 17.9462L1488.45 11.9179L1503.8 34.5715V35.3633H1493.84L1493.84 35.3619Z" fill="url(#paint44_linear_4847_15703)"/>
<path d="M1500.4 35.3619V1.07715H1527.1V8.32405H1508.99V14.5961H1522.46V21.4161H1508.99V28.6011H1527.79V35.3605H1500.4L1500.4 35.3619Z" fill="url(#paint45_linear_4847_15703)"/>
<path d="M1523.57 8.32405V1.07715H1551.46V8.32405H1523.57ZM1541.88 2.1732V35.3605H1533.1V2.1732H1541.88Z" fill="url(#paint46_linear_4847_15703)"/>
<path d="M1383.78 35.6195V0.0927734H1398.47C1401.63 0.0927734 1404.35 0.450781 1406.61 1.16542C1408.88 1.88144 1410.63 3.01742 1411.87 4.57338C1413.11 6.13072 1413.73 8.21267 1413.73 10.8206C1413.73 12.9659 1413.41 14.7862 1412.77 16.2789C1412.13 17.7729 1411.21 18.9199 1410.01 19.7185C1408.81 20.5185 1407.4 20.9178 1405.78 20.9178C1406.8 20.9178 1407.61 21.1175 1408.18 21.5168C1408.76 21.9175 1409.21 22.4421 1409.53 23.0948C1409.85 23.7475 1410.1 24.4304 1410.27 25.1451C1410.44 25.8611 1410.61 26.5551 1410.78 27.227C1410.95 27.9003 1411.2 28.469 1411.52 28.9303C1411.84 29.3943 1412.32 29.667 1412.96 29.751C1413.6 29.8363 1414.46 29.667 1415.53 29.2456V34.0416C1414.33 35.0509 1413 35.7132 1411.55 36.0299C1410.1 36.3452 1408.72 36.2612 1407.41 35.7779C1406.11 35.2946 1405.03 34.3693 1404.18 33.002C1403.32 31.636 1402.89 29.7744 1402.89 27.417C1402.89 26.6184 1402.85 25.8707 1402.76 25.1767C1402.68 24.4827 1402.46 23.8728 1402.12 23.3468C1401.78 22.8208 1401.25 22.3898 1400.52 22.0538C1399.79 21.7178 1398.81 21.5072 1397.57 21.4232C1396.33 21.3392 1394.73 21.3818 1392.76 21.5498V35.6209H1383.78L1383.78 35.6195ZM1392.76 15.3632H1397.25C1399.22 15.3632 1400.82 15.3425 1402.06 15.2998C1403.3 15.2585 1404.23 14.9749 1404.85 14.4475C1405.47 13.9215 1405.78 12.9645 1405.78 11.5766C1405.78 10.0206 1405.41 8.93695 1404.66 8.32696C1403.91 7.71697 1402.82 7.36997 1401.39 7.28598C1399.95 7.20198 1398.19 7.1593 1396.1 7.1593H1392.76V15.3632H1392.76Z" fill="url(#paint47_linear_4847_15703)"/>
<path d="M1649.05 49.6332C1648.82 49.6332 1648.57 49.5946 1648.27 49.5175C1647.98 49.4514 1647.69 49.3357 1647.41 49.1705C1647.14 49.0053 1646.91 48.7629 1646.73 48.4435C1646.55 48.124 1646.46 47.7164 1646.46 47.2207H1647.17C1647.17 47.4741 1647.22 47.7385 1647.33 48.0139C1647.43 48.2782 1647.61 48.5041 1647.88 48.6913C1648.17 48.8786 1648.55 48.9722 1649.05 48.9722C1649.67 48.9722 1650.13 48.8125 1650.42 48.493C1650.72 48.1736 1650.88 47.6448 1650.88 46.9068V40.4627H1651.64V46.8407C1651.64 47.2813 1651.59 47.6779 1651.49 48.0304C1651.38 48.3719 1651.23 48.6638 1651.01 48.9061C1650.81 49.1485 1650.54 49.3302 1650.22 49.4514C1649.9 49.5726 1649.51 49.6332 1649.05 49.6332ZM1649.03 40.8096V40.1818H1651.64V40.8096H1649.03ZM1666.25 49.6993C1665.02 49.6993 1664.07 49.3357 1663.39 48.6087C1662.72 47.8707 1662.38 46.8352 1662.38 45.5023V40.1652H1663.16V45.5023C1663.16 46.0861 1663.23 46.5984 1663.38 47.039C1663.52 47.4686 1663.73 47.8321 1664 48.1295C1664.27 48.4159 1664.6 48.6307 1664.98 48.7739C1665.37 48.9171 1665.79 48.9887 1666.25 48.9887C1666.93 48.9887 1667.49 48.8621 1667.94 48.6087C1668.4 48.3554 1668.75 47.9698 1668.99 47.4521C1669.24 46.9343 1669.36 46.2844 1669.36 45.5023V40.1652H1670.12V45.5023C1670.12 46.8572 1669.79 47.8982 1669.13 48.6252C1668.47 49.3413 1667.51 49.6993 1666.25 49.6993ZM1687.77 40.1652H1688.53V49.4679H1687.11L1681.63 40.5122H1681.6V49.4679H1680.84V40.1652H1682.17L1687.73 49.1209H1687.77V40.1652ZM1700.61 49.1705V40.4627H1701.37V49.1705H1700.61ZM1699.27 49.4679V48.807H1702.69V49.4679H1699.27ZM1699.27 40.8427V40.1652H1702.69V40.8427H1699.27ZM1717.54 49.6993C1716.06 49.6993 1714.92 49.2641 1714.14 48.3939C1713.37 47.5127 1712.98 46.3285 1712.98 44.8414C1712.98 43.861 1713.15 43.0128 1713.48 42.2968C1713.82 41.5697 1714.33 41.0079 1715.01 40.6114C1715.68 40.2038 1716.53 40 1717.54 40C1719.03 40 1720.16 40.4406 1720.93 41.3219C1721.7 42.1921 1722.09 43.3653 1722.09 44.8414C1722.09 45.7997 1721.92 46.6479 1721.57 47.386C1721.23 48.113 1720.72 48.6803 1720.05 49.0879C1719.38 49.4955 1718.55 49.6993 1717.54 49.6993ZM1717.54 48.9887C1718.39 48.9887 1719.09 48.818 1719.64 48.4765C1720.2 48.124 1720.63 47.6393 1720.91 47.0225C1721.2 46.3946 1721.35 45.6675 1721.35 44.8414C1721.35 44.0042 1721.21 43.2771 1720.93 42.6603C1720.66 42.0434 1720.23 41.5642 1719.66 41.2227C1719.09 40.8813 1718.39 40.7105 1717.54 40.7105C1716.29 40.7105 1715.35 41.074 1714.7 41.8011C1714.06 42.5281 1713.74 43.5415 1713.74 44.8414C1713.74 45.6565 1713.87 46.378 1714.14 47.0059C1714.41 47.6228 1714.83 48.1075 1715.4 48.46C1715.97 48.8125 1716.69 48.9887 1717.54 48.9887ZM1732.64 49.4679V40.1652H1735.6C1736.4 40.1652 1737.07 40.2423 1737.63 40.3966C1738.18 40.5508 1738.6 40.8152 1738.88 41.1897C1739.17 41.5642 1739.32 42.093 1739.32 42.7759C1739.32 43.1945 1739.24 43.5856 1739.08 43.9491C1738.92 44.3126 1738.68 44.61 1738.34 44.8414C1738.01 45.0617 1737.58 45.1718 1737.05 45.1718C1737.49 45.1718 1737.84 45.2545 1738.08 45.4197C1738.33 45.5739 1738.51 45.7777 1738.61 46.0311C1738.72 46.2844 1738.79 46.5598 1738.81 46.8572C1738.85 47.1547 1738.86 47.4466 1738.86 47.733C1738.86 48.0194 1738.88 48.2727 1738.91 48.493C1738.95 48.7134 1739.03 48.8676 1739.15 48.9557C1739.27 49.0438 1739.47 49.0438 1739.74 48.9557V49.501C1739.68 49.545 1739.57 49.5836 1739.4 49.6166C1739.25 49.6497 1739.07 49.6387 1738.88 49.5836C1738.69 49.5285 1738.52 49.4018 1738.39 49.2036C1738.25 49.0053 1738.19 48.7023 1738.19 48.2948C1738.19 47.6559 1738.16 47.1436 1738.1 46.7581C1738.06 46.3725 1737.95 46.0806 1737.78 45.8823C1737.62 45.6841 1737.37 45.5464 1737.02 45.4693C1736.67 45.3921 1736.2 45.3536 1735.61 45.3536C1735.04 45.3536 1734.31 45.3591 1733.42 45.3701V49.4679H1732.64ZM1733.42 44.7587H1735.9C1736.52 44.7587 1737.03 44.7037 1737.42 44.5935C1737.83 44.4723 1738.13 44.2741 1738.32 43.9987C1738.52 43.7123 1738.63 43.3157 1738.63 42.809C1738.63 42.2252 1738.5 41.7955 1738.25 41.5202C1738.01 41.2338 1737.65 41.0465 1737.19 40.9584C1736.73 40.8702 1736.16 40.8262 1735.5 40.8262H1733.42V44.7587Z" fill="white"/>
<path d="M1622.84 36.065C1616.99 36.065 1612.52 34.4513 1609.43 31.2237C1606.34 27.9961 1604.79 23.6422 1604.79 18.1619C1604.79 14.5488 1605.46 11.4134 1606.8 8.75317C1608.13 6.09428 1610.14 4.02472 1612.81 2.54174C1615.49 1.06014 1618.83 0.319336 1622.84 0.319336C1628.69 0.319336 1633.14 1.93312 1636.19 5.1607C1639.24 8.38828 1640.77 12.7229 1640.77 18.1619C1640.77 21.6938 1640.09 24.8098 1638.73 27.5087C1637.37 30.2089 1635.37 32.3101 1632.71 33.811C1630.06 35.3118 1626.77 36.0637 1622.84 36.0637L1622.84 36.065ZM1622.72 27.8446C1624.85 27.8446 1626.61 27.4095 1628.01 26.5351C1629.41 25.6622 1630.46 24.4862 1631.15 23.0033C1631.84 21.5217 1632.18 19.9079 1632.18 18.1619C1632.18 16.4159 1631.84 14.7319 1631.15 13.2296C1630.46 11.7288 1629.41 10.5308 1628.01 9.63718C1626.61 8.74491 1624.85 8.2974 1622.72 8.2974C1619.66 8.2974 1617.34 9.23098 1615.73 11.0981C1614.12 12.9653 1613.31 15.3212 1613.31 18.1619C1613.31 19.8666 1613.66 21.4611 1614.35 22.9427C1615.04 24.4257 1616.07 25.6126 1617.45 26.5049C1618.83 27.3985 1620.58 27.8446 1622.72 27.8446Z" fill="url(#paint48_linear_4847_15703)"/>
<path d="M1654.11 35.5034C1650.76 35.5034 1647.71 34.8548 1644.95 33.555C1642.2 32.2565 1640 30.3081 1638.37 27.7084C1636.74 25.1115 1635.95 21.8839 1635.99 18.0257C1636.03 14.2501 1636.86 11.0129 1638.47 8.31267C1640.08 5.61384 1642.26 3.55392 1645.02 2.13152C1647.77 0.710508 1650.87 0 1654.29 0C1657.72 0 1660.83 0.619629 1663.26 1.85751C1665.68 3.09677 1667.57 4.7202 1668.93 6.72917C1670.29 8.73814 1671.15 10.9 1671.53 13.2146H1662.5C1662.29 11.6724 1661.7 10.5351 1660.72 9.80391C1659.74 9.07274 1658.65 8.59632 1657.46 8.37325C1656.27 8.15019 1655.21 8.03865 1654.29 8.03865C1651.03 8.03865 1648.61 8.86069 1647.02 10.5048C1645.44 12.1489 1644.64 14.4318 1644.64 17.3551C1644.64 20.562 1645.41 23.0598 1646.96 24.8457C1648.51 26.633 1650.93 27.5253 1654.23 27.5253C1655.19 27.5253 1656.28 27.3945 1657.49 27.1287C1658.7 26.8657 1659.8 26.3273 1660.78 25.5149C1661.76 24.7039 1662.36 23.4853 1662.57 21.8619H1671.66C1671.24 24.2578 1670.34 26.5008 1668.96 28.5911C1667.58 30.6826 1665.67 32.357 1663.23 33.6142C1660.78 34.8727 1657.74 35.502 1654.11 35.502L1654.11 35.5034Z" fill="url(#paint49_linear_4847_15703)"/>
<path d="M1667.95 35.3619V1.07715H1676.66V35.3605H1667.95V35.3619ZM1676.54 25.0706V15.7541L1689.32 1.07715H1700.73V1.8689L1676.54 25.0692L1676.54 25.0706ZM1691.52 35.3619L1679.8 17.9462L1686.13 11.9179L1701.48 34.5715V35.3633H1691.52L1691.52 35.3619Z" fill="url(#paint50_linear_4847_15703)"/>
<path d="M1698.08 35.3619V1.07715H1724.78V8.32405H1706.67V14.5961H1720.14V21.4161H1706.67V28.6011H1725.47V35.3605H1698.08L1698.08 35.3619Z" fill="url(#paint51_linear_4847_15703)"/>
<path d="M1721.26 8.32405V1.07715H1749.15V8.32405H1721.26ZM1739.56 2.1732V35.3605H1730.78V2.1732H1739.56Z" fill="url(#paint52_linear_4847_15703)"/>
<path d="M1581.46 35.6195V0.0927734H1596.15C1599.31 0.0927734 1602.03 0.450781 1604.29 1.16542C1606.56 1.88144 1608.31 3.01742 1609.55 4.57338C1610.79 6.13072 1611.41 8.21267 1611.41 10.8206C1611.41 12.9659 1611.09 14.7862 1610.45 16.2789C1609.81 17.7729 1608.89 18.9199 1607.69 19.7185C1606.49 20.5185 1605.08 20.9178 1603.46 20.9178C1604.49 20.9178 1605.29 21.1175 1605.86 21.5168C1606.44 21.9175 1606.89 22.4421 1607.21 23.0948C1607.53 23.7475 1607.78 24.4304 1607.95 25.1451C1608.12 25.8611 1608.29 26.5551 1608.46 27.227C1608.63 27.9003 1608.88 28.469 1609.2 28.9303C1609.52 29.3943 1610 29.667 1610.64 29.751C1611.28 29.8363 1612.14 29.667 1613.21 29.2456V34.0416C1612.01 35.0509 1610.68 35.7132 1609.23 36.0299C1607.78 36.3452 1606.4 36.2612 1605.1 35.7779C1603.79 35.2946 1602.71 34.3693 1601.86 33.002C1601 31.636 1600.57 29.7744 1600.57 27.417C1600.57 26.6184 1600.53 25.8707 1600.45 25.1767C1600.36 24.4827 1600.15 23.8728 1599.8 23.3468C1599.46 22.8208 1598.93 22.3898 1598.2 22.0538C1597.47 21.7178 1596.49 21.5072 1595.25 21.4232C1594.01 21.3392 1592.41 21.3818 1590.44 21.5498V35.6209H1581.46L1581.46 35.6195ZM1590.44 15.3632H1594.93C1596.9 15.3632 1598.5 15.3425 1599.74 15.2998C1600.98 15.2585 1601.91 14.9749 1602.53 14.4475C1603.15 13.9215 1603.46 12.9645 1603.46 11.5766C1603.46 10.0206 1603.09 8.93695 1602.34 8.32696C1601.59 7.71697 1600.5 7.36997 1599.07 7.28598C1597.64 7.20198 1595.87 7.1593 1593.78 7.1593H1590.44V15.3632H1590.44Z" fill="url(#paint53_linear_4847_15703)"/>
</g>
</g>
<defs>
<linearGradient id="paint0_linear_4847_15703" x1="23.3267" y1="18.1922" x2="59.3032" y2="18.1922" gradientUnits="userSpaceOnUse">
<stop stop-color="#E30613"/>
<stop offset="1" stop-color="#BE1622"/>
</linearGradient>
<linearGradient id="paint1_linear_4847_15703" x1="54.5275" y1="17.7517" x2="90.1912" y2="17.7517" gradientUnits="userSpaceOnUse">
<stop stop-color="#E30613"/>
<stop offset="1" stop-color="#BE1622"/>
</linearGradient>
<linearGradient id="paint2_linear_4847_15703" x1="86.4883" y1="18.2202" x2="120.02" y2="18.2202" gradientUnits="userSpaceOnUse">
<stop stop-color="#E30613"/>
<stop offset="1" stop-color="#BE1622"/>
</linearGradient>
<linearGradient id="paint3_linear_4847_15703" x1="116.619" y1="18.2202" x2="144.007" y2="18.2202" gradientUnits="userSpaceOnUse">
<stop stop-color="#E30613"/>
<stop offset="1" stop-color="#BE1622"/>
</linearGradient>
<linearGradient id="paint4_linear_4847_15703" x1="139.793" y1="18.2202" x2="167.683" y2="18.2202" gradientUnits="userSpaceOnUse">
<stop stop-color="#E30613"/>
<stop offset="1" stop-color="#BE1622"/>
</linearGradient>
<linearGradient id="paint5_linear_4847_15703" x1="0.0014093" y1="18.1543" x2="31.7472" y2="18.1543" gradientUnits="userSpaceOnUse">
<stop stop-color="#E30613"/>
<stop offset="1" stop-color="#BE1622"/>
</linearGradient>
<linearGradient id="paint6_linear_4847_15703" x1="221.01" y1="18.1922" x2="256.987" y2="18.1922" gradientUnits="userSpaceOnUse">
<stop stop-color="#E30613"/>
<stop offset="1" stop-color="#BE1622"/>
</linearGradient>
<linearGradient id="paint7_linear_4847_15703" x1="252.211" y1="17.7517" x2="287.875" y2="17.7517" gradientUnits="userSpaceOnUse">
<stop stop-color="#E30613"/>
<stop offset="1" stop-color="#BE1622"/>
</linearGradient>
<linearGradient id="paint8_linear_4847_15703" x1="284.172" y1="18.2202" x2="317.703" y2="18.2202" gradientUnits="userSpaceOnUse">
<stop stop-color="#E30613"/>
<stop offset="1" stop-color="#BE1622"/>
</linearGradient>
<linearGradient id="paint9_linear_4847_15703" x1="314.302" y1="18.2202" x2="341.69" y2="18.2202" gradientUnits="userSpaceOnUse">
<stop stop-color="#E30613"/>
<stop offset="1" stop-color="#BE1622"/>
</linearGradient>
<linearGradient id="paint10_linear_4847_15703" x1="337.477" y1="18.2202" x2="365.367" y2="18.2202" gradientUnits="userSpaceOnUse">
<stop stop-color="#E30613"/>
<stop offset="1" stop-color="#BE1622"/>
</linearGradient>
<linearGradient id="paint11_linear_4847_15703" x1="197.685" y1="18.1543" x2="229.431" y2="18.1543" gradientUnits="userSpaceOnUse">
<stop stop-color="#E30613"/>
<stop offset="1" stop-color="#BE1622"/>
</linearGradient>
<linearGradient id="paint12_linear_4847_15703" x1="418.692" y1="18.1922" x2="454.668" y2="18.1922" gradientUnits="userSpaceOnUse">
<stop stop-color="#E30613"/>
<stop offset="1" stop-color="#BE1622"/>
</linearGradient>
<linearGradient id="paint13_linear_4847_15703" x1="449.893" y1="17.7517" x2="485.556" y2="17.7517" gradientUnits="userSpaceOnUse">
<stop stop-color="#E30613"/>
<stop offset="1" stop-color="#BE1622"/>
</linearGradient>
<linearGradient id="paint14_linear_4847_15703" x1="481.854" y1="18.2202" x2="515.385" y2="18.2202" gradientUnits="userSpaceOnUse">
<stop stop-color="#E30613"/>
<stop offset="1" stop-color="#BE1622"/>
</linearGradient>
<linearGradient id="paint15_linear_4847_15703" x1="511.984" y1="18.2202" x2="539.372" y2="18.2202" gradientUnits="userSpaceOnUse">
<stop stop-color="#E30613"/>
<stop offset="1" stop-color="#BE1622"/>
</linearGradient>
<linearGradient id="paint16_linear_4847_15703" x1="535.158" y1="18.2202" x2="563.048" y2="18.2202" gradientUnits="userSpaceOnUse">
<stop stop-color="#E30613"/>
<stop offset="1" stop-color="#BE1622"/>
</linearGradient>
<linearGradient id="paint17_linear_4847_15703" x1="395.367" y1="18.1543" x2="427.112" y2="18.1543" gradientUnits="userSpaceOnUse">
<stop stop-color="#E30613"/>
<stop offset="1" stop-color="#BE1622"/>
</linearGradient>
<linearGradient id="paint18_linear_4847_15703" x1="616.376" y1="18.1922" x2="652.352" y2="18.1922" gradientUnits="userSpaceOnUse">
<stop stop-color="#E30613"/>
<stop offset="1" stop-color="#BE1622"/>
</linearGradient>
<linearGradient id="paint19_linear_4847_15703" x1="647.576" y1="17.7517" x2="683.24" y2="17.7517" gradientUnits="userSpaceOnUse">
<stop stop-color="#E30613"/>
<stop offset="1" stop-color="#BE1622"/>
</linearGradient>
<linearGradient id="paint20_linear_4847_15703" x1="679.537" y1="18.2202" x2="713.068" y2="18.2202" gradientUnits="userSpaceOnUse">
<stop stop-color="#E30613"/>
<stop offset="1" stop-color="#BE1622"/>
</linearGradient>
<linearGradient id="paint21_linear_4847_15703" x1="709.667" y1="18.2202" x2="737.056" y2="18.2202" gradientUnits="userSpaceOnUse">
<stop stop-color="#E30613"/>
<stop offset="1" stop-color="#BE1622"/>
</linearGradient>
<linearGradient id="paint22_linear_4847_15703" x1="732.842" y1="18.2202" x2="760.732" y2="18.2202" gradientUnits="userSpaceOnUse">
<stop stop-color="#E30613"/>
<stop offset="1" stop-color="#BE1622"/>
</linearGradient>
<linearGradient id="paint23_linear_4847_15703" x1="593.05" y1="18.1543" x2="624.796" y2="18.1543" gradientUnits="userSpaceOnUse">
<stop stop-color="#E30613"/>
<stop offset="1" stop-color="#BE1622"/>
</linearGradient>
<linearGradient id="paint24_linear_4847_15703" x1="814.059" y1="18.1922" x2="850.036" y2="18.1922" gradientUnits="userSpaceOnUse">
<stop stop-color="#E30613"/>
<stop offset="1" stop-color="#BE1622"/>
</linearGradient>
<linearGradient id="paint25_linear_4847_15703" x1="845.26" y1="17.7517" x2="880.924" y2="17.7517" gradientUnits="userSpaceOnUse">
<stop stop-color="#E30613"/>
<stop offset="1" stop-color="#BE1622"/>
</linearGradient>
<linearGradient id="paint26_linear_4847_15703" x1="877.221" y1="18.2202" x2="910.752" y2="18.2202" gradientUnits="userSpaceOnUse">
<stop stop-color="#E30613"/>
<stop offset="1" stop-color="#BE1622"/>
</linearGradient>
<linearGradient id="paint27_linear_4847_15703" x1="907.351" y1="18.2202" x2="934.739" y2="18.2202" gradientUnits="userSpaceOnUse">
<stop stop-color="#E30613"/>
<stop offset="1" stop-color="#BE1622"/>
</linearGradient>
<linearGradient id="paint28_linear_4847_15703" x1="930.525" y1="18.2202" x2="958.415" y2="18.2202" gradientUnits="userSpaceOnUse">
<stop stop-color="#E30613"/>
<stop offset="1" stop-color="#BE1622"/>
</linearGradient>
<linearGradient id="paint29_linear_4847_15703" x1="790.734" y1="18.1543" x2="822.48" y2="18.1543" gradientUnits="userSpaceOnUse">
<stop stop-color="#E30613"/>
<stop offset="1" stop-color="#BE1622"/>
</linearGradient>
<linearGradient id="paint30_linear_4847_15703" x1="1011.74" y1="18.1922" x2="1047.72" y2="18.1922" gradientUnits="userSpaceOnUse">
<stop stop-color="#E30613"/>
<stop offset="1" stop-color="#BE1622"/>
</linearGradient>
<linearGradient id="paint31_linear_4847_15703" x1="1042.94" y1="17.7517" x2="1078.61" y2="17.7517" gradientUnits="userSpaceOnUse">
<stop stop-color="#E30613"/>
<stop offset="1" stop-color="#BE1622"/>
</linearGradient>
<linearGradient id="paint32_linear_4847_15703" x1="1074.9" y1="18.2202" x2="1108.43" y2="18.2202" gradientUnits="userSpaceOnUse">
<stop stop-color="#E30613"/>
<stop offset="1" stop-color="#BE1622"/>
</linearGradient>
<linearGradient id="paint33_linear_4847_15703" x1="1105.03" y1="18.2202" x2="1132.42" y2="18.2202" gradientUnits="userSpaceOnUse">
<stop stop-color="#E30613"/>
<stop offset="1" stop-color="#BE1622"/>
</linearGradient>
<linearGradient id="paint34_linear_4847_15703" x1="1128.21" y1="18.2202" x2="1156.1" y2="18.2202" gradientUnits="userSpaceOnUse">
<stop stop-color="#E30613"/>
<stop offset="1" stop-color="#BE1622"/>
</linearGradient>
<linearGradient id="paint35_linear_4847_15703" x1="988.415" y1="18.1543" x2="1020.16" y2="18.1543" gradientUnits="userSpaceOnUse">
<stop stop-color="#E30613"/>
<stop offset="1" stop-color="#BE1622"/>
</linearGradient>
<linearGradient id="paint36_linear_4847_15703" x1="1209.42" y1="18.1922" x2="1245.4" y2="18.1922" gradientUnits="userSpaceOnUse">
<stop stop-color="#E30613"/>
<stop offset="1" stop-color="#BE1622"/>
</linearGradient>
<linearGradient id="paint37_linear_4847_15703" x1="1240.63" y1="17.7517" x2="1276.29" y2="17.7517" gradientUnits="userSpaceOnUse">
<stop stop-color="#E30613"/>
<stop offset="1" stop-color="#BE1622"/>
</linearGradient>
<linearGradient id="paint38_linear_4847_15703" x1="1272.59" y1="18.2202" x2="1306.12" y2="18.2202" gradientUnits="userSpaceOnUse">
<stop stop-color="#E30613"/>
<stop offset="1" stop-color="#BE1622"/>
</linearGradient>
<linearGradient id="paint39_linear_4847_15703" x1="1302.72" y1="18.2202" x2="1330.1" y2="18.2202" gradientUnits="userSpaceOnUse">
<stop stop-color="#E30613"/>
<stop offset="1" stop-color="#BE1622"/>
</linearGradient>
<linearGradient id="paint40_linear_4847_15703" x1="1325.89" y1="18.2202" x2="1353.78" y2="18.2202" gradientUnits="userSpaceOnUse">
<stop stop-color="#E30613"/>
<stop offset="1" stop-color="#BE1622"/>
</linearGradient>
<linearGradient id="paint41_linear_4847_15703" x1="1186.1" y1="18.1543" x2="1217.84" y2="18.1543" gradientUnits="userSpaceOnUse">
<stop stop-color="#E30613"/>
<stop offset="1" stop-color="#BE1622"/>
</linearGradient>
<linearGradient id="paint42_linear_4847_15703" x1="1407.11" y1="18.1922" x2="1443.08" y2="18.1922" gradientUnits="userSpaceOnUse">
<stop stop-color="#E30613"/>
<stop offset="1" stop-color="#BE1622"/>
</linearGradient>
<linearGradient id="paint43_linear_4847_15703" x1="1438.31" y1="17.7517" x2="1473.97" y2="17.7517" gradientUnits="userSpaceOnUse">
<stop stop-color="#E30613"/>
<stop offset="1" stop-color="#BE1622"/>
</linearGradient>
<linearGradient id="paint44_linear_4847_15703" x1="1470.27" y1="18.2202" x2="1503.8" y2="18.2202" gradientUnits="userSpaceOnUse">
<stop stop-color="#E30613"/>
<stop offset="1" stop-color="#BE1622"/>
</linearGradient>
<linearGradient id="paint45_linear_4847_15703" x1="1500.4" y1="18.2202" x2="1527.79" y2="18.2202" gradientUnits="userSpaceOnUse">
<stop stop-color="#E30613"/>
<stop offset="1" stop-color="#BE1622"/>
</linearGradient>
<linearGradient id="paint46_linear_4847_15703" x1="1523.57" y1="18.2202" x2="1551.46" y2="18.2202" gradientUnits="userSpaceOnUse">
<stop stop-color="#E30613"/>
<stop offset="1" stop-color="#BE1622"/>
</linearGradient>
<linearGradient id="paint47_linear_4847_15703" x1="1383.78" y1="18.1543" x2="1415.53" y2="18.1543" gradientUnits="userSpaceOnUse">
<stop stop-color="#E30613"/>
<stop offset="1" stop-color="#BE1622"/>
</linearGradient>
<linearGradient id="paint48_linear_4847_15703" x1="1604.79" y1="18.1922" x2="1640.77" y2="18.1922" gradientUnits="userSpaceOnUse">
<stop stop-color="#E30613"/>
<stop offset="1" stop-color="#BE1622"/>
</linearGradient>
<linearGradient id="paint49_linear_4847_15703" x1="1635.99" y1="17.7517" x2="1671.65" y2="17.7517" gradientUnits="userSpaceOnUse">
<stop stop-color="#E30613"/>
<stop offset="1" stop-color="#BE1622"/>
</linearGradient>
<linearGradient id="paint50_linear_4847_15703" x1="1667.95" y1="18.2202" x2="1701.48" y2="18.2202" gradientUnits="userSpaceOnUse">
<stop stop-color="#E30613"/>
<stop offset="1" stop-color="#BE1622"/>
</linearGradient>
<linearGradient id="paint51_linear_4847_15703" x1="1698.08" y1="18.2202" x2="1725.47" y2="18.2202" gradientUnits="userSpaceOnUse">
<stop stop-color="#E30613"/>
<stop offset="1" stop-color="#BE1622"/>
</linearGradient>
<linearGradient id="paint52_linear_4847_15703" x1="1721.26" y1="18.2202" x2="1749.15" y2="18.2202" gradientUnits="userSpaceOnUse">
<stop stop-color="#E30613"/>
<stop offset="1" stop-color="#BE1622"/>
</linearGradient>
<linearGradient id="paint53_linear_4847_15703" x1="1581.46" y1="18.1543" x2="1613.21" y2="18.1543" gradientUnits="userSpaceOnUse">
<stop stop-color="#E30613"/>
<stop offset="1" stop-color="#BE1622"/>
</linearGradient>
<clipPath id="clip0_4847_15703">
<rect width="1728" height="50" fill="white"/>
</clipPath>
<clipPath id="clip1_4847_15703">
<rect width="1728" height="50" fill="white"/>
</clipPath>
</defs>
</svg>
