<svg width="420" height="38" viewBox="0 0 420 38" fill="none" xmlns="http://www.w3.org/2000/svg">
<path d="M59.2967 30.2299C57.7883 30.894 56.3355 31.5244 54.0691 32.1386C44.2711 34.7909 31.5074 33.7917 31.5074 33.7917C31.4066 32.0181 31.2818 30.2093 31.1314 28.3652C30.9765 26.4638 30.799 24.6035 30.6035 22.7874C31.172 22.5611 32.2262 22.1584 33.7903 21.5707C37.5712 20.163 41.337 19.396 41.913 19.2799C43.6274 18.9361 46.2412 18.4247 49.6867 18.3351C53.439 18.2366 56.2032 18.6921 57.1777 18.8626C58.2425 19.0492 61.4458 19.6634 64.7785 21.6427C66.3125 22.5537 67.0268 23.2517 67.0569 24.0775C67.084 24.8607 66.4869 25.5307 65.2642 26.524C62.6173 28.6782 60.1148 29.8699 59.2952 30.2299H59.2967Z" fill="url(#paint0_linear_5036_15664)"/>
<path d="M41.8777 32.9462C41.2836 32.9815 40.4565 33.005 39.4639 32.9565C39.321 32.9491 39.1466 32.9388 38.9315 32.9242C37.3855 32.8125 32.6542 32.329 31.4104 32.2027C31.3668 31.562 31.3067 30.7098 31.227 29.7047C31.1743 29.0391 31.1051 28.2191 30.9653 26.5793C30.9006 25.8225 30.8405 25.1216 30.7472 24.1871C30.7216 23.9314 30.7006 23.7198 30.6855 23.5744C30.6855 23.5744 36.5117 20.9133 43.2688 20.111C44.3261 19.9861 46.4646 19.7804 49.1702 19.9391C54.0263 20.2256 56.5649 21.4467 57.4582 21.9169C59.1471 22.8044 60.2615 23.3907 60.4179 24.4149C60.7759 26.7512 55.828 29.233 54.3151 29.9912C52.96 30.6716 48.516 32.7508 41.8762 32.9462H41.8777Z" fill="url(#paint1_linear_5036_15664)" stroke="white" stroke-width="1.25389" stroke-miterlimit="10"/>
<path d="M52.2081 27.8522C53.6314 27.3174 54.3498 25.7779 53.8128 24.4137C53.2757 23.0496 51.6866 22.3774 50.2633 22.9124C48.8399 23.4472 48.1215 24.9867 48.6586 26.3509C49.1956 27.715 50.7848 28.3872 52.2081 27.8522Z" fill="url(#paint2_linear_5036_15664)" stroke="white" stroke-width="2.50778" stroke-miterlimit="10"/>
<path opacity="0.99" d="M29.5161 31.1464C29.3597 29.0907 29.2033 27.035 29.0469 24.9793C29.6334 24.7868 30.2214 24.5943 30.808 24.4019C30.9358 25.789 31.0576 27.1893 31.1734 28.5999C31.2471 29.5021 31.3178 30.4 31.384 31.2948C30.7613 31.2463 30.1387 31.1964 29.5146 31.1479L29.5161 31.1464Z" fill="url(#paint3_linear_5036_15664)" stroke="#C6C6C6" stroke-width="0.626944" stroke-miterlimit="10"/>
<path d="M29.3965 25.6508L29.3499 25.307C29.3318 25.1791 29.4266 25.0586 29.5604 25.041L30.35 24.9323C30.4838 24.9132 30.6056 25.0028 30.6237 25.1321L30.6703 25.4759C30.6883 25.6038 30.5936 25.7243 30.4598 25.7419L29.6702 25.8506C29.5363 25.8697 29.4145 25.7801 29.3965 25.6508Z" fill="url(#paint4_linear_5036_15664)"/>
<path d="M29.4765 26.8517L29.4555 26.5064C29.4479 26.3771 29.5502 26.2639 29.6856 26.2551L30.4811 26.2022C30.615 26.1934 30.7308 26.2904 30.7383 26.4197L30.7594 26.765C30.7669 26.8943 30.6646 27.0074 30.5293 27.0163L29.7337 27.0692C29.5998 27.078 29.484 26.981 29.4765 26.8517Z" fill="url(#paint5_linear_5036_15664)"/>
<path d="M29.5644 28.1266L29.5434 27.7813C29.5358 27.652 29.6381 27.5388 29.7735 27.53L30.569 27.4771C30.7029 27.4683 30.8187 27.5653 30.8262 27.6946L30.8472 28.0399C30.8548 28.1692 30.7525 28.2824 30.6172 28.2912L29.8216 28.3441C29.6877 28.3529 29.5719 28.2559 29.5644 28.1266Z" fill="url(#paint6_linear_5036_15664)"/>
<path d="M29.6699 29.4454L29.6488 29.1001C29.6413 28.9708 29.7436 28.8577 29.8789 28.8489L30.6745 28.796C30.8083 28.7872 30.9241 28.8841 30.9317 29.0134L30.9527 29.3587C30.9602 29.4881 30.858 29.6012 30.7226 29.61L29.9271 29.6629C29.7932 29.6717 29.6774 29.5747 29.6699 29.4454Z" fill="url(#paint7_linear_5036_15664)"/>
<path d="M29.7734 30.7672L29.7523 30.4219C29.7448 30.2926 29.8471 30.1795 29.9824 30.1706L30.778 30.1177C30.9119 30.1089 31.0277 30.2059 31.0352 30.3352L31.0562 30.6805C31.0638 30.8098 30.9615 30.923 30.8261 30.9318L30.0306 30.9847C29.8967 30.9935 29.7809 30.8965 29.7734 30.7672Z" fill="url(#paint8_linear_5036_15664)"/>
<path d="M41.2042 29.2549C39.3002 29.5458 37.3602 29.8691 35.3885 30.2262C34.6501 30.3599 33.9192 30.4965 33.1928 30.6361C32.9748 31.3076 32.7447 31.8396 32.5612 32.2187C32.3536 32.6492 32.1326 33.0342 32.0438 33.1944C31.9401 33.381 31.8062 33.6073 31.7009 33.7733C31.2919 34.4125 30.4376 35.4132 28.4961 36.3741C30.8828 36.2904 33.3567 36.1464 35.9104 35.9304C36.8338 35.8525 37.7452 35.7673 38.646 35.6747C39.0867 34.5051 39.5484 33.3178 40.0311 32.1158C40.4206 31.146 40.8132 30.1909 41.2072 29.252L41.2042 29.2549Z" fill="url(#paint9_linear_5036_15664)" stroke="white" stroke-width="1.25389" stroke-miterlimit="10"/>
<path d="M40.0311 29.8574C38.5964 30.1278 37.1361 30.4231 35.6517 30.7464C35.0967 30.8669 34.5463 30.9903 34.0004 31.1138C33.8575 31.6266 33.6981 32.0336 33.5718 32.326C33.4274 32.6566 33.2725 32.952 33.2108 33.0769C33.1386 33.2209 33.0439 33.3943 32.9687 33.5221C32.68 34.0158 32.0633 34.7931 30.6211 35.5704C32.4288 35.4441 34.2997 35.2692 36.2292 35.0385C36.927 34.9548 37.6158 34.8666 38.2956 34.7726C38.5933 33.8777 38.9047 32.9696 39.231 32.0498C39.4957 31.3077 39.7619 30.576 40.0311 29.8574Z" fill="url(#paint10_linear_5036_15664)" stroke="white" stroke-width="1.25389" stroke-miterlimit="10"/>
<path d="M40.5535 19.8064C38.6089 20.4236 36.6162 21.029 34.5769 21.6152C33.8144 21.8357 33.0565 22.0487 32.3015 22.2574C31.8022 21.7313 31.3495 21.3419 31.0096 21.073C30.6231 20.7674 30.2456 20.5117 30.0907 20.403C29.9103 20.2766 29.6847 20.1282 29.5117 20.0224C28.844 19.6154 27.5927 19.0805 25.3203 19.0879C27.6363 18.0505 30.0607 17.0292 32.5917 16.0389C33.5076 15.6803 34.416 15.3336 35.3153 15C36.2447 15.8875 37.2012 16.7809 38.1848 17.6787C38.9774 18.4031 39.7684 19.1129 40.5535 19.8064Z" fill="url(#paint11_linear_5036_15664)" stroke="white" stroke-width="1.25389" stroke-miterlimit="10"/>
<path d="M39.1735 19.792C37.6861 20.2093 36.1641 20.6163 34.6061 21.0072C34.0241 21.1541 33.4436 21.2967 32.8691 21.4348C32.5096 21.0219 32.1803 20.7163 31.9336 20.5032C31.6524 20.2608 31.3757 20.0565 31.2614 19.9698C31.129 19.8699 30.9636 19.7509 30.8358 19.6656C30.3455 19.3394 29.4191 18.9016 27.7031 18.8472C29.4838 18.1213 31.3456 17.4101 33.2887 16.7239C33.991 16.4756 34.6873 16.2375 35.3776 16.0068C36.0499 16.7048 36.7432 17.4072 37.4545 18.114C38.029 18.6841 38.602 19.2425 39.172 19.7891L39.1735 19.792Z" fill="url(#paint12_linear_5036_15664)" stroke="white" stroke-width="1.25389" stroke-miterlimit="10"/>
<path d="M14.2194 21.5394C14.1623 21.4806 14.1397 21.3998 14.1592 21.3205C14.1953 20.9017 14.2751 20.4859 14.5187 20.1215C14.7503 19.7717 15.006 19.4426 15.3864 19.2192C15.5955 19.0973 15.791 18.9503 16.0256 18.8681C16.5354 18.6873 17.0768 18.6124 17.6167 18.6476C17.9987 18.6712 18.3732 18.7534 18.7267 18.893C18.871 18.9489 19.0079 19.0238 19.1312 19.1164C19.2591 19.2163 19.3899 19.3118 19.5147 19.4147C19.7132 19.5881 19.8847 19.7908 20.02 20.0142C20.2471 20.3683 20.405 20.7606 20.4893 21.1691C20.5269 21.3322 20.5494 21.4968 20.5569 21.6643C20.5705 21.9332 20.5419 22.2036 20.4697 22.4651C20.4622 22.4901 20.4351 22.5048 20.4095 22.5004C20.393 22.4975 20.378 22.4857 20.3704 22.471C20.3283 22.3711 20.2922 22.2682 20.2637 22.1639C20.1825 21.8656 20.0757 21.5747 19.9433 21.2926C19.8576 21.1192 19.7538 20.9546 19.6335 20.8018C19.3538 20.4183 18.9703 20.117 18.5251 19.926C18.2649 19.8055 17.9867 19.7526 17.716 19.6571C17.5686 19.6042 17.4047 19.6263 17.2498 19.616C16.8738 19.5998 16.4993 19.6615 16.1489 19.7967C15.8918 19.8819 15.6526 20.0083 15.4391 20.1714C15.1323 20.4212 14.8225 20.6695 14.5894 20.9899C14.46 21.1603 14.3487 21.3425 14.2224 21.535L14.2194 21.5394Z" fill="url(#paint13_linear_5036_15664)" stroke="#EDEDED" stroke-width="1.25389" stroke-miterlimit="10"/>
<path d="M28.3007 30.1586C27.469 30.3687 26.6238 30.5318 25.7726 30.645C24.7153 30.7861 23.643 30.7684 22.5948 30.595C22.1602 30.5127 21.7346 30.3967 21.321 30.2468C20.566 29.9735 19.8562 29.5988 19.2125 29.1315C18.9568 28.9552 18.9599 28.9361 19.1794 28.7318C19.8081 28.1367 20.5164 27.6268 21.2849 27.2139C21.8609 26.8936 22.4715 26.6335 23.1031 26.4381C23.8596 26.1986 24.6431 26.0516 25.4342 25.9973C26.3381 25.9414 27.2434 26.0384 28.1097 26.2823C28.2059 26.297 28.2736 26.3793 28.2676 26.4734C28.2751 26.707 28.3082 26.9377 28.3187 27.1713C28.3714 28.0765 28.4059 28.9846 28.4511 29.8912C28.4556 29.9176 28.4571 29.9441 28.4586 29.9705C28.4691 30.0631 28.3984 30.1469 28.3037 30.1586C28.3037 30.1586 28.3007 30.1586 28.2992 30.1586H28.3007ZM20.6503 28.8171C20.757 28.8905 20.8668 28.9581 20.9811 29.0198C21.3406 29.1962 21.718 29.3343 22.1091 29.4327C22.8099 29.6193 23.5378 29.7075 24.2672 29.6943C25.2086 29.6884 26.1471 29.5723 27.0629 29.346C27.2088 29.3225 27.3532 29.2873 27.4916 29.2373C27.5577 29.2167 27.6013 29.155 27.5983 29.0889C27.5713 28.5452 27.5427 28.0015 27.5126 27.4579C27.5066 27.3477 27.4299 27.305 27.3216 27.2977C27.093 27.2801 26.8644 27.261 26.6373 27.2374C25.6463 27.1419 24.6762 27.2903 23.7107 27.5108C23.2911 27.6151 22.8791 27.7503 22.4805 27.9148C22.0459 28.0618 21.6233 28.241 21.2157 28.4497C21.0082 28.5408 20.8157 28.6613 20.6472 28.8097L20.6503 28.8171Z" fill="url(#paint14_linear_5036_15664)"/>
<path d="M25.6169 32.0909C25.6274 32.2246 25.6033 32.3598 25.5507 32.4862C25.3883 32.9608 25.1115 33.3928 24.7446 33.7484C24.5295 33.9482 24.2919 34.1245 24.0362 34.2715C23.6437 34.5095 23.2226 34.6947 22.7805 34.8255C22.5323 34.9033 22.2737 34.9503 22.0195 35.0062C21.9157 35.0179 21.8135 35.04 21.7142 35.0752C21.6811 35.0885 21.6465 35.0944 21.6119 35.0958C21.3713 35.112 21.1277 35.1311 20.8825 35.1384C20.7352 35.1428 20.5878 35.1575 20.4389 35.159C19.9772 35.1575 19.5185 35.1179 19.0643 35.0429C18.6522 34.9812 18.2462 34.8813 17.8552 34.7446C17.6446 34.6697 17.4265 34.6124 17.219 34.5316C17.0265 34.4566 16.846 34.3567 16.6565 34.2744C16.073 34.0202 15.5888 33.6249 15.0865 33.2561C14.8473 33.0651 14.6248 32.8535 14.4247 32.6258C14.2668 32.4612 14.1224 32.2878 13.9736 32.1115C13.9194 32.0468 13.8833 31.9689 13.8337 31.8984C13.7826 31.8176 13.6833 31.7764 13.587 31.7955C13.4321 31.822 13.2757 31.8382 13.1193 31.8602C12.8772 31.894 12.6336 31.9249 12.3929 31.9675C12.0094 32.0365 11.6305 32.0013 11.2485 31.9631C10.8589 31.9175 10.4785 31.822 10.1175 31.6795C9.78064 31.556 9.43173 31.4399 9.14749 31.2093C8.92491 31.1137 8.72038 30.983 8.54292 30.8213C8.24815 30.5906 7.97895 30.332 7.73832 30.0499C7.36836 29.5768 7.12172 29.0448 6.89613 28.5011C6.88109 28.4262 6.81191 28.3733 6.73221 28.3762C6.62693 28.3733 6.52316 28.3762 6.41939 28.3895C6.31713 28.4012 6.21486 28.4394 6.10958 28.4086C6.12162 28.3968 6.13214 28.3836 6.14117 28.3689C6.17576 28.2954 6.16373 28.2749 6.10207 28.2572C6.0765 28.2499 6.05093 28.2455 6.02386 28.2425C5.79978 28.2249 5.57869 28.1779 5.36814 28.1029C5.17263 28.0368 4.98163 27.9589 4.79665 27.8708C4.61468 27.7885 4.48233 27.6298 4.28081 27.5842C4.26427 27.5798 4.24923 27.5695 4.2402 27.5549C4.13643 27.3859 3.9319 27.3109 3.82964 27.1434C3.63262 27.0068 3.53938 26.7893 3.42208 26.6012C3.30778 26.4161 3.22356 26.2148 3.17393 26.0032C3.13633 25.8489 3.06866 25.7049 3.0461 25.5447C2.99045 25.1774 3.04459 24.8085 3.07768 24.4412C3.07918 24.425 3.08369 24.4074 3.08971 24.3927L3.31078 23.7447C3.37245 23.5596 3.4687 23.3876 3.59502 23.2363C3.777 23.0188 3.94694 22.7925 4.1229 22.5706C4.16651 22.5795 4.20862 22.5515 4.21764 22.5104C4.22216 22.506 4.21765 22.4898 4.21163 22.4884C4.16351 22.4678 4.13042 22.4928 4.09884 22.5236C4.09282 22.5295 4.08831 22.5368 4.0838 22.5427C4.01311 22.5942 3.94243 22.6412 3.87475 22.6941C3.77549 22.7558 3.68225 22.8293 3.59954 22.9115C3.38297 23.1849 3.13031 23.4376 2.98744 23.7594C2.90623 23.9445 2.79494 24.1194 2.75133 24.3178C2.65658 24.6675 2.61146 25.0275 2.61748 25.389C2.61748 25.4477 2.59492 25.505 2.55281 25.5491C2.49566 25.436 2.47461 25.3081 2.49717 25.1818C2.5092 24.8791 2.55883 24.5793 2.64756 24.2869C2.7017 24.1356 2.74682 23.9813 2.81449 23.8373C2.86111 23.7197 2.92428 23.6066 2.99947 23.5037C3.15438 23.3083 3.30477 23.1114 3.45817 22.9145C3.53637 22.8219 3.6251 22.7382 3.72286 22.6647C3.95747 22.4869 4.20561 22.3282 4.4673 22.1901C4.55302 22.1475 4.64476 22.1181 4.7395 22.1034C4.79816 22.0931 4.8914 22.0431 4.91546 22.121C4.93501 22.1754 4.83425 22.1974 4.78613 22.2268C4.49437 22.4017 4.24171 22.6324 4.0447 22.9027C3.90934 23.0908 3.75594 23.2671 3.61307 23.4479C3.51833 23.5698 3.44163 23.7036 3.38899 23.8461C3.24762 24.2002 3.1634 24.572 3.14084 24.9481C3.14084 24.9746 3.13182 24.9996 3.13332 25.0231C3.17242 25.5271 3.23108 26.0296 3.48524 26.4807C3.61458 26.7173 3.7785 26.9348 3.97251 27.1258C4.10786 27.2551 4.25073 27.3771 4.40112 27.4887C4.73198 27.7327 5.10646 27.9134 5.508 28.0221C5.87347 28.1294 6.25246 28.1926 6.63445 28.2117C6.73371 28.2161 6.75176 28.1955 6.77281 28.1015C6.78484 28.0265 6.78334 27.9501 6.7683 27.8767C6.74123 27.668 6.72018 27.4593 6.68258 27.2522C6.64348 26.995 6.62543 26.7349 6.62844 26.4748C6.62543 26.0458 6.71416 25.6197 6.88861 25.2229C6.89914 25.2009 6.91869 25.1832 6.94275 25.1744C6.98336 25.1685 6.9999 25.2023 7.00742 25.2361C7.04201 25.4095 7.04652 25.5873 7.01945 25.7622C7.00592 25.9958 7.01043 26.2309 7.03299 26.4646C7.04803 26.6409 7.08111 26.8143 7.13525 26.9833C7.22098 27.2904 7.32324 27.5931 7.44205 27.8899C7.5368 28.1059 7.6511 28.3116 7.78194 28.5085C7.997 28.8509 8.24665 29.1727 8.52788 29.4665C8.56397 29.5033 8.60157 29.5371 8.64368 29.5679C8.95349 29.8221 9.27833 30.0602 9.61671 30.2791C9.76259 30.3673 9.9175 30.4422 10.0769 30.5054C10.492 30.6964 10.9326 30.8301 11.3868 30.9021C11.8335 30.9727 12.2862 30.9947 12.7388 30.9683C12.8862 30.9609 13.0321 30.9374 13.175 30.8992C13.2818 30.8654 13.3028 30.8434 13.2818 30.7361C13.2562 30.5965 13.2186 30.4584 13.19 30.3188C13.1058 29.9514 13.0847 29.5723 13.1284 29.1962C13.166 28.9743 13.2427 28.7598 13.3585 28.5614C13.4036 28.5952 13.3961 28.651 13.4006 28.6951C13.4306 28.9537 13.4487 29.2094 13.4818 29.471C13.4998 29.6282 13.5103 29.7854 13.5374 29.9412C13.6277 30.4701 13.8923 30.9154 14.1976 31.3444C14.2413 31.4047 14.2849 31.4664 14.327 31.5311C14.3871 31.6324 14.4623 31.725 14.5511 31.8058C14.6278 31.8734 14.6984 31.9454 14.7631 32.0233C15.1466 32.448 15.6188 32.7742 16.0881 33.1018C16.261 33.212 16.44 33.3105 16.6265 33.3972C16.84 33.5074 17.0506 33.6235 17.2686 33.7219C17.8341 33.9747 18.4281 34.1657 19.0402 34.2891C19.3636 34.3508 19.6899 34.3979 20.0178 34.4272C20.3802 34.4625 20.7457 34.4699 21.1096 34.4493C21.4811 34.4272 21.8571 34.4317 22.224 34.3185C22.4045 34.2627 22.597 34.2348 22.7805 34.1819C23.2392 34.0423 23.6798 33.8483 24.0889 33.6014C24.4333 33.4001 24.7506 33.1592 25.0333 32.8829C25.2183 32.7139 25.3702 32.5126 25.4815 32.2922C25.5191 32.2261 25.5627 32.1629 25.6108 32.1027L25.6184 32.0865L25.6169 32.0909Z" fill="url(#paint15_linear_5036_15664)" stroke="#EDEDED" stroke-width="1.25389" stroke-miterlimit="10"/>
<path d="M24.8449 24.8156C24.875 24.8333 24.9036 24.8509 24.9321 24.8685C24.9803 24.7319 25.0269 24.5938 25.0765 24.4571C25.1141 24.3366 25.1367 24.2117 25.1427 24.0853C25.1592 23.9281 25.1517 23.7679 25.1532 23.6092C25.1412 23.3066 25.0916 23.0083 25.0028 22.7188C24.9818 22.5939 24.9201 22.4793 24.8284 22.3896C24.8028 22.444 24.7998 22.5057 24.8193 22.5601C24.9427 22.8995 25.0194 23.2522 25.0449 23.6122C25.069 23.812 25.0209 24.0119 25.0043 24.2117C24.9863 24.4218 24.9216 24.6202 24.8479 24.8156H24.8449Z" fill="url(#paint16_linear_5036_15664)" stroke="#EDEDED" stroke-width="1.25389" stroke-miterlimit="10"/>
<path d="M12.3329 20.347C12.2983 20.1897 12.2727 20.0296 12.2577 19.8665C12.2547 19.8665 12.2532 19.8679 12.2502 19.8694C12.1644 19.9179 12.0562 19.9091 11.981 19.8474C11.9118 19.7959 11.8516 19.7342 11.7779 19.6887C11.5779 19.5682 11.3839 19.4477 11.1794 19.3404C10.9132 19.1861 10.6319 19.0539 10.3417 18.9466C9.74163 18.7527 9.15059 18.5278 8.51143 18.4661C8.30389 18.447 8.09936 18.4073 7.89182 18.3956C7.66623 18.3824 7.44064 18.3956 7.21505 18.3882C6.79697 18.3794 6.37888 18.4088 5.9653 18.4764C5.50817 18.544 5.0585 18.6469 4.61785 18.7865C4.47649 18.8335 4.33963 18.8937 4.20127 18.9422C3.96967 19.0245 3.74558 19.1156 3.5215 19.2052C3.48841 19.217 3.45833 19.2346 3.43126 19.2567C3.34855 19.3198 3.25831 19.3727 3.16357 19.4154C2.93948 19.5461 2.70788 19.6696 2.49733 19.8194C2.11985 20.0781 1.77846 20.3822 1.4837 20.7261C1.28819 20.9435 1.11975 21.1816 0.981387 21.4358C0.74828 21.8839 0.627968 22.3762 0.629471 22.8743C0.618944 23.0095 0.641502 23.1432 0.695643 23.2681V23.2505C0.724217 23.18 0.745273 23.1065 0.758808 23.0316C0.791894 22.7891 0.870097 22.5525 0.99041 22.3365C1.16938 21.9897 1.39196 21.665 1.65213 21.3697C1.96194 21.0126 2.31536 20.6937 2.70788 20.4219C2.86579 20.3161 3.03874 20.2294 3.19365 20.1221C3.50496 19.9032 3.86439 19.7915 4.2118 19.6578C4.55168 19.5256 4.90209 19.4212 5.25852 19.3448C5.58186 19.2728 5.90665 19.217 6.23601 19.1758C6.86013 19.1053 7.48877 19.1038 8.11139 19.17C8.35201 19.1964 8.59114 19.2405 8.83026 19.2802C9.03629 19.3052 9.24083 19.3434 9.44085 19.3948C9.99579 19.5608 10.5522 19.7239 11.0576 20.0075C11.1448 20.0604 11.2365 20.1074 11.3313 20.1486C11.4426 20.1971 11.5448 20.2617 11.6351 20.3396C11.6952 20.3866 11.7569 20.4322 11.82 20.4763C11.9704 20.585 12.1163 20.6967 12.2547 20.8172C12.2787 20.7275 12.3088 20.6394 12.3404 20.5512C12.3374 20.5174 12.3344 20.4821 12.3329 20.4483C12.3314 20.4145 12.3329 20.3808 12.3329 20.347Z" fill="url(#paint17_linear_5036_15664)" stroke="#EDEDED" stroke-width="1.25389" stroke-miterlimit="10"/>
<path d="M24.6901 23.6432C24.6901 23.627 24.6886 23.6094 24.6856 23.5932C24.5969 23.2362 24.5262 22.8717 24.3517 22.5426C24.2766 22.3986 24.1653 22.2825 24.078 22.1488C23.9607 21.9651 23.8149 21.8005 23.6434 21.661C23.469 21.5199 23.3095 21.3421 23.0764 21.2745C22.9606 21.179 22.8072 21.1511 22.6734 21.0879C22.6734 21.1305 22.6734 21.1731 22.6719 21.2157C22.7651 21.2525 22.8584 21.2921 22.9501 21.3347C23.1982 21.4552 23.4253 21.6095 23.6269 21.7947C24.0179 22.1429 24.239 22.5984 24.442 23.0628C24.451 23.0848 24.451 23.1113 24.4585 23.1362C24.5623 23.4992 24.6044 23.8753 24.5864 24.253C24.5834 24.3911 24.5593 24.5263 24.5172 24.6585C24.5608 24.6762 24.6029 24.6953 24.6465 24.7158C24.6796 24.588 24.6961 24.4572 24.6946 24.325L24.6901 23.6446V23.6432Z" fill="url(#paint18_linear_5036_15664)" stroke="#EDEDED" stroke-width="1.25389" stroke-miterlimit="10"/>
<path d="M76.1127 35.5268V0H90.799C93.9629 0 96.6772 0.358007 98.9433 1.07265C101.209 1.78866 102.961 2.92465 104.201 4.48061C105.442 6.03794 106.062 8.11989 106.062 10.7278C106.062 12.8731 105.74 14.6935 105.099 16.1861C104.458 17.6801 103.538 18.8271 102.341 19.6257C101.143 20.4257 99.7325 20.825 98.109 20.825C99.135 20.825 99.9369 21.0247 100.513 21.424C101.091 21.8247 101.539 22.3493 101.861 23.002C102.182 23.6547 102.427 24.3376 102.598 25.0523C102.768 25.7683 102.939 26.4623 103.111 27.1342C103.281 27.8076 103.528 28.3763 103.848 28.8375C104.169 29.3016 104.65 29.5742 105.291 29.6582C105.932 29.7436 106.787 29.5742 107.856 29.1529V33.9488C106.658 34.9581 105.333 35.6204 103.88 35.9371C102.426 36.2524 101.047 36.1684 99.7438 35.6851C98.4388 35.2018 97.3593 34.2765 96.5052 32.9092C95.6498 31.5432 95.2228 29.6816 95.2228 27.3243C95.2228 26.5256 95.1791 25.7779 95.0945 25.084C95.0086 24.39 94.7944 23.78 94.4533 23.254C94.1108 22.728 93.5767 22.297 92.8495 21.961C92.1223 21.6251 91.1386 21.4144 89.8999 21.3304C88.6597 21.2464 87.0559 21.2891 85.0899 21.4571V35.5281H76.1113L76.1127 35.5268ZM85.0914 15.2704H89.58C91.5459 15.2704 93.1497 15.2498 94.3899 15.2071C95.6301 15.1658 96.5588 14.8821 97.1803 14.3547C97.799 13.8287 98.1104 12.8718 98.1104 11.4838C98.1104 9.92783 97.7356 8.84417 96.9886 8.23418C96.2403 7.62419 95.1495 7.2772 93.7177 7.19321C92.2844 7.10921 90.5214 7.06653 88.4272 7.06653H85.0928V15.2704H85.0914Z" fill="url(#paint19_linear_5036_15664)"/>
<path d="M121.906 35.9347C116.056 35.9347 111.585 34.3209 108.493 31.0933C105.401 27.8657 103.855 23.5118 103.855 18.0315C103.855 14.4184 104.523 11.2831 105.861 8.6228C107.198 5.96391 109.204 3.89434 111.877 2.41137C114.551 0.929766 117.893 0.188965 121.906 0.188965C127.756 0.188965 132.205 1.80275 135.256 5.03033C138.306 8.25791 139.832 12.5926 139.832 18.0315C139.832 21.5634 139.153 24.6795 137.796 27.3783C136.437 30.0785 134.432 32.1797 131.779 33.6806C129.126 35.1815 125.835 35.9333 121.907 35.9333L121.906 35.9347ZM121.78 27.7143C123.911 27.7143 125.676 27.2791 127.076 26.4048C128.476 25.5318 129.52 24.3559 130.211 22.8729C130.9 21.3913 131.245 19.7775 131.245 18.0315C131.245 16.2855 130.9 14.6015 130.211 13.0993C129.522 11.5984 128.476 10.4004 127.076 9.50681C125.676 8.61454 123.911 8.16703 121.78 8.16703C118.729 8.16703 116.4 9.10061 114.792 10.9678C113.182 12.8349 112.379 15.1909 112.379 18.0315C112.379 19.7362 112.724 21.3307 113.413 22.8123C114.102 24.2953 115.137 25.4822 116.515 26.3745C117.893 27.2681 119.649 27.7143 121.78 27.7143Z" fill="url(#paint20_linear_5036_15664)"/>
<path d="M153.947 35.8134C150.604 35.8134 147.555 35.1649 144.797 33.865C142.039 32.5666 139.846 30.6182 138.215 28.0185C136.586 25.4216 135.791 22.194 135.834 18.3358C135.875 14.5601 136.7 11.3229 138.31 8.62272C139.918 5.9239 142.102 3.86397 144.859 2.44158C147.617 1.02057 150.709 0.310059 154.135 0.310059C157.561 0.310059 160.674 0.929688 163.098 2.16757C165.52 3.40683 167.412 5.03025 168.77 7.03923C170.127 9.0482 170.996 11.21 171.372 13.5247H162.347C162.137 11.9825 161.542 10.8451 160.561 10.114C159.579 9.3828 158.492 8.90638 157.301 8.68331C156.111 8.46024 155.055 8.34871 154.136 8.34871C150.876 8.34871 148.454 9.17075 146.866 10.8148C145.277 12.4589 144.484 14.7419 144.484 17.6652C144.484 20.8721 145.256 23.3699 146.802 25.1558C148.348 26.9431 150.771 27.8354 154.073 27.8354C155.034 27.8354 156.119 27.7045 157.332 27.4388C158.544 27.1758 159.641 26.6374 160.623 25.825C161.604 25.014 162.2 23.7954 162.409 22.1719H171.497C171.079 24.5678 170.181 26.8109 168.803 28.9011C167.424 30.9927 165.512 32.6671 163.068 33.9242C160.625 35.1828 157.585 35.812 153.949 35.812L153.947 35.8134Z" fill="url(#paint21_linear_5036_15664)"/>
<path d="M167.498 35.2037V0.918945H176.21V35.2023H167.498V35.2037ZM176.085 24.9124V15.5959L188.87 0.918945H200.277V1.71069L176.083 24.911L176.085 24.9124ZM191.064 35.2037L179.345 17.788L185.675 11.7597L201.031 34.4133V35.2051H191.066L191.064 35.2037Z" fill="url(#paint22_linear_5036_15664)"/>
<path d="M197.031 35.2042V0.919434H223.73V8.16634H205.616V14.4384H219.092V21.2584H205.616V28.4433H224.419V35.2028H197.029L197.031 35.2042Z" fill="url(#paint23_linear_5036_15664)"/>
<path d="M220.42 8.16731V0.92041H248.31V8.16731H220.42ZM238.721 2.01646V35.2038H229.947V2.01646H238.721Z" fill="url(#paint24_linear_5036_15664)"/>
<path d="M259.495 36.017C259.13 36.017 258.711 35.9546 258.237 35.8299C257.763 35.7231 257.298 35.536 256.842 35.2689C256.404 35.0017 256.04 34.6098 255.748 34.0932C255.456 33.5767 255.311 32.9176 255.311 32.116H256.459C256.459 32.5257 256.541 32.9532 256.705 33.3985C256.869 33.826 257.17 34.1912 257.608 34.494C258.063 34.7968 258.692 34.9482 259.495 34.9482C260.497 34.9482 261.236 34.69 261.71 34.1734C262.202 33.6568 262.448 32.8018 262.448 31.6084V21.1881H263.679V31.5015C263.679 32.214 263.596 32.8553 263.432 33.4253C263.268 33.9774 263.013 34.4495 262.667 34.8414C262.339 35.2332 261.91 35.5271 261.381 35.7231C260.871 35.919 260.242 36.017 259.495 36.017ZM259.467 21.7492V20.7338H263.679V21.7492H259.467ZM287.308 36.1239C285.321 36.1239 283.78 35.536 282.687 34.3604C281.593 33.167 281.046 31.4926 281.046 29.3373V20.7071H282.304V29.3373C282.304 30.2814 282.422 31.1096 282.659 31.8221C282.896 32.5168 283.233 33.1046 283.671 33.5856C284.109 34.0487 284.637 34.396 285.257 34.6276C285.877 34.8592 286.561 34.9749 287.308 34.9749C288.402 34.9749 289.313 34.7701 290.043 34.3604C290.79 33.9507 291.355 33.3273 291.738 32.4901C292.139 31.6529 292.34 30.602 292.34 29.3373V20.7071H293.57V29.3373C293.57 31.5282 293.033 33.2115 291.957 34.3871C290.9 35.5449 289.35 36.1239 287.308 36.1239ZM322.103 20.7071H323.334V35.7498H321.037L312.176 21.2682H312.122V35.7498H310.891V20.7071H313.051L322.048 35.1887H322.103V20.7071ZM342.868 35.2689V21.1881H344.099V35.2689H342.868ZM340.708 35.7498V34.681H346.233V35.7498H340.708ZM340.708 21.8026V20.7071H346.233V21.8026H340.708ZM370.249 36.1239C367.843 36.1239 366.011 35.4203 364.753 34.0131C363.495 32.5881 362.866 30.6732 362.866 28.2685C362.866 26.6832 363.139 25.3117 363.686 24.1539C364.233 22.9782 365.054 22.0698 366.148 21.4285C367.241 20.7695 368.609 20.4399 370.249 20.4399C372.656 20.4399 374.479 21.1524 375.719 22.5774C376.977 23.9846 377.606 25.8817 377.606 28.2685C377.606 29.8182 377.323 31.1898 376.758 32.3832C376.211 33.5589 375.391 34.4762 374.297 35.1353C373.221 35.7943 371.872 36.1239 370.249 36.1239ZM370.249 34.9749C371.617 34.9749 372.747 34.6989 373.64 34.1467C374.552 33.5767 375.236 32.7929 375.691 31.7954C376.165 30.7801 376.402 29.6045 376.402 28.2685C376.402 26.9148 376.175 25.7392 375.719 24.7417C375.281 23.7442 374.598 22.9693 373.668 22.4171C372.756 21.8649 371.617 21.5888 370.249 21.5888C368.226 21.5888 366.694 22.1767 365.655 23.3523C364.616 24.5279 364.097 26.1667 364.097 28.2685C364.097 29.5867 364.315 30.7534 364.753 31.7687C365.19 32.7662 365.865 33.5499 366.777 34.1199C367.706 34.6899 368.864 34.9749 370.249 34.9749ZM394.658 35.7498V20.7071H399.444C400.738 20.7071 401.832 20.8318 402.726 21.0812C403.619 21.3306 404.293 21.7581 404.749 22.3637C405.223 22.9693 405.46 23.8243 405.46 24.9287C405.46 25.6056 405.333 26.2379 405.077 26.8257C404.822 27.4135 404.421 27.8945 403.874 28.2685C403.345 28.6248 402.653 28.8029 401.796 28.8029C402.507 28.8029 403.063 28.9365 403.464 29.2037C403.865 29.4531 404.148 29.7826 404.312 30.1923C404.494 30.602 404.603 31.0473 404.64 31.5282C404.694 32.0092 404.722 32.4812 404.722 32.9443C404.722 33.4074 404.749 33.8171 404.804 34.1734C404.859 34.5296 404.986 34.779 405.187 34.9215C405.387 35.064 405.706 35.064 406.144 34.9215V35.8032C406.053 35.8745 405.87 35.9368 405.597 35.9903C405.342 36.0437 405.059 36.0259 404.749 35.9368C404.439 35.8478 404.175 35.6429 403.956 35.3223C403.737 35.0017 403.628 34.5118 403.628 33.8528C403.628 32.8196 403.582 31.9914 403.491 31.3679C403.418 30.7445 403.245 30.2724 402.972 29.9518C402.716 29.6312 402.306 29.4085 401.741 29.2839C401.176 29.1592 400.419 29.0968 399.471 29.0968C398.542 29.0968 397.357 29.1057 395.916 29.1235V35.7498H394.658ZM395.916 28.1349H399.936C400.939 28.1349 401.759 28.0459 402.397 27.8678C403.054 27.6718 403.537 27.3512 403.847 26.9059C404.175 26.4428 404.339 25.8015 404.339 24.9821C404.339 24.0381 404.138 23.3434 403.737 22.8981C403.336 22.4349 402.762 22.1321 402.015 21.9896C401.267 21.8471 400.356 21.7759 399.28 21.7759H395.916V28.1349Z" fill="white"/>
<defs>
<linearGradient id="paint0_linear_5036_15664" x1="44.7976" y1="17.4345" x2="50.8388" y2="33.5085" gradientUnits="userSpaceOnUse">
<stop stop-color="#E30613"/>
<stop offset="1" stop-color="#BE1622"/>
</linearGradient>
<linearGradient id="paint1_linear_5036_15664" x1="42.3231" y1="19.1412" x2="47.427" y2="32.721" gradientUnits="userSpaceOnUse">
<stop stop-color="#E30613"/>
<stop offset="1" stop-color="#BE1622"/>
</linearGradient>
<linearGradient id="paint2_linear_5036_15664" x1="50.2619" y1="22.9128" x2="52.1294" y2="27.8819" gradientUnits="userSpaceOnUse">
<stop stop-color="#E30613"/>
<stop offset="1" stop-color="#BE1622"/>
</linearGradient>
<linearGradient id="paint3_linear_5036_15664" x1="29.0586" y1="24.9748" x2="31.4274" y2="31.2777" gradientUnits="userSpaceOnUse">
<stop stop-color="#E30613"/>
<stop offset="1" stop-color="#BE1622"/>
</linearGradient>
<linearGradient id="paint4_linear_5036_15664" x1="29.8277" y1="24.9346" x2="30.174" y2="25.856" gradientUnits="userSpaceOnUse">
<stop stop-color="#E30613"/>
<stop offset="1" stop-color="#BE1622"/>
</linearGradient>
<linearGradient id="paint5_linear_5036_15664" x1="29.9161" y1="26.1561" x2="30.279" y2="27.1217" gradientUnits="userSpaceOnUse">
<stop stop-color="#E30613"/>
<stop offset="1" stop-color="#BE1622"/>
</linearGradient>
<linearGradient id="paint6_linear_5036_15664" x1="30.0048" y1="27.4323" x2="30.3677" y2="28.3979" gradientUnits="userSpaceOnUse">
<stop stop-color="#E30613"/>
<stop offset="1" stop-color="#BE1622"/>
</linearGradient>
<linearGradient id="paint7_linear_5036_15664" x1="30.1089" y1="28.7513" x2="30.4718" y2="29.7169" gradientUnits="userSpaceOnUse">
<stop stop-color="#E30613"/>
<stop offset="1" stop-color="#BE1622"/>
</linearGradient>
<linearGradient id="paint8_linear_5036_15664" x1="30.2139" y1="30.0718" x2="30.5768" y2="31.0374" gradientUnits="userSpaceOnUse">
<stop stop-color="#E30613"/>
<stop offset="1" stop-color="#BE1622"/>
</linearGradient>
<linearGradient id="paint9_linear_5036_15664" x1="33.8863" y1="30.376" x2="36.2204" y2="36.5866" gradientUnits="userSpaceOnUse">
<stop stop-color="#E30613"/>
<stop offset="1" stop-color="#BE1622"/>
</linearGradient>
<linearGradient id="paint10_linear_5036_15664" x1="34.6032" y1="30.887" x2="36.3396" y2="35.5071" gradientUnits="userSpaceOnUse">
<stop stop-color="#E30613"/>
<stop offset="1" stop-color="#BE1622"/>
</linearGradient>
<linearGradient id="paint11_linear_5036_15664" x1="31.7172" y1="16.3513" x2="33.9487" y2="22.2886" gradientUnits="userSpaceOnUse">
<stop stop-color="#E30613"/>
<stop offset="1" stop-color="#BE1622"/>
</linearGradient>
<linearGradient id="paint12_linear_5036_15664" x1="32.5182" y1="16.989" x2="34.2649" y2="21.6365" gradientUnits="userSpaceOnUse">
<stop stop-color="#E30613"/>
<stop offset="1" stop-color="#BE1622"/>
</linearGradient>
<linearGradient id="paint13_linear_5036_15664" x1="16.3433" y1="18.7479" x2="18.0854" y2="23.383" gradientUnits="userSpaceOnUse">
<stop stop-color="#E30613"/>
<stop offset="1" stop-color="#BE1622"/>
</linearGradient>
<linearGradient id="paint14_linear_5036_15664" x1="23.1373" y1="26.4061" x2="25.0142" y2="31.3999" gradientUnits="userSpaceOnUse">
<stop stop-color="#E30613"/>
<stop offset="1" stop-color="#BE1622"/>
</linearGradient>
<linearGradient id="paint15_linear_5036_15664" x1="10.5619" y1="19.8918" x2="16.9967" y2="37.0127" gradientUnits="userSpaceOnUse">
<stop stop-color="#E30613"/>
<stop offset="1" stop-color="#BE1622"/>
</linearGradient>
<linearGradient id="paint16_linear_5036_15664" x1="24.4426" y1="22.5342" x2="25.2723" y2="24.7414" gradientUnits="userSpaceOnUse">
<stop stop-color="#E30613"/>
<stop offset="1" stop-color="#BE1622"/>
</linearGradient>
<linearGradient id="paint17_linear_5036_15664" x1="5.28028" y1="18.5365" x2="9.71114" y2="30.3258" gradientUnits="userSpaceOnUse">
<stop stop-color="#E30613"/>
<stop offset="1" stop-color="#BE1622"/>
</linearGradient>
<linearGradient id="paint18_linear_5036_15664" x1="20.0194" y1="12.9972" x2="24.4503" y2="24.7864" gradientUnits="userSpaceOnUse">
<stop stop-color="#E30613"/>
<stop offset="1" stop-color="#BE1622"/>
</linearGradient>
<linearGradient id="paint19_linear_5036_15664" x1="76.1127" y1="18.0615" x2="107.859" y2="18.0615" gradientUnits="userSpaceOnUse">
<stop stop-color="#E30613"/>
<stop offset="1" stop-color="#BE1622"/>
</linearGradient>
<linearGradient id="paint20_linear_5036_15664" x1="103.854" y1="18.0618" x2="139.831" y2="18.0618" gradientUnits="userSpaceOnUse">
<stop stop-color="#E30613"/>
<stop offset="1" stop-color="#BE1622"/>
</linearGradient>
<linearGradient id="paint21_linear_5036_15664" x1="135.832" y1="18.0617" x2="171.496" y2="18.0617" gradientUnits="userSpaceOnUse">
<stop stop-color="#E30613"/>
<stop offset="1" stop-color="#BE1622"/>
</linearGradient>
<linearGradient id="paint22_linear_5036_15664" x1="167.498" y1="18.062" x2="201.029" y2="18.062" gradientUnits="userSpaceOnUse">
<stop stop-color="#E30613"/>
<stop offset="1" stop-color="#BE1622"/>
</linearGradient>
<linearGradient id="paint23_linear_5036_15664" x1="197.031" y1="18.0625" x2="224.419" y2="18.0625" gradientUnits="userSpaceOnUse">
<stop stop-color="#E30613"/>
<stop offset="1" stop-color="#BE1622"/>
</linearGradient>
<linearGradient id="paint24_linear_5036_15664" x1="220.42" y1="18.0635" x2="248.31" y2="18.0635" gradientUnits="userSpaceOnUse">
<stop stop-color="#E30613"/>
<stop offset="1" stop-color="#BE1622"/>
</linearGradient>
</defs>
</svg>
