<svg width="188" height="53" viewBox="0 0 188 53" fill="none" xmlns="http://www.w3.org/2000/svg">
<g clip-path="url(#clip0_4790_462)">
<path d="M61.6831 36.065C55.8331 36.065 51.3628 34.4513 48.2708 31.2237C45.1788 27.9961 43.6328 23.6422 43.6328 18.1619C43.6328 14.5488 44.3008 11.4134 45.6382 8.75317C46.9757 6.09428 48.9811 4.02472 51.6545 2.54174C54.328 1.06014 57.6708 0.319336 61.6831 0.319336C67.5331 0.319336 71.9822 1.93312 75.0333 5.1607C78.083 8.38828 79.6093 12.7229 79.6093 18.1619C79.6093 21.6938 78.93 24.8098 77.5729 27.5087C76.2143 30.2089 74.2089 32.3101 71.5566 33.811C68.9029 35.3118 65.6122 36.0637 61.6845 36.0637L61.6831 36.065ZM61.5576 27.8446C63.6885 27.8446 65.4529 27.4095 66.8538 26.5351C68.2532 25.6622 69.2975 24.4862 69.988 23.0033C70.6772 21.5217 71.0225 19.9079 71.0225 18.1619C71.0225 16.4159 70.6772 14.7319 69.988 13.2296C69.2989 11.7288 68.2532 10.5308 66.8538 9.63718C65.4529 8.74491 63.6885 8.2974 61.5576 8.2974C58.5065 8.2974 56.177 9.23098 54.5689 11.0981C52.9595 12.9653 52.1562 15.3212 52.1562 18.1619C52.1562 19.8666 52.5015 21.4611 53.1907 22.9427C53.8798 24.4257 54.9142 25.6126 56.2925 26.5049C57.6708 27.3985 59.4268 27.8446 61.5576 27.8446Z" fill="url(#paint0_linear_4790_462)"/>
<path d="M92.9473 35.5034C89.6045 35.5034 86.5547 34.8548 83.7968 33.555C81.0388 32.2565 78.8459 30.3081 77.2153 27.7084C75.5862 25.1115 74.7914 21.8839 74.8336 18.0257C74.8745 14.2501 75.7004 11.0129 77.3098 8.31267C78.9178 5.61384 81.1022 3.55392 83.8588 2.13152C86.6168 0.710508 89.7088 0 93.1347 0C96.5607 0 99.6739 0.619629 102.098 1.85751C104.52 3.09677 106.412 4.7202 107.77 6.72917C109.127 8.73814 109.996 10.9 110.372 13.2146H101.347C101.137 11.6724 100.542 10.5351 99.5611 9.80391C98.5789 9.07274 97.4923 8.59632 96.3014 8.37325C95.1106 8.15019 94.055 8.03865 93.1362 8.03865C89.8765 8.03865 87.4539 8.86069 85.8656 10.5048C84.2773 12.1489 83.4839 14.4318 83.4839 17.3551C83.4839 20.562 84.2562 23.0598 85.8022 24.8457C87.3482 26.633 89.7708 27.5253 93.0727 27.5253C94.0339 27.5253 95.119 27.3945 96.3324 27.1287C97.5444 26.8657 98.6409 26.3273 99.6231 25.5149C100.604 24.7039 101.2 23.4853 101.409 21.8619H110.497C110.079 24.2578 109.181 26.5008 107.803 28.5911C106.424 30.6826 104.512 32.357 102.068 33.6142C99.6245 34.8727 96.5847 35.502 92.9487 35.502L92.9473 35.5034Z" fill="url(#paint1_linear_4790_462)"/>
<path d="M106.793 35.3614V1.07666H115.505V35.36H106.793V35.3614ZM115.38 25.0701V15.7536L128.165 1.07666H139.572V1.86841L115.378 25.0687L115.38 25.0701ZM130.359 35.3614L118.64 17.9457L124.97 11.9174L140.326 34.571V35.3628H130.361L130.359 35.3614Z" fill="url(#paint2_linear_4790_462)"/>
<path d="M136.923 35.3614V1.07666H163.622V8.32356H145.509V14.5956H158.984V21.4156H145.509V28.6006H164.312V35.36H136.922L136.923 35.3614Z" fill="url(#paint3_linear_4790_462)"/>
<path d="M160.098 8.32356V1.07666H187.988V8.32356H160.098ZM178.399 2.17271V35.36H169.624V2.17271H178.399Z" fill="url(#paint4_linear_4790_462)"/>
<path d="M28.228 23.2953C28.1406 23.3711 28.0068 23.3655 27.9292 23.2829C27.925 23.2788 27.9222 23.2747 27.918 23.2705C28.0194 23.2251 28.1378 23.2334 28.228 23.2953Z" fill="url(#paint5_linear_4790_462)"/>
<path d="M20.3061 35.6191V0.0922852H34.9924C38.1562 0.0922852 40.8705 0.450293 43.1367 1.16493C45.4028 1.88095 47.1546 3.01694 48.3948 4.57289C49.6349 6.13023 50.255 8.21218 50.255 10.8201C50.255 12.9654 49.9337 14.7858 49.2925 16.2784C48.6513 17.7724 47.731 18.9194 46.5345 19.718C45.3366 20.518 43.9259 20.9173 42.3024 20.9173C43.3283 20.9173 44.1302 21.117 44.7066 21.5163C45.2844 21.917 45.7326 22.4416 46.0539 23.0943C46.3752 23.747 46.6205 24.4299 46.791 25.1446C46.9615 25.8606 47.132 26.5546 47.304 27.2265C47.4745 27.8999 47.7211 28.4685 48.041 28.9298C48.3624 29.3939 48.8429 29.6665 49.4841 29.7505C50.1254 29.8359 50.9808 29.6665 52.0491 29.2451V34.0411C50.8512 35.0504 49.5264 35.7127 48.0734 36.0294C46.619 36.3447 45.2408 36.2607 43.9372 35.7774C42.6322 35.2941 41.5526 34.3688 40.6986 33.0015C39.8432 31.6355 39.4161 29.7739 39.4161 27.4165C39.4161 26.6179 39.3725 25.8702 39.2879 25.1762C39.2019 24.4823 38.9877 23.8723 38.6467 23.3463C38.3042 22.8203 37.7701 22.3893 37.0429 22.0533C36.3157 21.7173 35.332 21.5067 34.0932 21.4227C32.8531 21.3387 31.2493 21.3814 29.2833 21.5493V35.6204H20.3047L20.3061 35.6191ZM29.2847 15.3627H33.7733C35.7393 15.3627 37.3431 15.342 38.5832 15.2994C39.8234 15.258 40.7522 14.9744 41.3737 14.447C41.9923 13.921 42.3038 12.964 42.3038 11.5761C42.3038 10.0201 41.9289 8.93646 41.182 8.32647C40.4337 7.71648 39.3429 7.36948 37.911 7.28549C36.4778 7.2015 34.7147 7.15881 32.6205 7.15881H29.2861V15.3627H29.2847Z" fill="url(#paint6_linear_4790_462)"/>
<path d="M17.159 17.2313C17.0082 17.0179 16.8532 16.8072 16.7052 16.591C16.6038 16.4395 16.4741 16.3087 16.3219 16.2041L15.7892 15.8323C15.7765 15.8227 15.7624 15.8144 15.7469 15.8089C15.4185 15.6767 15.0944 15.5266 14.7379 15.4715C14.5871 15.4481 14.4292 15.4633 14.2742 15.4523C14.0642 15.4357 13.8528 15.4509 13.6456 15.4963C13.4342 15.5445 13.2073 15.5624 13.0213 15.6932C12.8339 15.7318 12.7014 15.886 12.5154 15.9301C12.4999 15.9342 12.4858 15.9438 12.4759 15.9562C12.373 16.116 12.187 16.1848 12.0545 16.317C11.9164 16.4519 11.7867 16.5938 11.6655 16.7425C11.5331 16.9022 11.4217 17.0784 11.3372 17.2657C11.3259 17.2877 11.3146 17.3084 11.3005 17.3277C11.2681 17.38 11.2428 17.38 11.185 17.3291C11.1751 17.3167 11.1652 17.3043 11.1582 17.2905V17.2836C11.2695 17.2106 11.3118 17.117 11.247 16.9958C11.3189 16.9559 11.3724 16.8898 11.3964 16.8141C11.4513 16.6819 11.519 16.5538 11.5965 16.434C11.6768 16.2963 11.7769 16.1697 11.891 16.0567C12.0489 15.897 12.242 15.7758 12.3956 15.6106C12.4491 15.561 12.5111 15.5211 12.5802 15.495C12.7352 15.4206 12.8916 15.3586 13.0452 15.2857C13.375 15.1273 13.7372 15.0474 14.1037 15.0516C14.2136 15.0516 14.3334 15.0819 14.4334 14.9951C14.5039 15.0846 14.6378 15.0998 14.7308 15.0309C14.735 15.0282 14.7393 15.024 14.7435 15.0199C14.7928 15.0034 14.8464 15.013 14.8858 15.0447C14.914 15.0929 14.9591 15.1287 15.0141 15.1452C15.3481 15.243 15.668 15.3834 15.9625 15.5624C16.1331 15.6547 16.2599 15.8006 16.4065 15.9232C16.6615 16.1366 16.818 16.423 17.0026 16.6874C17.0561 16.7838 17.097 16.8857 17.1266 16.9903C17.1548 17.0633 17.1759 17.1377 17.2013 17.212L17.1576 17.2327L17.159 17.2313Z" fill="url(#paint7_linear_4790_462)"/>
<path d="M11.2482 16.9902C11.313 17.1114 11.2693 17.2037 11.1608 17.278C11.1354 17.1747 11.1679 17.0646 11.2482 16.9902Z" fill="url(#paint8_linear_4790_462)"/>
<path d="M14.4058 28.2022C14.4058 28.2022 14.4004 28.1836 14.4031 28.1836C14.4154 28.1756 14.4168 28.1849 14.4031 28.2022H14.4072H14.4058Z" fill="url(#paint9_linear_4790_462)"/>
<path d="M17.1597 17.2312L17.2005 17.2036C17.2005 17.2036 17.2104 17.216 17.2146 17.2229C17.2329 17.2587 17.2456 17.2945 17.2118 17.3303C17.2076 17.333 17.1949 17.333 17.1892 17.3303C17.1526 17.311 17.1399 17.2683 17.1597 17.2325V17.2312Z" fill="url(#paint10_linear_4790_462)"/>
<path d="M14.4333 14.9869C14.3346 15.0736 14.2134 15.0447 14.1035 15.0433C13.737 15.0392 13.3748 15.1191 13.045 15.2774C12.8886 15.3518 12.7336 15.4137 12.58 15.4867C12.5109 15.5142 12.4475 15.5542 12.3925 15.6051C12.2389 15.7704 12.0444 15.8915 11.888 16.0513C11.7738 16.1642 11.6738 16.2909 11.5935 16.4285C11.5145 16.5497 11.4483 16.6764 11.3933 16.8086C11.3694 16.8857 11.3158 16.9504 11.244 16.9903C11.2299 16.9284 11.2425 16.8637 11.2764 16.8086C11.3764 16.6131 11.4553 16.4079 11.6005 16.2303C11.7781 16.0251 11.9711 15.8309 12.1755 15.6506C12.3249 15.5019 12.5067 15.3862 12.7068 15.3118C12.8069 15.2774 12.8956 15.2196 12.9929 15.1783C13.3945 15.0062 13.8201 14.9566 14.2529 14.9332C14.3177 14.9318 14.3825 14.9511 14.4347 14.9869H14.4333Z" fill="url(#paint11_linear_4790_462)" stroke="#EDEDED" stroke-width="1.175" stroke-miterlimit="10"/>
<path d="M64.3059 41.862C62.8924 42.4844 61.531 43.0751 59.4072 43.6506C50.2256 46.136 38.265 45.1997 38.265 45.1997C38.1705 43.5377 38.0536 41.8427 37.9126 40.1146C37.7675 38.3329 37.6012 36.5896 37.418 34.8877C37.9507 34.6757 38.9386 34.2984 40.4043 33.7476C43.9472 32.4285 47.4761 31.7097 48.0159 31.6009C49.6225 31.2787 52.0718 30.7995 55.3005 30.7155C58.8167 30.6233 61.407 31.0501 62.3202 31.2099C63.318 31.3847 66.3198 31.9603 69.4428 33.8151C70.8803 34.6688 71.5497 35.3228 71.5779 36.0967C71.6032 36.8306 71.0438 37.4585 69.898 38.3893C67.4176 40.4079 65.0726 41.5246 64.3045 41.862H64.3059Z" fill="url(#paint12_linear_4790_462)"/>
<path d="M47.9821 44.4069C47.4254 44.44 46.6503 44.462 45.7202 44.4166C45.5863 44.4097 45.4228 44.4 45.2213 44.3863C43.7726 44.2816 39.3389 43.8286 38.1734 43.7102C38.1326 43.1098 38.0762 42.3112 38.0015 41.3694C37.9522 40.7456 37.8873 39.9773 37.7563 38.4406C37.6957 37.7315 37.6393 37.0747 37.5519 36.1989C37.528 35.9593 37.5082 35.761 37.4941 35.6247C37.4941 35.6247 42.9538 33.1311 49.2857 32.3792C50.2765 32.2622 52.2805 32.0694 54.8158 32.2181C59.3664 32.4866 61.7453 33.6309 62.5824 34.0715C64.1651 34.9032 65.2093 35.4526 65.3559 36.4123C65.6913 38.6017 61.0547 40.9274 59.637 41.6379C58.3672 42.2754 54.2027 44.2238 47.9807 44.4069H47.9821Z" fill="url(#paint13_linear_4790_462)" stroke="white" stroke-width="1.175" stroke-miterlimit="10"/>
<path d="M57.6611 39.6329C58.9948 39.1317 59.6681 37.689 59.1648 36.4107C58.6615 35.1325 57.1723 34.5025 55.8386 35.0038C54.5048 35.5051 53.8316 36.9477 54.3349 38.2261C54.8381 39.5043 56.3273 40.1342 57.6611 39.6329Z" fill="url(#paint14_linear_4790_462)" stroke="white" stroke-width="2.35" stroke-miterlimit="10"/>
<path opacity="0.99" d="M36.3967 42.7211C36.2502 40.7947 36.1036 38.8684 35.957 36.942C36.5067 36.7616 37.0577 36.5813 37.6073 36.4009C37.7271 37.7007 37.8413 39.013 37.9498 40.3348C38.0188 41.1803 38.0851 42.0216 38.1471 42.8602C37.5636 42.8147 36.9802 42.7679 36.3953 42.7225L36.3967 42.7211Z" fill="url(#paint15_linear_4790_462)" stroke="#C6C6C6" stroke-width="0.5875" stroke-miterlimit="10"/>
<path d="M36.284 37.5703L36.2403 37.2481C36.2234 37.1283 36.3122 37.0154 36.4376 36.9988L37.1775 36.8969C37.303 36.879 37.4171 36.963 37.434 37.0842L37.4777 37.4064C37.4946 37.5262 37.4058 37.6391 37.2804 37.6556L36.5405 37.7575C36.4151 37.7754 36.3009 37.6914 36.284 37.5703Z" fill="url(#paint16_linear_4790_462)"/>
<path d="M36.3599 38.6961L36.3402 38.3725C36.3332 38.2513 36.429 38.1453 36.5558 38.137L37.3013 38.0874C37.4268 38.0792 37.5353 38.1701 37.5423 38.2912L37.5621 38.6148C37.5691 38.736 37.4733 38.842 37.3464 38.8503L36.6009 38.8998C36.4755 38.9081 36.367 38.8172 36.3599 38.6961Z" fill="url(#paint17_linear_4790_462)"/>
<path d="M36.442 39.8904L36.4222 39.5668C36.4152 39.4456 36.511 39.3396 36.6379 39.3313L37.3834 39.2818C37.5088 39.2735 37.6173 39.3644 37.6244 39.4856L37.6441 39.8091C37.6511 39.9303 37.5553 40.0363 37.4285 40.0446L36.683 40.0942C36.5575 40.1024 36.449 40.0116 36.442 39.8904Z" fill="url(#paint18_linear_4790_462)"/>
<path d="M36.5416 41.1267L36.5218 40.8031C36.5148 40.682 36.6106 40.5759 36.7375 40.5677L37.483 40.5181C37.6084 40.5098 37.7169 40.6007 37.724 40.7219L37.7437 41.0455C37.7508 41.1666 37.6549 41.2727 37.5281 41.2809L36.7826 41.3305C36.6571 41.3388 36.5486 41.2479 36.5416 41.1267Z" fill="url(#paint19_linear_4790_462)"/>
<path d="M36.6373 42.3645L36.6176 42.0409C36.6105 41.9198 36.7063 41.8137 36.8332 41.8055L37.5787 41.7559C37.7041 41.7476 37.8126 41.8385 37.8197 41.9597L37.8394 42.2833C37.8465 42.4044 37.7506 42.5105 37.6238 42.5187L36.8783 42.5683C36.7528 42.5766 36.6443 42.4857 36.6373 42.3645Z" fill="url(#paint20_linear_4790_462)"/>
<path d="M47.35 40.9476C45.5658 41.2202 43.7478 41.5231 41.9002 41.8577C41.2082 41.983 40.5233 42.1111 39.8426 42.2419C39.6383 42.8712 39.4227 43.3696 39.2507 43.7249C39.0562 44.1283 38.8491 44.4891 38.7659 44.6392C38.6687 44.8141 38.5433 45.0261 38.4446 45.1817C38.0613 45.7807 37.2608 46.7184 35.4414 47.6189C37.678 47.5404 39.9963 47.4055 42.3892 47.2031C43.2545 47.1301 44.1086 47.0502 44.9527 46.9635C45.3657 45.8674 45.7983 44.7549 46.2507 43.6285C46.6157 42.7197 46.9835 41.8247 47.3528 40.9448L47.35 40.9476Z" fill="url(#paint21_linear_4790_462)" stroke="white" stroke-width="1.175" stroke-miterlimit="10"/>
<path d="M46.2516 41.5122C44.9071 41.7656 43.5387 42.0423 42.1477 42.3453C41.6277 42.4582 41.1119 42.5738 40.6003 42.6895C40.4664 43.1701 40.317 43.5515 40.1986 43.8255C40.0633 44.1353 39.9182 44.4121 39.8604 44.5291C39.7928 44.6641 39.704 44.8265 39.6335 44.9463C39.3629 45.409 38.7851 46.1374 37.4336 46.8658C39.1276 46.7474 40.8807 46.5835 42.6889 46.3673C43.3428 46.2889 43.9882 46.2062 44.6252 46.1181C44.9043 45.2795 45.196 44.4286 45.5018 43.5666C45.7498 42.8713 45.9993 42.1855 46.2516 41.5122Z" fill="url(#paint22_linear_4790_462)" stroke="white" stroke-width="1.175" stroke-miterlimit="10"/>
<path d="M46.7415 32.0943C44.9193 32.6727 43.052 33.24 41.141 33.7894C40.4265 33.9959 39.7162 34.1956 39.0087 34.3911C38.5409 33.8982 38.1167 33.5333 37.7982 33.2813C37.436 32.9949 37.0822 32.7553 36.9371 32.6534C36.768 32.535 36.5566 32.3959 36.3945 32.2968C35.7688 31.9153 34.5962 31.4141 32.4668 31.421C34.6371 30.4489 36.9089 29.4919 39.2807 28.5638C40.139 28.2279 40.9902 27.9029 41.833 27.5903C42.7039 28.422 43.6002 29.2592 44.5219 30.1005C45.2646 30.7794 46.0059 31.4444 46.7415 32.0943Z" fill="url(#paint23_linear_4790_462)" stroke="white" stroke-width="1.175" stroke-miterlimit="10"/>
<path d="M45.4479 32.0802C44.0541 32.4713 42.6279 32.8527 41.1679 33.219C40.6225 33.3567 40.0785 33.4902 39.5401 33.6197C39.2033 33.2327 38.8947 32.9463 38.6636 32.7467C38.4 32.5195 38.1407 32.3281 38.0336 32.2468C37.9096 32.1532 37.7546 32.0417 37.6348 31.9618C37.1754 31.6561 36.3072 31.2458 34.6992 31.1949C36.3678 30.5146 38.1125 29.8482 39.9333 29.2052C40.5915 28.9725 41.244 28.7494 41.8909 28.5332C42.5208 29.1873 43.1705 29.8454 43.8371 30.5078C44.3754 31.042 44.9124 31.5653 45.4465 32.0775L45.4479 32.0802Z" fill="url(#paint24_linear_4790_462)" stroke="white" stroke-width="1.175" stroke-miterlimit="10"/>
<path d="M1.80341 32.9687C1.67657 32.9397 1.55819 32.8819 1.45954 32.7993C1.07058 32.5253 0.756308 32.1673 0.539277 31.7528C0.419487 31.5132 0.330701 31.2599 0.271511 30.9982C0.171451 30.5948 0.129172 30.1803 0.143265 29.7659C0.146083 29.5318 0.182725 29.2963 0.208092 29.0622C0.229232 28.97 0.239097 28.875 0.237687 28.7813C0.236278 28.7497 0.240506 28.718 0.248962 28.6877C0.306743 28.4757 0.364524 28.2636 0.43217 28.0516C0.47304 27.9249 0.504044 27.7927 0.549142 27.6646C0.691481 27.2695 0.867642 26.8867 1.07622 26.5204C1.25943 26.1844 1.47504 25.865 1.72026 25.5675C1.85414 25.4078 1.97394 25.2371 2.11205 25.0815C2.24029 24.9383 2.38827 24.8116 2.52074 24.6711C2.93367 24.2429 3.44665 23.94 3.9399 23.6123C4.18935 23.4608 4.45148 23.33 4.72488 23.2226C4.925 23.1345 5.12935 23.0587 5.33792 22.9816C5.41543 22.9541 5.49717 22.9444 5.5775 22.9224C5.6677 22.9018 5.73534 22.8288 5.74803 22.7393C5.77058 22.5988 5.8044 22.4598 5.83118 22.3193C5.87346 22.1017 5.91996 21.8856 5.95378 21.6666C6.00734 21.3183 6.15531 21.0029 6.30752 20.6862C6.46818 20.3654 6.67253 20.0666 6.91492 19.7967C7.13196 19.5434 7.34617 19.2762 7.64635 19.0972C7.80278 18.9334 7.98599 18.7957 8.18893 18.6883C8.49193 18.501 8.81184 18.3427 9.14725 18.216C9.69828 18.0328 10.2634 17.9709 10.8356 17.931C10.9089 17.9392 10.9793 17.8952 11.0005 17.8263C11.0357 17.7382 11.0639 17.6459 11.085 17.5537C11.1062 17.4628 11.1019 17.3637 11.1611 17.2824C11.1682 17.2962 11.178 17.3086 11.1879 17.321C11.2457 17.3705 11.2682 17.3678 11.3035 17.3196C11.3176 17.3003 11.3302 17.2783 11.3401 17.2576C11.4247 17.0704 11.536 16.8941 11.6685 16.7344C11.7897 16.5857 11.9193 16.4438 12.0574 16.3089C12.1899 16.1767 12.3759 16.1079 12.4788 15.9481C12.4887 15.9344 12.5028 15.9261 12.5183 15.922C12.7057 15.8807 12.8368 15.7265 13.0242 15.6851C13.2102 15.5543 13.44 15.5364 13.6485 15.4882C13.8543 15.4414 14.0671 15.4277 14.2771 15.4442C14.4321 15.4552 14.5858 15.4387 14.7408 15.4635C15.0973 15.5185 15.4215 15.6686 15.7498 15.8008C15.7653 15.8077 15.778 15.816 15.7921 15.8242L16.3248 16.196C16.477 16.3006 16.6067 16.4315 16.7082 16.5829C16.8533 16.8005 17.0112 17.0098 17.162 17.2232C17.1408 17.2576 17.1535 17.3017 17.1887 17.3223C17.1915 17.3265 17.2071 17.3265 17.2113 17.3223C17.2451 17.2879 17.231 17.2507 17.2141 17.2149C17.2099 17.2081 17.2056 17.2025 17.2 17.1957C17.1746 17.1213 17.1521 17.047 17.1253 16.974C17.0985 16.8707 17.0591 16.7716 17.0083 16.6766C16.8223 16.4136 16.6659 16.1271 16.4122 15.9123C16.2656 15.7898 16.1374 15.6452 15.9683 15.5516C15.6737 15.3712 15.3552 15.2308 15.0198 15.1344C14.9649 15.1178 14.9198 15.082 14.8916 15.0338C15.0142 15.0159 15.1382 15.0352 15.2481 15.0889C15.5244 15.1839 15.7865 15.312 16.0289 15.4703C16.1515 15.5585 16.2811 15.6425 16.3939 15.7402C16.4883 15.8132 16.5729 15.8986 16.6462 15.9936C16.7786 16.1808 16.9167 16.3654 17.0506 16.5526C17.1126 16.6463 17.1634 16.7454 17.2 16.85C17.293 17.1007 17.3635 17.3595 17.4114 17.6225C17.4255 17.7079 17.4241 17.7946 17.4072 17.88C17.3987 17.9337 17.4156 18.0273 17.3367 18.026C17.2803 18.026 17.2916 17.9351 17.2789 17.8855C17.2056 17.5867 17.0703 17.3044 16.8801 17.0593C16.7476 16.89 16.6321 16.7096 16.508 16.5347C16.4249 16.4191 16.3234 16.3158 16.2079 16.2304C15.9246 16.0087 15.6061 15.8325 15.265 15.7072C15.2411 15.6989 15.2214 15.6851 15.1988 15.6796C14.7211 15.5709 14.2391 15.4786 13.7458 15.5695C13.4879 15.6135 13.237 15.6934 13.0017 15.8049C12.841 15.8848 12.6846 15.9729 12.5352 16.0707C12.2096 16.2855 11.9278 16.5554 11.7037 16.8693C11.4937 17.153 11.319 17.4587 11.1851 17.7809C11.1513 17.8649 11.1639 17.8869 11.2457 17.931C11.3105 17.9626 11.3824 17.9833 11.4543 17.9915C11.6558 18.0273 11.8545 18.0687 12.0574 18.0948C12.3069 18.1334 12.5521 18.1912 12.7917 18.2683C13.1891 18.3867 13.5555 18.5836 13.8684 18.8453C13.8867 18.8604 13.8966 18.8824 13.8966 18.9058C13.8895 18.943 13.8529 18.9458 13.8191 18.9444C13.6485 18.9251 13.4822 18.8797 13.3286 18.8067C13.1158 18.7296 12.8988 18.6676 12.6761 18.6208C12.5084 18.5836 12.3379 18.5644 12.166 18.563C11.8559 18.5492 11.5445 18.552 11.2344 18.5699C11.0061 18.5905 10.7806 18.6304 10.558 18.6869C10.176 18.7737 9.80257 18.8976 9.44602 19.0559C9.40233 19.0766 9.35864 19.1 9.31777 19.1262C8.988 19.3203 8.6695 19.5324 8.36368 19.7595C8.23825 19.8601 8.12128 19.9702 8.01417 20.0914C7.71118 20.3929 7.45328 20.7331 7.24752 21.1035C7.04599 21.4656 6.88674 21.8484 6.77399 22.2436C6.73594 22.3716 6.7134 22.5038 6.70494 22.6374C6.70353 22.7379 6.71762 22.7627 6.82332 22.7751C6.96002 22.793 7.09954 22.7985 7.23624 22.8136C7.60125 22.8453 7.9578 22.9348 8.29181 23.0766C8.48629 23.1716 8.66104 23.2983 8.80761 23.4525C8.76251 23.4828 8.71319 23.4594 8.67091 23.4525C8.42287 23.4057 8.18047 23.3479 7.92962 23.3038C7.77882 23.2749 7.63085 23.2405 7.47723 23.2185C6.96143 23.1455 6.46959 23.2487 5.97915 23.3878C5.90869 23.4085 5.83963 23.4278 5.76776 23.4457C5.65501 23.4691 5.5465 23.5076 5.44503 23.5599C5.35906 23.6068 5.27028 23.6467 5.17867 23.6811C4.66851 23.889 4.22317 24.203 3.77783 24.5114C3.62422 24.6285 3.47765 24.7538 3.33954 24.8901C3.17184 25.0415 3.00131 25.1903 2.84347 25.35C2.43618 25.7631 2.07963 26.2188 1.77804 26.709C1.62161 26.9679 1.47927 27.235 1.35244 27.509C1.20869 27.8092 1.09031 28.1204 0.998707 28.4385C0.905693 28.7634 0.787313 29.0843 0.780266 29.4299C0.776038 29.6006 0.743624 29.7728 0.736578 29.9462C0.725304 30.3786 0.77181 30.811 0.87328 31.2309C0.953609 31.5821 1.08045 31.9222 1.24956 32.243C1.34962 32.4496 1.48914 32.6354 1.65966 32.7938C1.7104 32.8447 1.75549 32.8998 1.79495 32.9576L1.80623 32.9687H1.80341Z" fill="url(#paint25_linear_4790_462)" stroke="#EDEDED" stroke-width="1.175" stroke-miterlimit="10"/>
<path d="M19.877 27.4413C19.7135 27.7002 19.5275 27.9439 19.3175 28.1697C19.0836 28.4245 18.8172 28.6489 18.5241 28.8362C18.51 28.8444 18.4973 28.8527 18.4832 28.8623C18.1661 29.1116 17.7757 29.2272 17.398 29.3498C17.2275 29.4049 17.0626 29.4751 16.8935 29.5315C16.8132 29.5591 16.8033 29.6142 16.8428 29.6816C16.8935 29.7422 16.9513 29.7973 17.0147 29.8469C17.0795 29.9198 17.1824 29.9501 17.2797 29.9267C17.4727 29.9006 17.6644 29.8606 17.8518 29.8083C18.0534 29.7395 18.2464 29.6568 18.4437 29.5797C18.5917 29.5343 18.7327 29.4723 18.8679 29.398C19.023 29.2947 19.1794 29.1914 19.3358 29.0868L19.3386 29.0909C19.4598 29.0097 19.5825 28.9298 19.7051 28.8486C19.8263 28.7673 19.9376 28.6723 20.0362 28.5677C20.1194 28.4809 20.1927 28.3845 20.2801 28.3019C20.3646 28.2124 20.4435 28.1174 20.5182 28.0183C20.2815 27.8516 20.0673 27.6575 19.8784 27.4399L19.877 27.4413Z" fill="url(#paint26_linear_4790_462)" stroke="#EDEDED" stroke-width="1.175" stroke-miterlimit="10"/>
<path d="M10.2035 26.8906C10.1499 26.8356 10.1288 26.7598 10.1471 26.6855C10.1809 26.293 10.2556 25.9034 10.4839 25.5619C10.7009 25.2342 10.9405 24.9257 11.2971 24.7164C11.493 24.6021 11.6762 24.4645 11.896 24.3873C12.3738 24.218 12.8811 24.1478 13.3871 24.1808C13.745 24.2028 14.096 24.2799 14.4272 24.4108C14.5624 24.4631 14.6907 24.5333 14.8063 24.62C14.926 24.7137 15.0487 24.8032 15.1656 24.8996C15.3517 25.062 15.5123 25.2521 15.6391 25.4614C15.852 25.7932 15.9999 26.1609 16.0788 26.5437C16.1141 26.6965 16.1352 26.8507 16.1423 27.0077C16.155 27.2597 16.1282 27.513 16.0605 27.7581C16.0535 27.7815 16.0281 27.7953 16.0042 27.7912C15.9887 27.7884 15.9746 27.7774 15.9675 27.7636C15.9281 27.67 15.8942 27.5736 15.8675 27.4758C15.7914 27.1963 15.6913 26.9237 15.5673 26.6593C15.4869 26.4968 15.3897 26.3426 15.277 26.1994C15.0148 25.84 14.6555 25.5578 14.2383 25.3787C13.9945 25.2658 13.7338 25.2163 13.4801 25.1268C13.342 25.0772 13.1884 25.0979 13.0432 25.0882C12.6909 25.0731 12.34 25.1309 12.0116 25.2576C11.7706 25.3374 11.5465 25.4559 11.3464 25.6087C11.0589 25.8428 10.7686 26.0755 10.5502 26.3757C10.429 26.5354 10.3247 26.7061 10.2063 26.8865L10.2035 26.8906Z" fill="url(#paint27_linear_4790_462)" stroke="#EDEDED" stroke-width="1.175" stroke-miterlimit="10"/>
<path d="M5.8654 32.463L5.92036 32.5402C6.16276 32.9574 6.54327 33.2341 6.95619 33.4737C7.04357 33.515 7.13376 33.5508 7.22537 33.5798C7.28597 33.6059 7.34657 33.6321 7.40576 33.6582C7.42972 33.6651 7.44381 33.6872 7.4424 33.7106C7.43958 33.7354 7.41562 33.7533 7.39026 33.7505C7.21973 33.7698 7.0478 33.7615 6.8815 33.7243C6.51931 33.6307 6.17685 33.4806 5.86681 33.2796C5.65118 33.1267 5.45107 32.956 5.26645 32.7701C5.14102 32.6572 5.02969 32.5319 4.93667 32.3928C4.72528 32.0692 4.56744 31.714 4.4716 31.3408C4.36309 30.9057 4.35886 30.4499 4.45751 30.0107C4.5012 29.8014 4.55898 29.5962 4.62381 29.3924C4.69991 29.1749 4.80843 28.9697 4.94513 28.7811C5.23121 28.3542 5.61877 27.999 6.07679 27.7456C6.47421 27.5253 6.90828 27.3725 7.35925 27.2953C7.68198 27.2416 8.01034 27.2444 8.33026 27.3064C8.36267 27.3119 8.39367 27.3201 8.42468 27.3311C8.43877 27.338 8.45005 27.3504 8.45427 27.3642C8.45286 27.3793 8.443 27.3931 8.42891 27.4C8.36831 27.422 8.30489 27.4399 8.24147 27.4537C7.86942 27.517 7.52414 27.6657 7.17463 27.8021C6.85895 27.926 6.60105 28.1394 6.32201 28.3184C6.26423 28.3625 6.21208 28.4134 6.16699 28.4699C5.96687 28.6668 5.7893 28.8843 5.63709 29.1198C5.5173 29.3181 5.4257 29.5315 5.36369 29.7518C5.28477 30.0011 5.2439 30.2613 5.24108 30.5215C5.23826 30.7804 5.26222 31.0393 5.31577 31.294C5.41301 31.6878 5.53985 32.0637 5.80621 32.3818C5.82876 32.408 5.84567 32.4341 5.86399 32.4617L5.8654 32.463Z" fill="url(#paint28_linear_4790_462)" stroke="#EDEDED" stroke-width="1.175" stroke-miterlimit="10"/>
<path d="M35.2576 41.7943C34.4783 41.9912 33.6863 42.144 32.8886 42.25C31.8979 42.3822 30.893 42.3657 29.9108 42.2032C29.5035 42.1261 29.1047 42.0173 28.7171 41.8769C28.0096 41.6208 27.3444 41.2697 26.7413 40.8318C26.5017 40.6666 26.5045 40.6487 26.7103 40.4573C27.2993 39.8996 27.9631 39.4218 28.6833 39.0349C29.223 38.7347 29.7952 38.491 30.3871 38.3078C31.096 38.0834 31.8302 37.9457 32.5715 37.8947C33.4185 37.8424 34.2669 37.9333 35.0787 38.1619C35.1689 38.1756 35.2323 38.2528 35.2266 38.3409C35.2337 38.5598 35.2647 38.776 35.2745 38.9949C35.3239 39.8431 35.3563 40.6941 35.3986 41.5437C35.4028 41.5685 35.4042 41.5932 35.4056 41.618C35.4155 41.7048 35.3492 41.7833 35.2605 41.7943C35.2605 41.7943 35.2576 41.7943 35.2562 41.7943H35.2576ZM28.0886 40.5371C28.1886 40.606 28.2915 40.6693 28.3986 40.7271C28.7354 40.8924 29.0891 41.0218 29.4556 41.1141C30.1123 41.2889 30.7944 41.3716 31.4779 41.3592C32.3601 41.3537 33.2395 41.2449 34.0978 41.0328C34.2345 41.0108 34.3698 40.9777 34.4994 40.9309C34.5614 40.9117 34.6023 40.8538 34.5995 40.7919C34.5741 40.2824 34.5474 39.7729 34.5192 39.2634C34.5135 39.1602 34.4417 39.1202 34.3402 39.1133C34.126 39.0968 33.9118 39.0789 33.699 39.0569C32.7702 38.9674 31.8612 39.1065 30.9565 39.313C30.5633 39.4108 30.1771 39.5375 29.8037 39.6917C29.3964 39.8294 29.0004 39.9974 28.6184 40.1929C28.424 40.2782 28.2436 40.3912 28.0857 40.5302L28.0886 40.5371Z" fill="url(#paint29_linear_4790_462)"/>
<path d="M32.7438 43.6055C32.7536 43.7308 32.7311 43.8575 32.6817 43.9759C32.5295 44.4206 32.2702 44.8254 31.9264 45.1587C31.7248 45.3459 31.5022 45.5112 31.2626 45.6489C30.8948 45.8719 30.5002 46.0454 30.0858 46.168C29.8533 46.241 29.6109 46.285 29.3727 46.3373C29.2755 46.3484 29.1796 46.369 29.0866 46.4021C29.0556 46.4145 29.0232 46.42 28.9908 46.4213C28.7653 46.4365 28.537 46.4544 28.3073 46.4613C28.1692 46.4654 28.0311 46.4792 27.8915 46.4805C27.4589 46.4792 27.0291 46.442 26.6034 46.3718C26.2173 46.3139 25.8368 46.2203 25.4704 46.0922C25.2731 46.022 25.0687 45.9683 24.8742 45.8926C24.6939 45.8224 24.5247 45.7287 24.3472 45.6516C23.8004 45.4134 23.3466 45.043 22.8759 44.6974C22.6518 44.5184 22.4432 44.3201 22.2558 44.1067C22.1078 43.9525 21.9725 43.79 21.833 43.6247C21.7823 43.5642 21.7484 43.4912 21.7019 43.4251C21.654 43.3494 21.561 43.3108 21.4708 43.3287C21.3256 43.3535 21.1791 43.3686 21.0325 43.3893C20.8056 43.421 20.5773 43.4499 20.3518 43.4898C19.9924 43.5545 19.6373 43.5215 19.2793 43.4857C18.9143 43.443 18.5578 43.3535 18.2196 43.2199C17.9039 43.1043 17.5769 42.9955 17.3106 42.7793C17.102 42.6898 16.9103 42.5672 16.744 42.4158C16.4678 42.1996 16.2155 41.9573 15.99 41.6929C15.6434 41.2495 15.4122 40.751 15.2008 40.2416C15.1867 40.1713 15.1219 40.1218 15.0472 40.1245C14.9486 40.1218 14.8513 40.1245 14.7541 40.1369C14.6583 40.1479 14.5624 40.1837 14.4638 40.1548C14.4751 40.1438 14.4849 40.1314 14.4934 40.1176C14.5258 40.0488 14.5145 40.0295 14.4567 40.013C14.4328 40.0061 14.4088 40.002 14.3835 39.9992C14.1735 39.9827 13.9663 39.9386 13.769 39.8684C13.5858 39.8065 13.4068 39.7335 13.2335 39.6509C13.0629 39.5737 12.9389 39.425 12.7501 39.3824C12.7346 39.3782 12.7205 39.3686 12.712 39.3548C12.6148 39.1965 12.4231 39.1262 12.3273 38.9693C12.1427 38.8412 12.0553 38.6374 11.9454 38.4612C11.8382 38.2877 11.7593 38.099 11.7128 37.9008C11.6776 37.7562 11.6142 37.6212 11.593 37.4711C11.5409 37.1269 11.5916 36.7813 11.6226 36.4371C11.624 36.4219 11.6283 36.4054 11.6339 36.3916L11.8411 35.7844C11.8988 35.6109 11.989 35.4498 12.1074 35.308C12.2779 35.1042 12.4372 34.8921 12.6021 34.6842C12.643 34.6925 12.6824 34.6663 12.6909 34.6277C12.6951 34.6236 12.6909 34.6085 12.6852 34.6071C12.6401 34.5878 12.6091 34.6112 12.5795 34.6401C12.5739 34.6456 12.5697 34.6525 12.5654 34.658C12.4992 34.7062 12.433 34.7503 12.3696 34.7999C12.2765 34.8577 12.1892 34.9265 12.1117 35.0036C11.9087 35.2598 11.672 35.4966 11.5381 35.7981C11.462 35.9716 11.3577 36.1355 11.3168 36.3214C11.228 36.6491 11.1857 36.9865 11.1914 37.3252C11.1914 37.3803 11.1702 37.434 11.1308 37.4753C11.0772 37.3692 11.0575 37.2495 11.0786 37.131C11.0899 36.8474 11.1364 36.5665 11.2196 36.2925C11.2703 36.1506 11.3126 36.0061 11.376 35.8711C11.4197 35.761 11.4789 35.6549 11.5493 35.5586C11.6945 35.3754 11.8354 35.1909 11.9792 35.0064C12.0525 34.9196 12.1356 34.8412 12.2272 34.7723C12.4471 34.6057 12.6796 34.457 12.9248 34.3276C13.0051 34.2876 13.0911 34.2601 13.1799 34.2463C13.2349 34.2367 13.3222 34.1899 13.3448 34.2628C13.3631 34.3138 13.2687 34.3344 13.2236 34.362C12.9502 34.5258 12.7134 34.742 12.5288 34.9954C12.402 35.1716 12.2582 35.3369 12.1243 35.5062C12.0356 35.6205 11.9637 35.7458 11.9144 35.8794C11.7819 36.2112 11.703 36.5596 11.6818 36.9121C11.6818 36.9369 11.6734 36.9603 11.6748 36.9823C11.7114 37.4546 11.7664 37.9255 12.0045 38.3483C12.1257 38.57 12.2794 38.7737 12.4612 38.9527C12.588 39.0739 12.7219 39.1882 12.8628 39.2929C13.1729 39.5214 13.5238 39.6908 13.9 39.7927C14.2425 39.8932 14.5977 39.9524 14.9556 39.9703C15.0486 39.9744 15.0656 39.9552 15.0853 39.867C15.0966 39.7968 15.0951 39.7252 15.0811 39.6564C15.0557 39.4608 15.036 39.2653 15.0007 39.0712C14.9641 38.8302 14.9472 38.5865 14.95 38.3428C14.9472 37.9407 15.0303 37.5414 15.1938 37.1696C15.2037 37.1489 15.222 37.1324 15.2445 37.1241C15.2826 37.1186 15.2981 37.1503 15.3051 37.182C15.3375 37.3445 15.3418 37.5111 15.3164 37.6749C15.3037 37.8939 15.3079 38.1142 15.3291 38.3331C15.3432 38.4984 15.3742 38.6608 15.4249 38.8192C15.5052 39.107 15.6011 39.3906 15.7124 39.6688C15.8012 39.8712 15.9083 40.0639 16.0309 40.2485C16.2324 40.5693 16.4664 40.8708 16.7299 41.1462C16.7638 41.1807 16.799 41.2123 16.8384 41.2412C17.1288 41.4795 17.4332 41.7025 17.7503 41.9077C17.887 41.9903 18.0321 42.0605 18.1815 42.1197C18.5705 42.2987 18.9834 42.424 19.409 42.4915C19.8276 42.5576 20.2518 42.5783 20.676 42.5535C20.8141 42.5466 20.9508 42.5246 21.0846 42.4888C21.1847 42.4571 21.2044 42.4364 21.1847 42.3359C21.1608 42.2051 21.1255 42.0757 21.0987 41.9449C21.0198 41.6006 21.0001 41.2454 21.041 40.8929C21.0762 40.685 21.1481 40.4839 21.2566 40.298C21.2989 40.3297 21.2918 40.382 21.296 40.4233C21.3242 40.6657 21.3411 40.9053 21.3721 41.1504C21.3891 41.2977 21.3989 41.445 21.4243 41.591C21.5088 42.0867 21.7569 42.5039 22.043 42.906C22.0838 42.9624 22.1247 43.0203 22.1642 43.0808C22.2205 43.1759 22.291 43.2626 22.3742 43.3383C22.446 43.4017 22.5123 43.4692 22.5729 43.5421C22.9322 43.9401 23.3748 44.2458 23.8145 44.5528C23.9765 44.6561 24.1442 44.7483 24.319 44.8296C24.5191 44.9329 24.7164 45.0416 24.9208 45.1339C25.4506 45.3707 26.0073 45.5497 26.5809 45.6654C26.8839 45.7232 27.1897 45.7673 27.4969 45.7948C27.8366 45.8279 28.179 45.8348 28.5201 45.8155C28.8682 45.7948 29.2205 45.799 29.5644 45.6929C29.7335 45.6406 29.9139 45.6144 30.0858 45.5649C30.5157 45.4341 30.9286 45.2523 31.3119 45.021C31.6346 44.8323 31.932 44.6065 32.1969 44.3476C32.3703 44.1893 32.5126 44.0007 32.6169 43.7941C32.6521 43.7321 32.693 43.6729 32.7381 43.6165L32.7452 43.6013L32.7438 43.6055Z" fill="url(#paint30_linear_4790_462)" stroke="#EDEDED" stroke-width="1.175" stroke-miterlimit="10"/>
<path d="M32.0202 36.788C32.0484 36.8045 32.0752 36.821 32.102 36.8376C32.1471 36.7095 32.1908 36.5801 32.2373 36.452C32.2725 36.3391 32.2936 36.2221 32.2993 36.1037C32.3148 35.9563 32.3077 35.8062 32.3091 35.6575C32.2979 35.3739 32.2514 35.0943 32.1682 34.8231C32.1485 34.706 32.0907 34.5986 32.0047 34.5146C31.9808 34.5656 31.978 34.6234 31.9963 34.6744C32.1118 34.9925 32.1837 35.3229 32.2077 35.6603C32.2302 35.8475 32.1851 36.0348 32.1696 36.2221C32.1527 36.419 32.0921 36.6049 32.0231 36.788H32.0202Z" fill="url(#paint31_linear_4790_462)" stroke="#EDEDED" stroke-width="1.175" stroke-miterlimit="10"/>
<path d="M20.2956 32.6011C20.2632 32.4537 20.2392 32.3036 20.2251 32.1508C20.2223 32.1508 20.2209 32.1522 20.2181 32.1536C20.1378 32.199 20.0363 32.1907 19.9658 32.1329C19.901 32.0847 19.8446 32.0269 19.7756 31.9842C19.5881 31.8713 19.4063 31.7584 19.2147 31.6579C18.9652 31.5133 18.7017 31.3894 18.4297 31.2888C17.8674 31.1071 17.3135 30.8964 16.7146 30.8386C16.5201 30.8207 16.3284 30.7835 16.134 30.7725C15.9226 30.7601 15.7112 30.7725 15.4998 30.7656C15.108 30.7573 14.7162 30.7849 14.3287 30.8482C13.9003 30.9115 13.4789 31.0079 13.066 31.1387C12.9335 31.1828 12.8053 31.2393 12.6756 31.2847C12.4586 31.3618 12.2486 31.4472 12.0386 31.5312C12.0076 31.5422 11.9794 31.5587 11.954 31.5794C11.8765 31.6386 11.792 31.6881 11.7032 31.7281C11.4932 31.8506 11.2762 31.9663 11.0789 32.1067C10.7251 32.3491 10.4052 32.6341 10.129 32.9563C9.9458 33.1601 9.78796 33.3832 9.65831 33.6214C9.43987 34.0414 9.32712 34.5026 9.32853 34.9694C9.31867 35.0961 9.33981 35.2214 9.39054 35.3385V35.3219C9.41732 35.2558 9.43705 35.187 9.44973 35.1168C9.48074 34.8896 9.55402 34.6679 9.66676 34.4655C9.83447 34.1405 10.043 33.8362 10.2869 33.5594C10.5772 33.2248 10.9084 32.926 11.2762 32.6713C11.4242 32.5722 11.5862 32.4909 11.7314 32.3904C12.0231 32.1852 12.3599 32.0806 12.6855 31.9553C13.004 31.8314 13.3323 31.7336 13.6663 31.662C13.9693 31.5945 14.2737 31.5422 14.5823 31.5036C15.1672 31.4375 15.7563 31.4362 16.3397 31.4981C16.5652 31.5229 16.7893 31.5642 17.0134 31.6014C17.2064 31.6248 17.3981 31.6606 17.5855 31.7088C18.1056 31.8644 18.627 32.0172 19.1005 32.283C19.1823 32.3326 19.2682 32.3766 19.357 32.4152C19.4613 32.4606 19.5571 32.5212 19.6417 32.5942C19.6981 32.6382 19.7559 32.6809 19.815 32.7222C19.956 32.8241 20.0927 32.9288 20.2223 33.0417C20.2449 32.9577 20.2731 32.8751 20.3027 32.7925C20.2998 32.7608 20.297 32.7277 20.2956 32.6961C20.2942 32.6644 20.2956 32.6327 20.2956 32.6011Z" fill="url(#paint32_linear_4790_462)" stroke="#EDEDED" stroke-width="1.175" stroke-miterlimit="10"/>
<path d="M31.8756 35.6894C31.8756 35.6743 31.8742 35.6578 31.8714 35.6426C31.7883 35.308 31.722 34.9665 31.5586 34.6581C31.4881 34.5232 31.3838 34.4144 31.3021 34.2891C31.1921 34.117 31.0554 33.9627 30.8948 33.8319C30.7313 33.6997 30.5819 33.5331 30.3635 33.4698C30.255 33.3803 30.1112 33.3541 29.9858 33.2949C29.9858 33.3349 29.9858 33.3748 29.9844 33.4147C30.0718 33.4491 30.1591 33.4863 30.2451 33.5262C30.4776 33.6392 30.6904 33.7837 30.8793 33.9572C31.2457 34.2836 31.4529 34.7104 31.6431 35.1455C31.6516 35.1662 31.6516 35.191 31.6586 35.2144C31.7559 35.5545 31.7953 35.907 31.7784 36.2609C31.7756 36.3903 31.753 36.517 31.7136 36.6409C31.7545 36.6574 31.7939 36.6753 31.8348 36.6946C31.8658 36.5748 31.8813 36.4523 31.8799 36.3283L31.8756 35.6908V35.6894Z" fill="url(#paint33_linear_4790_462)" stroke="#EDEDED" stroke-width="1.175" stroke-miterlimit="10"/>
<path d="M88.4351 47.808C88.2096 47.808 87.9503 47.7694 87.6572 47.6923C87.3641 47.6262 87.0766 47.5105 86.7947 47.3453C86.5241 47.1801 86.2986 46.9377 86.1182 46.6183C85.9379 46.2988 85.8477 45.8913 85.8477 45.3955H86.5579C86.5579 45.6489 86.6087 45.9133 86.7102 46.1887C86.8116 46.453 86.9976 46.6789 87.2682 46.8661C87.5501 47.0534 87.9391 47.147 88.4351 47.147C89.0552 47.147 89.5118 46.9873 89.805 46.6679C90.1094 46.3484 90.2616 45.8196 90.2616 45.0816V38.6375H91.0226V45.0155C91.0226 45.4561 90.9719 45.8527 90.8704 46.2052C90.7689 46.5467 90.6111 46.8386 90.3969 47.0809C90.1939 47.3233 89.929 47.505 89.602 47.6262C89.2863 47.7474 88.8974 47.808 88.4351 47.808ZM88.4182 38.9845V38.3566H91.0226V38.9845H88.4182ZM105.636 47.8741C104.407 47.8741 103.454 47.5105 102.778 46.7835C102.101 46.0455 101.763 45.01 101.763 43.6771V38.34H102.541V43.6771C102.541 44.2609 102.614 44.7732 102.761 45.2138C102.907 45.6434 103.116 46.0069 103.386 46.3043C103.657 46.5907 103.984 46.8055 104.367 46.9488C104.751 47.092 105.173 47.1636 105.636 47.1636C106.312 47.1636 106.876 47.0369 107.327 46.7835C107.789 46.5302 108.138 46.1446 108.375 45.6269C108.623 45.1091 108.747 44.4592 108.747 43.6771V38.34H109.508V43.6771C109.508 45.032 109.176 46.073 108.511 46.8C107.857 47.5161 106.898 47.8741 105.636 47.8741ZM127.154 38.34H127.915V47.6427H126.494L121.015 38.687H120.981V47.6427H120.22V38.34H121.556L127.12 47.2957H127.154V38.34ZM139.995 47.3453V38.6375H140.756V47.3453H139.995ZM138.659 47.6427V46.9818H142.076V47.6427H138.659ZM138.659 39.0175V38.34H142.076V39.0175H138.659ZM156.928 47.8741C155.44 47.8741 154.307 47.4389 153.529 46.5687C152.751 45.6875 152.362 44.5033 152.362 43.0162C152.362 42.0358 152.531 41.1876 152.87 40.4716C153.208 39.7445 153.715 39.1827 154.392 38.7862C155.068 38.3786 155.914 38.1748 156.928 38.1748C158.417 38.1748 159.544 38.6154 160.311 39.4967C161.089 40.3669 161.477 41.5401 161.477 43.0162C161.477 43.9745 161.303 44.8227 160.953 45.5608C160.615 46.2878 160.108 46.8551 159.431 47.2627C158.766 47.6703 157.932 47.8741 156.928 47.8741ZM156.928 47.1636C157.774 47.1636 158.473 46.9928 159.025 46.6513C159.589 46.2988 160.012 45.8141 160.294 45.1973C160.587 44.5694 160.733 43.8423 160.733 43.0162C160.733 42.179 160.592 41.452 160.311 40.8351C160.04 40.2182 159.617 39.739 159.042 39.3975C158.479 39.0561 157.774 38.8853 156.928 38.8853C155.677 38.8853 154.73 39.2488 154.087 39.9759C153.445 40.7029 153.123 41.7163 153.123 43.0162C153.123 43.8313 153.258 44.5529 153.529 45.1807C153.8 45.7976 154.217 46.2823 154.781 46.6348C155.356 46.9873 156.071 47.1636 156.928 47.1636ZM172.023 47.6427V38.34H174.983C175.783 38.34 176.46 38.4171 177.012 38.5714C177.565 38.7256 177.982 38.99 178.264 39.3645C178.557 39.739 178.703 40.2678 178.703 40.9507C178.703 41.3693 178.624 41.7604 178.467 42.1239C178.309 42.4874 178.061 42.7848 177.722 43.0162C177.395 43.2365 176.967 43.3466 176.437 43.3466C176.877 43.3466 177.221 43.4293 177.469 43.5945C177.717 43.7487 177.892 43.9525 177.993 44.2059C178.106 44.4592 178.173 44.7346 178.196 45.032C178.23 45.3295 178.247 45.6214 178.247 45.9078C178.247 46.1942 178.264 46.4475 178.297 46.6679C178.331 46.8882 178.41 47.0424 178.534 47.1305C178.658 47.2186 178.856 47.2186 179.126 47.1305V47.6758C179.07 47.7198 178.957 47.7584 178.788 47.7914C178.63 47.8245 178.455 47.8135 178.264 47.7584C178.072 47.7033 177.908 47.5766 177.773 47.3784C177.638 47.1801 177.57 46.8772 177.57 46.4696C177.57 45.8307 177.542 45.3184 177.486 44.9329C177.441 44.5473 177.333 44.2554 177.164 44.0571C177.007 43.8589 176.753 43.7212 176.403 43.6441C176.054 43.567 175.586 43.5284 175 43.5284C174.425 43.5284 173.692 43.5339 172.801 43.5449V47.6427H172.023ZM172.801 42.9336H175.287C175.907 42.9336 176.415 42.8785 176.809 42.7683C177.215 42.6472 177.514 42.4489 177.706 42.1735C177.908 41.8871 178.01 41.4905 178.01 40.9838C178.01 40.4 177.886 39.9704 177.638 39.695C177.39 39.4086 177.035 39.2213 176.572 39.1332C176.11 39.045 175.546 39.001 174.881 39.001H172.801V42.9336Z" fill="white"/>
</g>
<defs>
<linearGradient id="paint0_linear_4790_462" x1="43.6314" y1="18.1922" x2="79.6079" y2="18.1922" gradientUnits="userSpaceOnUse">
<stop stop-color="#E30613"/>
<stop offset="1" stop-color="#BE1622"/>
</linearGradient>
<linearGradient id="paint1_linear_4790_462" x1="74.8322" y1="17.7517" x2="110.496" y2="17.7517" gradientUnits="userSpaceOnUse">
<stop stop-color="#E30613"/>
<stop offset="1" stop-color="#BE1622"/>
</linearGradient>
<linearGradient id="paint2_linear_4790_462" x1="106.793" y1="18.2197" x2="140.324" y2="18.2197" gradientUnits="userSpaceOnUse">
<stop stop-color="#E30613"/>
<stop offset="1" stop-color="#BE1622"/>
</linearGradient>
<linearGradient id="paint3_linear_4790_462" x1="136.923" y1="18.2197" x2="164.312" y2="18.2197" gradientUnits="userSpaceOnUse">
<stop stop-color="#E30613"/>
<stop offset="1" stop-color="#BE1622"/>
</linearGradient>
<linearGradient id="paint4_linear_4790_462" x1="160.098" y1="18.2197" x2="187.988" y2="18.2197" gradientUnits="userSpaceOnUse">
<stop stop-color="#E30613"/>
<stop offset="1" stop-color="#BE1622"/>
</linearGradient>
<linearGradient id="paint5_linear_4790_462" x1="28.0472" y1="23.2221" x2="28.0988" y2="23.3592" gradientUnits="userSpaceOnUse">
<stop stop-color="#E30613"/>
<stop offset="1" stop-color="#BE1622"/>
</linearGradient>
<linearGradient id="paint6_linear_4790_462" x1="20.3061" y1="18.1538" x2="52.0519" y2="18.1538" gradientUnits="userSpaceOnUse">
<stop stop-color="#E30613"/>
<stop offset="1" stop-color="#BE1622"/>
</linearGradient>
<linearGradient id="paint7_linear_4790_462" x1="13.3646" y1="15.1542" x2="14.5184" y2="18.2244" gradientUnits="userSpaceOnUse">
<stop stop-color="#E30613"/>
<stop offset="1" stop-color="#BE1622"/>
</linearGradient>
<linearGradient id="paint8_linear_4790_462" x1="11.1598" y1="17.0223" x2="11.2443" y2="17.2473" gradientUnits="userSpaceOnUse">
<stop stop-color="#E30613"/>
<stop offset="1" stop-color="#BE1622"/>
</linearGradient>
<linearGradient id="paint9_linear_4790_462" x1="14.4012" y1="28.1829" x2="14.4083" y2="28.2017" gradientUnits="userSpaceOnUse">
<stop stop-color="#E30613"/>
<stop offset="1" stop-color="#BE1622"/>
</linearGradient>
<linearGradient id="paint10_linear_4790_462" x1="17.1685" y1="17.2167" x2="17.2113" y2="17.3304" gradientUnits="userSpaceOnUse">
<stop stop-color="#E30613"/>
<stop offset="1" stop-color="#BE1622"/>
</linearGradient>
<linearGradient id="paint11_linear_4790_462" x1="12.579" y1="15.3304" x2="12.9604" y2="16.3451" gradientUnits="userSpaceOnUse">
<stop stop-color="#E30613"/>
<stop offset="1" stop-color="#BE1622"/>
</linearGradient>
<linearGradient id="paint12_linear_4790_462" x1="50.719" y1="29.8716" x2="56.3802" y2="44.9343" gradientUnits="userSpaceOnUse">
<stop stop-color="#E30613"/>
<stop offset="1" stop-color="#BE1622"/>
</linearGradient>
<linearGradient id="paint13_linear_4790_462" x1="48.3996" y1="31.4705" x2="53.1823" y2="44.1959" gradientUnits="userSpaceOnUse">
<stop stop-color="#E30613"/>
<stop offset="1" stop-color="#BE1622"/>
</linearGradient>
<linearGradient id="paint14_linear_4790_462" x1="55.8373" y1="35.0043" x2="57.5874" y2="39.6607" gradientUnits="userSpaceOnUse">
<stop stop-color="#E30613"/>
<stop offset="1" stop-color="#BE1622"/>
</linearGradient>
<linearGradient id="paint15_linear_4790_462" x1="35.968" y1="36.9378" x2="38.1878" y2="42.8442" gradientUnits="userSpaceOnUse">
<stop stop-color="#E30613"/>
<stop offset="1" stop-color="#BE1622"/>
</linearGradient>
<linearGradient id="paint16_linear_4790_462" x1="36.6881" y1="36.8991" x2="37.0126" y2="37.7626" gradientUnits="userSpaceOnUse">
<stop stop-color="#E30613"/>
<stop offset="1" stop-color="#BE1622"/>
</linearGradient>
<linearGradient id="paint17_linear_4790_462" x1="36.7719" y1="38.0442" x2="37.112" y2="38.9491" gradientUnits="userSpaceOnUse">
<stop stop-color="#E30613"/>
<stop offset="1" stop-color="#BE1622"/>
</linearGradient>
<linearGradient id="paint18_linear_4790_462" x1="36.8546" y1="39.2398" x2="37.1947" y2="40.1446" gradientUnits="userSpaceOnUse">
<stop stop-color="#E30613"/>
<stop offset="1" stop-color="#BE1622"/>
</linearGradient>
<linearGradient id="paint19_linear_4790_462" x1="36.953" y1="40.4762" x2="37.293" y2="41.3811" gradientUnits="userSpaceOnUse">
<stop stop-color="#E30613"/>
<stop offset="1" stop-color="#BE1622"/>
</linearGradient>
<linearGradient id="paint20_linear_4790_462" x1="37.0501" y1="41.7128" x2="37.3901" y2="42.6176" gradientUnits="userSpaceOnUse">
<stop stop-color="#E30613"/>
<stop offset="1" stop-color="#BE1622"/>
</linearGradient>
<linearGradient id="paint21_linear_4790_462" x1="40.4925" y1="41.9982" x2="42.6797" y2="47.818" gradientUnits="userSpaceOnUse">
<stop stop-color="#E30613"/>
<stop offset="1" stop-color="#BE1622"/>
</linearGradient>
<linearGradient id="paint22_linear_4790_462" x1="41.1651" y1="42.477" x2="42.7923" y2="46.8064" gradientUnits="userSpaceOnUse">
<stop stop-color="#E30613"/>
<stop offset="1" stop-color="#BE1622"/>
</linearGradient>
<linearGradient id="paint23_linear_4790_462" x1="38.4612" y1="28.8566" x2="40.5523" y2="34.4203" gradientUnits="userSpaceOnUse">
<stop stop-color="#E30613"/>
<stop offset="1" stop-color="#BE1622"/>
</linearGradient>
<linearGradient id="paint24_linear_4790_462" x1="39.2114" y1="29.4536" x2="40.8481" y2="33.8087" gradientUnits="userSpaceOnUse">
<stop stop-color="#E30613"/>
<stop offset="1" stop-color="#BE1622"/>
</linearGradient>
<linearGradient id="paint25_linear_4790_462" x1="6.43217" y1="18.1375" x2="10.7431" y2="29.6078" gradientUnits="userSpaceOnUse">
<stop stop-color="#E30613"/>
<stop offset="1" stop-color="#BE1622"/>
</linearGradient>
<linearGradient id="paint26_linear_4790_462" x1="14.8468" y1="19.1196" x2="18.7395" y2="29.4769" gradientUnits="userSpaceOnUse">
<stop stop-color="#E30613"/>
<stop offset="1" stop-color="#BE1622"/>
</linearGradient>
<linearGradient id="paint27_linear_4790_462" x1="12.1938" y1="24.2747" x2="13.8262" y2="28.6182" gradientUnits="userSpaceOnUse">
<stop stop-color="#E30613"/>
<stop offset="1" stop-color="#BE1622"/>
</linearGradient>
<linearGradient id="paint28_linear_4790_462" x1="5.83249" y1="27.793" x2="7.98869" y2="33.53" gradientUnits="userSpaceOnUse">
<stop stop-color="#E30613"/>
<stop offset="1" stop-color="#BE1622"/>
</linearGradient>
<linearGradient id="paint29_linear_4790_462" x1="30.4191" y1="38.2778" x2="32.1779" y2="42.9575" gradientUnits="userSpaceOnUse">
<stop stop-color="#E30613"/>
<stop offset="1" stop-color="#BE1622"/>
</linearGradient>
<linearGradient id="paint30_linear_4790_462" x1="18.636" y1="32.1739" x2="24.6659" y2="48.2176" gradientUnits="userSpaceOnUse">
<stop stop-color="#E30613"/>
<stop offset="1" stop-color="#BE1622"/>
</linearGradient>
<linearGradient id="paint31_linear_4790_462" x1="31.6433" y1="34.6501" x2="32.4207" y2="36.7184" gradientUnits="userSpaceOnUse">
<stop stop-color="#E30613"/>
<stop offset="1" stop-color="#BE1622"/>
</linearGradient>
<linearGradient id="paint32_linear_4790_462" x1="13.6867" y1="30.9045" x2="17.8388" y2="41.9521" gradientUnits="userSpaceOnUse">
<stop stop-color="#E30613"/>
<stop offset="1" stop-color="#BE1622"/>
</linearGradient>
<linearGradient id="paint33_linear_4790_462" x1="27.4988" y1="25.7133" x2="31.6509" y2="36.7607" gradientUnits="userSpaceOnUse">
<stop stop-color="#E30613"/>
<stop offset="1" stop-color="#BE1622"/>
</linearGradient>
<clipPath id="clip0_4790_462">
<rect width="188" height="52.875" fill="white"/>
</clipPath>
</defs>
</svg>
